<?xml version="1.0" standalone="no"?>
<!DOCTYPE svg PUBLIC "-//W3C//DTD SVG 20010904//EN"
 "http://www.w3.org/TR/2001/REC-SVG-20010904/DTD/svg10.dtd">
<svg version="1.0" xmlns="http://www.w3.org/2000/svg"
 width="720.000000pt" height="216.000000pt" viewBox="0 0 720.000000 216.000000"
 preserveAspectRatio="xMidYMid meet">
<metadata>
Created by potrace 1.16, written by Peter Selinger 2001-2019
</metadata>
<g transform="translate(0.000000,216.000000) scale(0.100000,-0.100000)"
fill="#000000" stroke="none">
<path d="M1063 2015 c2 -36 5 -40 27 -40 21 0 26 5 28 33 2 18 -1 32 -7 32 -6
0 -11 -14 -11 -31 0 -41 -23 -33 -32 12 -6 34 -6 34 -5 -6z"/>
<path d="M1197 2043 c-4 -3 -7 -21 -7 -40 0 -30 3 -33 28 -32 16 1 20 3 10 6
-22 5 -24 23 -3 23 21 0 19 18 -2 23 -17 4 -17 5 0 6 9 0 17 6 17 11 0 11 -33
14 -43 3z"/>
<path d="M3370 2036 c-9 -12 -7 -17 9 -28 26 -16 27 -25 4 -31 -14 -4 -13 -5
4 -6 33 -2 39 19 12 40 l-24 19 25 0 c20 0 22 2 10 10 -20 13 -26 12 -40 -4z"/>
<path d="M3473 2010 c0 -25 2 -35 4 -22 2 12 2 32 0 45 -2 12 -4 2 -4 -23z"/>
<path d="M3663 2010 c0 -25 2 -35 4 -22 2 12 2 32 0 45 -2 12 -4 2 -4 -23z"/>
<path d="M3846 2034 c-29 -28 -15 -65 23 -63 23 2 24 2 4 6 -31 6 -33 53 -2
53 11 0 17 5 14 10 -9 14 -21 12 -39 -6z"/>
<path d="M3900 2010 c0 -22 5 -40 10 -40 6 0 10 12 10 27 0 29 15 22 23 -12 4
-16 5 -14 6 6 1 18 -7 32 -24 43 l-25 16 0 -40z"/>
<path d="M4080 2012 c0 -36 3 -39 25 -39 20 0 23 2 14 13 -9 11 -8 18 2 32 13
15 12 16 -3 3 -16 -12 -18 -11 -18 2 0 9 -4 19 -10 22 -6 4 -10 -9 -10 -33z"/>
<path d="M5940 2040 c0 -5 6 -10 14 -10 9 0 16 -13 19 -32 l4 -33 1 33 c1 17
7 32 12 32 6 0 10 -5 10 -11 0 -5 6 -7 13 -4 6 4 4 0 -5 -8 -25 -20 -22 -37 7
-37 20 0 25 5 25 26 0 17 -6 28 -20 31 -11 3 -20 9 -20 14 0 5 -13 9 -30 9
-16 0 -30 -4 -30 -10z m90 -50 c0 -5 -5 -10 -11 -10 -5 0 -7 5 -4 10 3 6 8 10
11 10 2 0 4 -4 4 -10z"/>
<path d="M6156 2034 c-19 -18 -19 -20 -6 -45 6 -10 21 -19 33 -18 l22 0 -22 9
c-34 14 -31 50 5 50 21 0 24 2 12 10 -20 13 -26 12 -44 -6z"/>
<path d="M1133 2005 c0 -22 2 -30 4 -17 2 12 2 30 0 40 -3 9 -5 -1 -4 -23z"/>
<path d="M1318 2035 c-2 -3 -3 -18 0 -35 3 -19 10 -30 21 -30 13 0 13 2 2 9
-8 5 -12 18 -8 30 5 20 -5 36 -15 26z"/>
<path d="M3430 2005 c0 -27 4 -35 18 -34 10 0 12 3 5 6 -16 6 -17 40 -1 45 7
3 6 7 -5 11 -14 5 -17 0 -17 -28z"/>
<path d="M6280 2005 c0 -27 4 -35 18 -34 10 0 12 3 5 6 -16 6 -17 40 -1 45 7
3 6 7 -5 11 -14 5 -17 0 -17 -28z"/>
<path d="M1361 2016 c-18 -21 -2 -46 28 -45 l26 1 -25 7 -25 7 24 7 c21 5 22
8 11 21 -15 20 -24 20 -39 2z m29 -6 c0 -5 -5 -10 -11 -10 -5 0 -7 5 -4 10 3
6 8 10 11 10 2 0 4 -4 4 -10z"/>
<path d="M1421 1996 c1 -21 3 -25 6 -11 8 34 23 41 23 12 0 -15 5 -27 10 -27
12 0 13 30 2 46 -4 6 -15 11 -24 11 -14 0 -18 -8 -17 -31z"/>
<path d="M1484 2018 c-4 -6 1 -17 10 -24 16 -12 16 -13 -1 -17 -14 -4 -14 -5
5 -6 13 -1 22 5 22 14 0 8 -4 15 -10 15 -5 0 -10 5 -10 11 0 5 5 7 10 4 6 -3
10 -1 10 4 0 15 -27 14 -36 -1z"/>
<path d="M1564 2016 c-9 -24 3 -46 26 -46 17 0 21 5 18 27 -3 31 -34 44 -44
19z m36 -22 c0 -8 -7 -14 -15 -14 -15 0 -21 21 -9 33 10 9 24 -2 24 -19z"/>
<path d="M1633 2023 c-15 -6 -18 -53 -3 -53 6 0 10 12 10 27 0 29 14 22 23
-12 4 -12 5 -9 4 9 -2 30 -12 38 -34 29z"/>
<path d="M3501 1998 c1 -21 3 -26 6 -13 8 34 23 41 23 12 0 -15 5 -27 10 -27
6 0 10 12 10 27 0 29 14 22 23 -12 3 -12 5 -8 4 10 -2 27 -6 30 -39 33 -37 2
-38 1 -37 -30z"/>
<path d="M3754 2018 c-4 -6 1 -17 10 -24 16 -12 16 -13 -1 -17 -14 -4 -14 -5
5 -6 26 -1 30 24 5 33 -15 6 -15 8 -3 16 9 6 10 10 3 10 -6 0 -15 -5 -19 -12z"/>
<path d="M3971 2016 c-18 -21 -2 -46 28 -45 l26 1 -25 7 -25 7 23 6 c15 4 25
2 29 -8 3 -8 15 -13 27 -13 17 1 18 2 3 6 -20 5 -19 40 1 36 7 -2 12 2 12 7 0
14 -23 13 -38 -2 -9 -9 -15 -9 -24 0 -15 15 -23 15 -37 -2z m29 -6 c0 -5 -5
-10 -11 -10 -5 0 -7 5 -4 10 3 6 8 10 11 10 2 0 4 -4 4 -10z"/>
<path d="M1265 2010 c4 -6 2 -17 -5 -24 -8 -11 -6 -14 13 -12 19 1 24 6 23 23
-1 15 -7 23 -19 23 -10 0 -15 -5 -12 -10z"/>
<path d="M1532 1995 c0 -16 2 -22 5 -12 2 9 2 23 0 30 -3 6 -5 -1 -5 -18z"/>
<path d="M3592 1998 c2 -15 11 -24 26 -26 19 -3 22 1 21 25 -2 23 -2 24 -6 6
-5 -28 -23 -30 -23 -3 0 11 -5 20 -11 20 -6 0 -9 -10 -7 -22z"/>
<path d="M3691 1998 c-1 -24 3 -28 24 -28 20 0 25 5 25 25 0 14 -4 25 -10 25
-5 0 -10 -9 -10 -20 0 -27 -18 -25 -23 3 -4 19 -4 18 -6 -5z"/>
<path d="M6065 2010 c4 -6 2 -17 -5 -24 -8 -11 -6 -14 13 -12 19 1 24 6 23 23
-1 15 -7 23 -19 23 -10 0 -15 -5 -12 -10z"/>
<path d="M6221 1998 c-1 -24 3 -28 24 -28 20 0 25 5 25 25 0 14 -4 25 -10 25
-5 0 -10 -9 -10 -20 0 -27 -18 -25 -23 3 -4 19 -4 18 -6 -5z"/>
<path d="M410 1874 c0 -33 -5 -51 -17 -60 -17 -13 -17 -13 0 -14 16 0 17 -23
17 -334 0 -310 -1 -335 -17 -339 -17 -4 -17 -5 0 -6 16 -1 17 -24 17 -340 0
-315 -1 -340 -17 -344 -17 -4 -17 -5 0 -6 13 -1 17 -10 17 -36 0 -35 0 -35 44
-35 38 0 45 -3 49 -23 l4 -22 2 23 1 22 434 0 c405 0 435 -1 439 -18 4 -16 5
-16 6 1 1 16 29 17 440 17 410 0 440 -1 444 -17 4 -17 5 -17 6 0 1 10 9 17 21
17 20 0 20 7 20 780 l0 780 -955 0 -955 0 0 -46z m1900 -734 l0 -770 -945 0
-945 0 0 770 0 770 945 0 945 0 0 -770z"/>
<path d="M1482 1815 c-7 -14 -12 -27 -12 -28 0 -1 11 -2 25 -2 27 0 27 0 19
33 -8 29 -18 28 -32 -3z"/>
<path d="M1572 1814 c4 -37 39 -48 37 -12 -1 17 -3 18 -6 6 -2 -10 -9 -18 -15
-18 -6 0 -8 9 -5 20 3 11 1 23 -5 26 -6 4 -8 -6 -6 -22z"/>
<path d="M1746 1832 c7 -4 14 -18 17 -32 4 -25 4 -25 6 3 1 28 7 32 29 18 11
-7 11 -9 -2 -14 -23 -9 -20 -27 4 -27 26 0 27 36 1 50 -22 11 -73 14 -55 2z"/>
<path d="M1882 1810 c0 -19 2 -27 5 -17 2 9 2 25 0 35 -3 9 -5 1 -5 -18z"/>
<path d="M2010 1808 c0 -25 3 -29 10 -18 7 10 13 11 18 5 4 -6 19 -12 35 -13
22 -1 27 2 26 21 -1 17 -2 18 -6 5 -2 -10 -9 -18 -14 -18 -5 0 -9 8 -10 18 0
14 -2 14 -9 -3 -8 -18 -9 -17 -9 8 -1 20 -6 27 -21 27 -16 0 -20 -7 -20 -32z
m30 12 c0 -5 -4 -10 -10 -10 -5 0 -10 5 -10 10 0 6 5 10 10 10 6 0 10 -4 10
-10z"/>
<path d="M2112 1810 c0 -19 2 -27 5 -17 2 9 2 25 0 35 -3 9 -5 1 -5 -18z"/>
<path d="M1537 1823 c-14 -14 -7 -43 11 -42 10 0 12 3 5 6 -7 2 -13 11 -13 18
0 7 6 16 13 18 6 3 7 6 1 6 -6 1 -14 -2 -17 -6z"/>
<path d="M1681 1820 c-19 -11 -6 -40 16 -39 16 0 16 1 -2 9 -17 7 -17 9 -2 9
9 1 17 5 17 10 0 15 -15 21 -29 11z"/>
<path d="M1834 1795 c1 -19 4 -35 7 -35 9 0 31 52 24 58 -3 3 -5 -1 -5 -9 -1
-11 -4 -10 -14 3 -11 15 -12 13 -12 -17z"/>
<path d="M1904 1816 c-7 -19 3 -36 22 -36 10 0 14 8 12 22 -4 26 -26 36 -34
14z m22 -23 c-10 -10 -19 5 -10 18 6 11 8 11 12 0 2 -7 1 -15 -2 -18z"/>
<path d="M1951 1801 c0 -16 3 -20 6 -11 3 8 10 20 14 26 5 7 3 11 -6 11 -10 0
-15 -10 -14 -26z"/>
<path d="M2140 1816 c-15 -20 -5 -36 23 -35 21 0 21 1 2 8 -19 8 -19 8 -1 12
17 4 17 6 4 17 -12 10 -18 9 -28 -2z"/>
<path d="M1240 1810 c0 -6 35 -10 85 -10 50 0 85 4 85 10 0 6 -35 10 -85 10
-50 0 -85 -4 -85 -10z"/>
<path d="M1630 1800 c12 -23 30 -18 30 8 0 15 -2 15 -10 2 -6 -10 -10 -11 -10
-2 0 6 -5 12 -10 12 -7 0 -7 -7 0 -20z"/>
<path d="M1481 1688 c0 -18 3 -26 6 -18 3 8 11 18 17 22 7 5 6 8 -4 8 -13 0
-13 1 0 10 13 8 12 10 -2 10 -14 0 -18 -8 -17 -32z"/>
<path d="M1648 1709 c-25 -14 -23 -49 2 -49 16 0 20 7 20 30 0 17 -1 30 -2 30
-2 0 -11 -5 -20 -11z m8 -36 c-10 -10 -19 5 -10 18 6 11 8 11 12 0 2 -7 1 -15
-2 -18z"/>
<path d="M1711 1688 c0 -26 2 -29 8 -14 7 18 8 18 14 3 10 -27 27 -19 27 13 0
30 -14 41 -23 18 -4 -10 -6 -10 -6 0 -2 28 -21 9 -20 -20z"/>
<path d="M2022 1690 c0 -19 2 -27 5 -17 2 9 2 25 0 35 -3 9 -5 1 -5 -18z"/>
<path d="M2071 1688 c0 -18 3 -27 6 -20 4 10 8 10 18 2 11 -9 13 -6 12 17 -2
17 -9 29 -20 31 -13 3 -17 -3 -16 -30z"/>
<path d="M2168 1715 c-7 -7 3 -55 11 -55 8 0 7 47 -1 55 -2 3 -7 3 -10 0z"/>
<path d="M1593 1703 c-7 -3 -13 -11 -13 -19 0 -9 -5 -12 -10 -9 -6 4 -8 10 -6
14 3 4 -1 8 -7 8 -7 0 -14 -8 -14 -16 -1 -13 9 -17 40 -18 31 -1 37 1 22 7
-17 7 -17 9 -2 9 9 1 17 5 17 10 0 13 -12 19 -27 14z"/>
<path d="M1776 1703 c-3 -4 -6 -15 -6 -25 0 -24 33 -21 38 3 3 17 -21 33 -32
22z m24 -24 c0 -5 -4 -9 -10 -9 -5 0 -10 7 -10 16 0 8 5 12 10 9 6 -3 10 -10
10 -16z"/>
<path d="M1826 1703 c-3 -3 -6 -16 -5 -27 1 -18 2 -18 9 4 l8 25 8 -25 8 -25
7 25 c7 24 7 24 8 3 1 -25 21 -32 21 -9 0 23 -48 45 -64 29z"/>
<path d="M1927 1704 c-4 -4 -7 -17 -6 -28 1 -18 2 -18 9 4 l7 25 12 -25 11
-25 -3 24 c-2 25 -18 37 -30 25z"/>
<path d="M1984 1703 c4 -7 2 -13 -3 -13 -6 0 -11 -7 -11 -15 0 -8 9 -15 20
-15 24 0 26 23 3 41 -11 10 -14 10 -9 2z"/>
<path d="M2134 1703 c4 -7 2 -13 -3 -13 -6 0 -11 -7 -11 -15 0 -8 9 -15 20
-15 24 0 26 23 3 41 -11 10 -14 10 -9 2z"/>
<path d="M2207 1704 c-16 -17 -7 -44 16 -43 21 0 21 1 2 9 -18 8 -18 9 -2 9
10 1 17 6 15 13 -5 14 -22 21 -31 12z"/>
<path d="M1522 1680 c0 -14 2 -19 5 -12 2 6 2 18 0 25 -3 6 -5 1 -5 -13z"/>
<path d="M1902 1680 c0 -14 2 -19 5 -12 2 6 2 18 0 25 -3 6 -5 1 -5 -13z"/>
<path d="M1481 1568 c0 -18 3 -26 6 -18 3 8 11 18 17 22 7 5 6 8 -4 8 -13 0
-13 1 0 10 13 8 12 10 -2 10 -14 0 -18 -8 -17 -32z"/>
<path d="M1648 1589 c-25 -14 -23 -49 2 -49 16 0 20 7 20 30 0 17 -1 30 -2 30
-2 0 -11 -5 -20 -11z m8 -36 c-10 -10 -19 5 -10 18 6 11 8 11 12 0 2 -7 1 -15
-2 -18z"/>
<path d="M1710 1568 c0 -26 3 -30 11 -18 8 11 12 12 16 3 2 -7 19 -13 36 -12
27 0 29 2 12 9 -18 8 -18 9 -2 9 10 1 17 6 15 13 -8 22 -28 20 -37 -4 -9 -22
-12 -20 -15 12 0 8 -9 16 -18 18 -14 3 -18 -3 -18 -30z m30 18 c0 -3 -4 -8
-10 -11 -5 -3 -10 -1 -10 4 0 6 5 11 10 11 6 0 10 -2 10 -4z"/>
<path d="M1862 1570 c0 -19 2 -27 5 -17 2 9 2 25 0 35 -3 9 -5 1 -5 -18z"/>
<path d="M500 1558 c0 -21 5 -38 10 -38 13 0 13 40 0 60 -7 11 -10 5 -10 -22z"/>
<path d="M1593 1583 c-7 -3 -13 -11 -13 -19 0 -9 -5 -12 -10 -9 -6 4 -8 10 -6
14 3 4 -1 8 -7 8 -7 0 -14 -8 -14 -16 -1 -13 9 -17 40 -18 31 -1 37 1 22 7
-17 7 -17 9 -2 9 9 1 17 5 17 10 0 13 -12 19 -27 14z"/>
<path d="M1824 1581 c4 -6 2 -11 -3 -11 -6 0 -11 -7 -11 -15 0 -9 9 -15 21
-15 15 0 20 5 17 22 -2 12 -9 23 -17 26 -8 3 -11 0 -7 -7z"/>
<path d="M1268 1573 c12 -2 30 -2 40 0 9 3 -1 5 -23 4 -22 0 -30 -2 -17 -4z"/>
<path d="M1363 1573 c9 -2 23 -2 30 0 6 3 -1 5 -18 5 -16 0 -22 -2 -12 -5z"/>
<path d="M1522 1560 c0 -14 2 -19 5 -12 2 6 2 18 0 25 -3 6 -5 1 -5 -13z"/>
<path d="M510 1458 c0 -13 5 -30 10 -38 7 -11 10 -5 10 23 0 20 -4 37 -10 37
-5 0 -10 -10 -10 -22z"/>
<path d="M501 1373 c-2 -40 41 -307 64 -408 13 -55 43 -182 67 -282 l43 -182
36 -16 c19 -9 89 -22 155 -30 l119 -12 -248 -2 c-163 -1 -246 -4 -242 -11 4
-7 307 -10 877 -10 789 0 870 1 864 16 -3 9 -6 18 -6 20 0 9 -39 4 -45 -6 -4
-7 -12 -7 -25 0 -25 13 -73 13 -87 -1 -8 -8 -13 -8 -17 0 -9 14 -73 14 -81 1
-4 -7 -12 -7 -25 0 -24 13 -73 13 -86 0 -8 -8 -15 -6 -24 5 -17 21 -78 20 -82
-2 -3 -16 -4 -16 -20 0 -19 20 -74 23 -81 5 -3 -10 -9 -10 -26 0 -25 14 -81
16 -81 2 0 -12 -27 -13 -32 -1 -1 5 -18 12 -37 16 -30 6 -33 5 -27 -10 6 -17
-6 -18 -231 -12 -292 8 -456 23 -503 45 -34 17 -35 18 -37 80 -1 49 -5 67 -20
78 -12 9 -14 16 -7 21 6 5 10 22 9 38 -3 44 -4 45 -19 39 -14 -5 -33 42 -21
54 3 3 5 0 5 -6 0 -7 4 -12 8 -12 4 0 6 16 4 35 -5 39 -19 47 -24 13 -3 -23
-62 228 -74 315 -5 34 -3 47 6 47 17 0 6 56 -15 76 -8 9 -15 25 -14 37 0 12 3
16 6 10 10 -26 19 -12 15 22 -4 33 -21 50 -23 23 0 -7 -4 -4 -9 7 -8 19 -9 19
-9 -2z"/>
<path d="M557 1138 c6 -36 10 -44 18 -36 8 8 -6 68 -16 68 -5 0 -6 -15 -2 -32z"/>
<path d="M577 1028 c7 -37 10 -44 19 -35 9 8 -6 67 -17 67 -4 0 -6 -15 -2 -32z"/>
<path d="M599 928 c4 -17 12 -33 18 -35 9 -3 9 4 2 29 -5 18 -9 34 -9 35 0 2
-4 3 -9 3 -5 0 -6 -14 -2 -32z"/>
<path d="M710 559 c0 -9 41 -29 61 -29 19 0 -1 18 -31 28 -19 7 -30 7 -30 1z"/>
<path d="M820 520 c20 -13 63 -13 55 0 -3 6 -21 10 -38 10 -24 0 -28 -3 -17
-10z"/>
<path d="M920 510 c0 -5 6 -10 13 -10 6 0 22 -3 35 -6 16 -5 22 -2 22 10 0 12
-9 16 -35 16 -19 0 -35 -4 -35 -10z"/>
<path d="M1028 504 c-14 -13 3 -24 38 -24 19 0 34 5 34 10 0 6 -6 10 -12 10
-7 0 -22 3 -33 6 -11 3 -24 2 -27 -2z"/>
<path d="M1133 486 c4 -14 67 -21 67 -8 0 6 -16 12 -35 14 -22 2 -34 0 -32 -6z"/>
<path d="M1232 479 c5 -16 78 -25 78 -10 0 6 -8 11 -17 11 -10 0 -29 3 -42 7
-18 4 -23 2 -19 -8z"/>
<path d="M1340 470 c0 -5 16 -10 35 -10 19 0 35 5 35 10 0 6 -16 10 -35 10
-19 0 -35 -4 -35 -10z"/>
<path d="M2790 1830 c0 -79 -2 -90 -17 -90 -17 -1 -17 -1 0 -14 15 -12 17 -35
17 -219 0 -187 -2 -206 -17 -210 -17 -4 -17 -5 0 -6 16 -1 17 -18 17 -210 0
-191 -2 -210 -17 -214 -17 -4 -17 -5 0 -6 16 -1 17 -18 17 -210 0 -191 -2
-210 -17 -214 -17 -4 -17 -5 0 -6 13 -1 17 -10 17 -36 0 -35 0 -35 44 -35 38
0 45 -3 49 -23 l4 -22 2 23 1 22 435 0 c380 0 435 -2 435 -15 0 -8 5 -15 10
-15 6 0 10 7 10 15 0 13 55 15 434 15 l435 0 4 -22 4 -23 2 23 c1 15 7 22 21
22 20 0 20 7 20 780 l0 780 -955 0 -955 0 0 -90z m1900 -690 l0 -770 -940 0
-940 0 0 770 0 770 940 0 940 0 0 -770z"/>
<path d="M2880 1497 c0 -23 4 -36 10 -32 13 8 13 35 0 55 -7 11 -10 5 -10 -23z"/>
<path d="M2890 1396 c0 -20 5 -36 10 -36 6 0 10 13 10 29 0 17 -4 33 -10 36
-6 4 -10 -8 -10 -29z"/>
<path d="M2880 1312 c0 -11 9 -113 20 -228 48 -498 119 -580 545 -628 l120
-14 -342 -1 c-221 -1 -343 -5 -343 -11 0 -7 297 -10 871 -10 790 0 871 1 865
16 -3 9 -6 20 -6 25 0 12 -27 12 -32 0 -1 -5 -14 -11 -28 -14 -14 -2 -19 -2
-12 0 6 3 12 9 12 14 0 15 -54 10 -89 -7 -33 -16 -58 -11 -31 6 11 7 5 10 -22
10 -21 0 -38 -4 -38 -9 0 -13 -52 -21 -70 -10 -12 6 -9 9 10 10 20 1 19 3 -10
9 -39 9 -52 4 -30 -11 19 -13 -675 -4 -815 11 -132 14 -244 36 -299 60 -58 24
-119 80 -151 138 -31 55 -75 219 -74 271 1 20 3 28 6 19 2 -10 9 -18 14 -18
13 0 0 53 -17 66 -16 13 -19 34 -4 34 12 0 5 42 -13 78 -8 17 -8 25 0 30 12 8
5 72 -8 72 -5 0 -9 7 -9 15 0 8 5 15 10 15 14 0 12 54 -2 68 -17 17 -28 15
-28 -6z"/>
<path d="M2957 903 c-7 -13 13 -74 23 -68 5 3 4 19 -2 38 -13 38 -15 41 -21
30z"/>
<path d="M2990 800 c0 -5 5 -21 12 -35 12 -28 34 -35 23 -7 -4 9 -10 25 -12
35 -6 18 -23 24 -23 7z"/>
<path d="M3046 711 c-6 -9 41 -57 48 -50 2 2 -6 16 -19 31 -13 16 -26 24 -29
19z"/>
<path d="M3120 641 c0 -10 39 -41 52 -41 17 0 6 17 -22 33 -16 10 -30 14 -30
8z"/>
<path d="M3216 581 c14 -15 64 -25 64 -13 0 10 -32 22 -59 22 -10 0 -11 -3 -5
-9z"/>
<path d="M3316 551 c14 -13 62 -22 68 -12 6 9 -26 21 -58 21 -12 0 -16 -3 -10
-9z"/>
<path d="M3410 540 c0 -11 7 -14 53 -24 15 -4 27 -2 27 3 0 9 -8 12 -62 27
-10 3 -18 0 -18 -6z"/>
<path d="M3520 510 c0 -5 16 -10 35 -10 19 0 35 5 35 10 0 6 -16 10 -35 10
-19 0 -35 -4 -35 -10z"/>
<path d="M3625 500 c-4 -6 10 -10 34 -10 23 0 41 5 41 10 0 6 -15 10 -34 10
-19 0 -38 -4 -41 -10z"/>
<path d="M3735 490 c-4 -6 8 -10 29 -10 20 0 36 5 36 10 0 6 -13 10 -29 10
-17 0 -33 -4 -36 -10z"/>
<path d="M3840 480 c0 -13 40 -13 60 0 11 7 5 10 -22 10 -21 0 -38 -4 -38 -10z"/>
<path d="M3953 478 c2 -7 7 -12 10 -10 4 1 18 2 32 2 14 0 25 5 25 10 0 6 -16
10 -36 10 -24 0 -34 -4 -31 -12z"/>
<path d="M4064 469 c12 -8 25 -8 40 -1 18 9 16 11 -19 11 -33 0 -37 -1 -21
-10z"/>
<path d="M4160 470 c0 -5 16 -10 35 -10 19 0 35 5 35 10 0 6 -16 10 -35 10
-19 0 -35 -4 -35 -10z"/>
<path d="M5170 1831 c0 -62 -4 -91 -12 -94 -10 -4 -10 -6 0 -6 9 -1 12 -72 12
-320 0 -246 -3 -320 -12 -324 -10 -4 -10 -6 0 -6 9 -1 12 -72 12 -320 0 -246
-3 -320 -12 -324 -10 -4 -10 -6 0 -6 7 -1 12 -15 12 -36 0 -35 0 -35 44 -35
38 0 45 -3 49 -23 l4 -22 2 23 1 22 435 0 c380 0 435 -2 435 -15 0 -8 5 -15
10 -15 6 0 10 7 10 15 0 13 55 15 434 15 l435 0 4 -22 4 -23 2 23 c1 15 7 22
21 22 20 0 20 7 20 780 l0 780 -955 0 -955 0 0 -89z m1900 -691 l0 -770 -940
0 -940 0 0 770 0 770 940 0 940 0 0 -770z"/>
<path d="M5375 1210 c-16 -7 -11 -9 20 -9 29 -1 36 2 25 9 -17 11 -19 11 -45
0z"/>
<path d="M5287 1182 c-15 -10 -24 -21 -21 -25 8 -8 64 23 64 35 0 12 -13 9
-43 -10z"/>
<path d="M5467 1193 c-8 -7 37 -43 53 -43 10 0 9 4 0 16 -17 20 -46 35 -53 27z"/>
<path d="M5540 1120 c0 -15 31 -60 41 -60 11 0 -16 56 -31 65 -5 3 -10 1 -10
-5z"/>
<path d="M5580 1026 c0 -1 5 -17 11 -35 14 -41 30 -40 18 1 -5 18 -9 34 -9 35
0 2 -4 3 -10 3 -5 0 -10 -2 -10 -4z"/>
<path d="M5460 960 c-60 -12 -125 -71 -185 -163 -30 -47 -9 -41 24 6 60 88
134 147 183 147 44 0 84 -43 108 -115 54 -164 153 -241 360 -281 41 -8 85 -17
98 -20 12 -2 22 0 22 6 0 5 -12 10 -26 10 -31 0 -174 35 -228 56 -102 39 -167
110 -210 229 -37 101 -81 139 -146 125z"/>
<path d="M5610 925 c0 -13 38 -64 43 -59 8 9 -21 64 -33 64 -6 0 -10 -2 -10
-5z"/>
<path d="M5667 834 c-8 -9 34 -64 45 -58 4 3 1 18 -7 35 -15 29 -26 35 -38 23z"/>
<path d="M5730 751 c0 -15 51 -51 63 -44 6 4 -2 16 -19 30 -31 24 -44 29 -44
14z"/>
<path d="M5815 690 c-3 -6 2 -13 12 -16 10 -3 28 -10 41 -15 33 -13 27 8 -8
26 -34 18 -37 18 -45 5z"/>
<path d="M5920 649 c0 -9 42 -29 61 -29 22 0 6 18 -26 27 -21 7 -35 7 -35 2z"/>
<path d="M6026 611 c14 -13 64 -23 64 -12 0 9 -33 21 -59 21 -9 0 -11 -3 -5
-9z"/>
<path d="M6120 592 c0 -10 60 -25 68 -17 8 8 0 12 -35 20 -19 4 -33 3 -33 -3z"/>
<path d="M6230 572 c0 -5 16 -12 35 -14 19 -2 35 0 35 4 0 4 -6 8 -12 8 -7 0
-23 3 -35 6 -13 4 -23 2 -23 -4z"/>
<path d="M6345 550 c28 -12 55 -12 55 0 0 6 -17 10 -37 9 -31 0 -34 -2 -18 -9z"/>
<path d="M6445 540 c3 -5 19 -10 36 -10 16 0 29 5 29 10 0 6 -16 10 -36 10
-21 0 -33 -4 -29 -10z"/>
<path d="M6130 531 c37 -23 880 -56 866 -33 -4 7 -19 9 -36 5 -19 -3 -30 -1
-30 6 0 6 -16 11 -35 11 -19 0 -35 -4 -35 -10 0 -5 -7 -10 -15 -10 -8 0 -15 5
-15 11 0 8 -17 10 -55 5 -35 -4 -55 -2 -55 4 0 5 -16 10 -36 10 -21 0 -33 -4
-29 -10 4 -6 -14 -10 -47 -10 -60 1 -329 16 -428 25 -43 4 -60 3 -50 -4z"/>
<path d="M6550 530 c20 -13 60 -13 60 0 0 6 -17 10 -37 10 -28 0 -34 -3 -23
-10z"/>
<path d="M5260 430 c0 -7 297 -10 870 -10 573 0 870 3 870 10 0 7 -297 10
-870 10 -573 0 -870 -3 -870 -10z"/>
<path d="M226 1825 c-7 -20 3 -45 19 -45 19 0 27 17 20 40 -7 24 -30 26 -39 5z
m26 -27 c-9 -9 -12 -7 -12 12 0 19 3 21 12 12 9 -9 9 -15 0 -24z"/>
<path d="M313 1833 c21 -6 21 -12 0 -35 -15 -17 -15 -18 8 -18 17 0 20 3 10 9
-9 6 -10 11 -2 15 20 13 12 36 -11 35 -17 -1 -19 -2 -5 -6z"/>
<path d="M2556 1745 c-7 -20 3 -45 19 -45 19 0 27 17 20 40 -7 24 -30 26 -39
5z m26 -27 c-9 -9 -12 -7 -12 12 0 19 3 21 12 12 9 -9 9 -15 0 -24z"/>
<path d="M2634 1745 c-4 -8 -4 -22 0 -30 6 -18 36 -20 36 -3 0 9 3 9 12 0 18
-18 38 -14 38 8 0 11 -6 20 -12 20 -9 0 -8 4 2 10 13 8 13 10 -2 10 -9 0 -22
-8 -27 -17 -10 -17 -10 -17 -11 0 0 21 -28 23 -36 2z m22 -32 c-11 -11 -19 6
-11 24 8 17 8 17 12 0 3 -10 2 -21 -1 -24z m54 7 c0 -5 -5 -10 -11 -10 -5 0
-7 5 -4 10 3 6 8 10 11 10 2 0 4 -4 4 -10z"/>
<path d="M5085 1738 c4 -16 3 -19 -3 -9 -7 10 -11 10 -17 1 -8 -13 -6 -17 15
-21 17 -4 20 1 20 31 0 11 -5 20 -11 20 -6 0 -8 -9 -4 -22z"/>
<path d="M124 1626 c-8 -21 -1 -69 11 -73 6 -1 16 1 24 6 17 11 6 48 -17 54
-16 4 -16 5 1 6 9 0 17 6 17 11 0 15 -30 12 -36 -4z m36 -50 c0 -11 -19 -15
-25 -6 -3 5 1 10 9 10 9 0 16 -2 16 -4z"/>
<path d="M2454 1626 c-8 -21 -1 -69 11 -73 6 -1 16 1 24 6 17 11 6 48 -17 54
-16 4 -16 5 1 6 9 0 17 6 17 11 0 15 -30 12 -36 -4z m36 -50 c0 -11 -19 -15
-25 -6 -3 5 1 10 9 10 9 0 16 -2 16 -4z"/>
<path d="M4967 1633 c-11 -10 -8 -71 3 -78 17 -10 39 13 33 35 -3 10 -12 21
-22 23 -14 4 -14 5 2 6 9 0 17 6 17 11 0 11 -23 14 -33 3z m23 -63 c0 -5 -4
-10 -10 -10 -5 0 -10 5 -10 10 0 6 5 10 10 10 6 0 10 -4 10 -10z"/>
<path d="M128 1533 c6 -2 18 -2 25 0 6 3 1 5 -13 5 -14 0 -19 -2 -12 -5z"/>
<path d="M2458 1533 c6 -2 18 -2 25 0 6 3 1 5 -13 5 -14 0 -19 -2 -12 -5z"/>
<path d="M4968 1533 c6 -2 18 -2 25 0 6 3 1 5 -13 5 -14 0 -19 -2 -12 -5z"/>
<path d="M113 1507 c-3 -5 -3 -11 1 -14 7 -7 56 5 56 15 0 10 -51 9 -57 -1z"/>
<path d="M2443 1507 c-3 -5 -3 -11 1 -14 7 -7 56 5 56 15 0 10 -51 9 -57 -1z"/>
<path d="M4955 1511 c-12 -12 -3 -22 17 -19 28 4 34 24 8 24 -12 0 -23 -2 -25
-5z"/>
<path d="M120 1464 c0 -8 5 -12 10 -9 6 3 10 2 10 -4 0 -5 -6 -12 -12 -14 -7
-3 -3 -6 8 -6 20 -1 34 16 34 40 0 5 -11 9 -25 9 -16 0 -25 -6 -25 -16z"/>
<path d="M2450 1464 c0 -8 5 -12 10 -9 6 3 10 2 10 -4 0 -5 -6 -12 -12 -14 -7
-3 -3 -6 8 -6 20 -1 34 16 34 40 0 5 -11 9 -25 9 -16 0 -25 -6 -25 -16z"/>
<path d="M4960 1465 c0 -8 6 -15 13 -15 8 0 7 -4 -3 -10 -12 -8 -11 -10 8 -10
17 0 22 6 22 25 0 18 -5 25 -20 25 -11 0 -20 -7 -20 -15z"/>
<path d="M120 1410 c0 -6 8 -10 18 -10 15 -1 16 -1 0 -10 -10 -6 -15 -21 -14
-40 1 -16 -2 -31 -7 -33 -11 -3 9 -47 21 -47 4 0 14 5 22 10 12 8 13 13 2 30
-7 12 -8 20 -2 20 5 0 10 8 10 18 0 12 -3 13 -8 5 -6 -9 -11 -7 -20 7 -10 16
-10 20 2 20 26 0 26 17 1 28 -15 7 -25 8 -25 2z m40 -114 c0 -11 -19 -15 -25
-6 -3 5 1 10 9 10 9 0 16 -2 16 -4z"/>
<path d="M2450 1410 c0 -6 8 -10 18 -10 15 -1 16 -1 0 -10 -10 -6 -15 -21 -14
-40 1 -16 -2 -31 -7 -33 -11 -3 9 -47 21 -47 4 0 14 5 22 10 12 8 13 13 2 30
-7 12 -8 20 -2 20 5 0 10 8 10 18 0 12 -3 13 -8 5 -6 -9 -11 -7 -20 7 -10 16
-10 20 2 20 26 0 26 17 1 28 -15 7 -25 8 -25 2z m40 -114 c0 -11 -19 -15 -25
-6 -3 5 1 10 9 10 9 0 16 -2 16 -4z"/>
<path d="M4969 1402 c8 -6 9 -12 3 -16 -5 -3 -9 -19 -8 -36 1 -19 -3 -30 -11
-30 -18 0 -16 -7 7 -32 16 -17 22 -19 34 -8 12 9 13 17 6 30 -7 13 -7 21 0 25
6 4 7 11 4 17 -4 7 -9 6 -14 -2 -5 -8 -9 -5 -13 9 -3 14 0 21 10 21 21 0 10
24 -13 28 -14 2 -16 1 -5 -6z m26 -112 c-3 -5 -10 -10 -16 -10 -5 0 -9 5 -9
10 0 6 7 10 16 10 8 0 12 -4 9 -10z"/>
<path d="M2556 1315 c-7 -20 3 -45 19 -45 19 0 27 17 20 40 -7 24 -30 26 -39
5z m26 -27 c-9 -9 -12 -7 -12 12 0 19 3 21 12 12 9 -9 9 -15 0 -24z"/>
<path d="M2634 1315 c-4 -8 -4 -22 0 -30 6 -17 36 -21 36 -5 0 6 9 6 25 0 23
-9 25 -7 25 20 0 31 -17 41 -26 15 -4 -8 -10 -15 -15 -15 -5 0 -9 7 -9 15 0 8
-7 15 -15 15 -9 0 -18 -7 -21 -15z m22 -32 c-11 -11 -19 6 -11 24 8 17 8 17
12 0 3 -10 2 -21 -1 -24z"/>
<path d="M126 1242 c-2 -4 -4 -29 -3 -55 1 -39 4 -47 21 -47 18 0 19 1 1 20
-17 19 -17 20 -1 20 9 0 14 -4 11 -10 -3 -5 -1 -10 4 -10 6 0 11 7 11 15 0 8
-4 15 -10 15 -5 0 -7 6 -4 14 3 8 -2 16 -13 19 -16 4 -16 5 0 6 9 0 17 6 17
11 0 12 -27 13 -34 2z"/>
<path d="M2456 1242 c-2 -4 -4 -29 -3 -55 1 -39 4 -47 21 -47 18 0 19 1 1 20
-17 19 -17 20 -1 20 9 0 14 -4 11 -10 -3 -5 -1 -10 4 -10 6 0 11 7 11 15 0 8
-4 15 -10 15 -5 0 -7 6 -4 14 3 8 -2 16 -13 19 -16 4 -16 5 0 6 9 0 17 6 17
11 0 12 -27 13 -34 2z"/>
<path d="M4966 1242 c-2 -4 -4 -29 -3 -55 1 -40 4 -47 21 -47 10 0 16 3 13 7
-4 3 -2 12 4 19 6 8 7 14 0 18 -6 4 -8 13 -5 20 3 8 -2 16 -13 19 -16 4 -16 5
0 6 9 0 17 6 17 11 0 12 -27 13 -34 2z m24 -72 c0 -5 -4 -10 -10 -10 -5 0 -10
5 -10 10 0 6 5 10 10 10 6 0 10 -4 10 -10z"/>
<path d="M226 1135 c-7 -20 3 -45 19 -45 19 0 27 17 20 40 -7 24 -30 26 -39 5z
m26 -27 c-9 -9 -12 -7 -12 12 0 19 3 21 12 12 9 -9 9 -15 0 -24z"/>
<path d="M315 1120 c0 -16 5 -30 11 -30 6 0 9 13 6 30 -2 17 -7 30 -11 30 -3
0 -6 -13 -6 -30z"/>
<path d="M112 1106 c-3 -6 -1 -11 5 -13 6 -2 19 -10 29 -18 17 -13 17 -14 2
-15 -9 0 -19 6 -21 13 -3 6 -6 -18 -6 -55 -1 -61 1 -67 22 -71 l22 -4 -22 -2
c-13 0 -23 -5 -23 -11 0 -12 20 -13 37 -2 16 10 4 60 -16 65 -14 4 -14 5 2 6
9 0 17 6 17 11 0 6 -8 10 -17 11 -12 0 -8 4 10 11 31 11 33 16 11 46 -8 12
-10 22 -5 22 6 0 11 3 11 8 0 10 -51 9 -58 -2z"/>
<path d="M2442 1106 c-3 -6 -1 -11 5 -13 6 -2 19 -10 29 -18 17 -13 17 -14 2
-15 -9 0 -19 6 -21 13 -3 6 -6 -18 -6 -55 -1 -61 1 -67 22 -71 l22 -4 -22 -2
c-13 0 -23 -5 -23 -11 0 -12 20 -13 37 -2 16 10 4 60 -16 65 -14 4 -14 5 2 6
9 0 17 6 17 11 0 6 -8 10 -17 11 -12 0 -8 4 10 11 31 11 33 16 11 46 -8 12
-10 22 -5 22 6 0 11 3 11 8 0 10 -51 9 -58 -2z"/>
<path d="M4952 1106 c-3 -5 -1 -11 4 -13 23 -8 38 -23 31 -30 -5 -4 -12 -1
-17 7 -7 10 -10 -7 -10 -52 0 -55 3 -67 18 -71 16 -4 16 -5 0 -6 -21 -1 -25
-21 -5 -21 35 0 42 64 8 73 -14 4 -14 5 2 6 9 0 17 6 17 11 0 6 -8 10 -17 11
-12 0 -8 4 10 11 28 10 35 24 16 30 -6 2 -11 15 -11 29 0 18 -6 25 -20 25 -11
0 -22 -5 -26 -10z"/>
<path d="M5080 1100 c12 -7 12 -12 -4 -29 -19 -21 -19 -21 0 -21 15 0 20 8 22
30 2 23 -2 30 -15 30 -15 0 -16 -2 -3 -10z"/>
<path d="M123 825 c0 -47 3 -88 7 -90 14 -9 40 7 40 24 -1 14 -2 14 -11 -2 -6
-9 -14 -15 -20 -12 -15 10 -10 23 11 30 20 6 28 35 10 35 -5 0 -7 6 -4 14 3 8
-2 16 -13 19 -16 4 -16 5 0 6 17 1 25 21 7 21 -5 0 -7 7 -3 16 5 13 7 13 14 2
6 -9 9 -9 9 -1 0 17 -23 29 -28 14 -3 -10 -6 -10 -12 -2 -4 7 -7 -27 -7 -74z
m37 -29 c0 -11 -19 -15 -25 -6 -3 5 1 10 9 10 9 0 16 -2 16 -4z"/>
<path d="M2453 825 c0 -47 3 -88 7 -90 14 -9 40 7 40 24 -1 14 -2 14 -11 -2
-6 -9 -14 -15 -20 -12 -15 10 -10 23 11 30 20 6 28 35 10 35 -5 0 -7 6 -4 14
3 8 -2 16 -13 19 -16 4 -16 5 0 6 17 1 25 21 7 21 -5 0 -7 7 -3 16 5 13 7 13
14 2 6 -9 9 -9 9 -1 0 17 -23 29 -28 14 -3 -10 -6 -10 -12 -2 -4 7 -7 -27 -7
-74z m37 -29 c0 -11 -19 -15 -25 -6 -3 5 1 10 9 10 9 0 16 -2 16 -4z"/>
<path d="M4962 827 c1 -48 5 -90 10 -93 15 -10 40 17 28 31 -6 7 -6 15 1 22 7
7 8 13 0 17 -5 4 -8 13 -5 20 3 8 -2 16 -13 19 -14 4 -15 5 -2 6 9 0 19 11 23
23 6 24 -9 47 -21 33 -5 -4 -2 -10 5 -12 6 -3 9 -9 6 -15 -4 -6 -12 -1 -19 13
-11 20 -13 12 -13 -64z m28 -37 c0 -5 -4 -10 -10 -10 -5 0 -10 5 -10 10 0 6 5
10 10 10 6 0 10 -4 10 -10z m-1 -37 c0 -5 -3 -9 -9 -11 -5 -2 -10 4 -10 13 0
16 16 14 19 -2z"/>
<path d="M2556 885 c-7 -20 3 -45 19 -45 19 0 27 17 20 40 -7 24 -30 26 -39 5z
m26 -27 c-9 -9 -12 -7 -12 12 0 19 3 21 12 12 9 -9 9 -15 0 -24z"/>
<path d="M2637 893 c-13 -12 -7 -44 9 -50 20 -7 33 12 27 38 -5 19 -24 25 -36
12z m19 -40 c-11 -11 -19 6 -11 24 8 17 8 17 12 0 3 -10 2 -21 -1 -24z"/>
<path d="M2693 893 c21 -6 21 -12 0 -35 -15 -17 -15 -18 8 -18 17 0 20 3 10 9
-9 6 -10 11 -2 15 20 13 12 36 -11 35 -17 -1 -19 -2 -5 -6z"/>
<path d="M130 690 c0 -5 -8 -7 -17 -4 -17 5 -17 5 0 -9 16 -14 16 -15 1 -21
-14 -5 -15 -9 -5 -19 9 -9 17 -5 36 18 30 37 31 45 5 45 -11 0 -20 -4 -20 -10z"/>
<path d="M2460 690 c0 -5 -8 -7 -17 -4 -17 5 -17 5 0 -9 16 -14 16 -15 1 -21
-14 -5 -15 -9 -5 -19 9 -9 17 -5 36 18 30 37 31 45 5 45 -11 0 -20 -4 -20 -10z"/>
<path d="M4970 689 c0 -6 -7 -9 -15 -5 -25 9 -17 -3 13 -18 27 -14 28 -13 30
10 1 15 -3 24 -13 24 -8 0 -15 -5 -15 -11z"/>
<path d="M4942 648 c5 -15 27 -18 31 -3 1 5 -6 11 -17 13 -12 3 -17 -1 -14
-10z"/>
<path d="M226 445 c-7 -20 3 -45 19 -45 19 0 27 17 20 40 -7 24 -30 26 -39 5z
m26 -27 c-9 -9 -12 -7 -12 12 0 19 3 21 12 12 9 -9 9 -15 0 -24z"/>
<path d="M307 453 c-13 -12 -7 -44 9 -50 20 -7 33 12 27 38 -5 19 -24 25 -36
12z m19 -40 c-11 -11 -19 6 -11 24 8 17 8 17 12 0 3 -10 2 -21 -1 -24z"/>
<path d="M2556 445 c-7 -20 3 -45 19 -45 19 0 27 17 20 40 -7 24 -30 26 -39 5z
m26 -27 c-9 -9 -12 -7 -12 12 0 19 3 21 12 12 9 -9 9 -15 0 -24z"/>
<path d="M2634 445 c-4 -8 -4 -22 0 -30 6 -17 36 -21 36 -5 0 6 8 5 20 -2 17
-11 22 -10 29 1 11 18 2 51 -15 51 -7 0 -18 -8 -23 -17 -10 -17 -10 -17 -11 0
0 21 -28 23 -36 2z m22 -32 c-11 -11 -19 6 -11 24 8 17 8 17 12 0 3 -10 2 -21
-1 -24z m50 0 c-11 -11 -19 6 -11 24 8 17 8 17 12 0 3 -10 2 -21 -1 -24z"/>
<path d="M5066 445 c-7 -20 3 -45 19 -45 19 0 27 17 20 40 -7 24 -30 26 -39 5z
m26 -27 c-9 -9 -12 -7 -12 12 0 19 3 21 12 12 9 -9 9 -15 0 -24z"/>
<path d="M487 283 c-13 -12 -7 -44 9 -50 20 -7 33 12 27 38 -5 19 -24 25 -36
12z m19 -40 c-11 -11 -19 6 -11 24 8 17 8 17 12 0 3 -10 2 -21 -1 -24z"/>
<path d="M1353 283 c21 -6 21 -12 0 -35 -15 -17 -15 -18 8 -18 17 0 20 3 10 9
-9 6 -10 11 -2 15 20 13 12 36 -11 35 -17 -1 -19 -2 -5 -6z"/>
<path d="M1397 283 c-13 -12 -7 -44 9 -50 20 -7 33 12 27 38 -5 19 -24 25 -36
12z m19 -40 c-11 -11 -19 6 -11 24 8 17 8 17 12 0 3 -10 2 -21 -1 -24z"/>
<path d="M2243 279 c-17 -17 -16 -36 2 -42 18 -8 23 2 16 31 -5 18 -8 21 -18
11z"/>
<path d="M2280 260 c0 -25 4 -31 18 -28 11 2 17 12 17 28 0 16 -6 26 -17 28
-14 3 -18 -3 -18 -28z m30 0 c0 -11 -4 -20 -10 -20 -5 0 -10 9 -10 20 0 11 5
20 10 20 6 0 10 -9 10 -20z"/>
<path d="M2866 275 c-7 -20 3 -45 19 -45 19 0 27 17 20 40 -7 24 -30 26 -39 5z
m26 -27 c-9 -9 -12 -7 -12 12 0 19 3 21 12 12 9 -9 9 -15 0 -24z"/>
<path d="M3733 283 c21 -6 21 -12 0 -35 -15 -17 -15 -18 8 -18 17 0 20 3 10 9
-9 6 -10 11 -2 15 20 13 12 36 -11 35 -17 -1 -19 -2 -5 -6z"/>
<path d="M3776 275 c-7 -20 3 -45 19 -45 19 0 27 17 20 40 -7 24 -30 26 -39 5z
m26 -27 c-9 -9 -12 -7 -12 12 0 19 3 21 12 12 9 -9 9 -15 0 -24z"/>
<path d="M4623 279 c-17 -17 -16 -36 2 -42 18 -8 23 2 16 31 -5 18 -8 21 -18
11z"/>
<path d="M4667 284 c-4 -4 -7 -18 -7 -31 0 -17 6 -23 21 -23 16 0 20 5 17 27
-3 26 -18 39 -31 27z m23 -24 c0 -11 -4 -20 -10 -20 -5 0 -10 9 -10 20 0 11 5
20 10 20 6 0 10 -9 10 -20z"/>
<path d="M5246 275 c-7 -20 3 -45 19 -45 19 0 27 17 20 40 -7 24 -30 26 -39 5z
m26 -27 c-9 -9 -12 -7 -12 12 0 19 3 21 12 12 9 -9 9 -15 0 -24z"/>
<path d="M6120 280 c12 -7 12 -12 -4 -29 -19 -21 -19 -21 0 -21 15 0 20 8 22
30 2 23 -2 30 -15 30 -15 0 -16 -2 -3 -10z"/>
<path d="M6156 275 c-7 -20 3 -45 19 -45 19 0 27 17 20 40 -7 24 -30 26 -39 5z
m26 -27 c-9 -9 -12 -7 -12 12 0 19 3 21 12 12 9 -9 9 -15 0 -24z"/>
<path d="M7005 280 c-3 -5 -3 -15 1 -22 4 -7 3 -8 -4 -4 -7 4 -12 3 -12 -2 0
-8 22 -22 36 -22 2 0 4 14 4 30 0 29 -13 40 -25 20z"/>
<path d="M7047 284 c-4 -4 -7 -18 -7 -31 0 -17 6 -23 21 -23 16 0 20 5 17 27
-3 26 -18 39 -31 27z m23 -24 c0 -11 -4 -20 -10 -20 -5 0 -10 9 -10 20 0 11 5
20 10 20 6 0 10 -9 10 -20z"/>
<path d="M1196 155 c-8 -22 2 -42 25 -48 14 -4 21 1 25 18 3 13 3 29 -1 34 -9
16 -42 13 -49 -4z m39 -15 c0 -7 -6 -15 -12 -17 -8 -3 -13 4 -13 17 0 13 5 20
13 18 6 -3 12 -11 12 -18z"/>
<path d="M1392 144 c3 -25 8 -29 38 -31 27 -1 31 0 15 7 -17 7 -17 9 -2 9 17
1 22 12 11 24 -10 9 -34 -4 -34 -19 0 -8 -5 -14 -11 -14 -6 0 -9 9 -6 20 3 11
1 23 -5 26 -6 4 -8 -5 -6 -22z"/>
<path d="M3587 163 c-15 -14 -6 -51 13 -56 15 -4 22 1 26 18 9 36 -17 61 -39
38z m33 -23 c0 -11 -7 -20 -15 -20 -8 0 -15 9 -15 20 0 11 7 20 15 20 8 0 15
-9 15 -20z"/>
<path d="M3767 163 c-3 -5 -1 -17 3 -29 6 -15 17 -21 42 -21 26 -1 29 1 13 7
-17 7 -17 9 -2 9 17 1 22 12 11 24 -10 9 -34 -4 -34 -19 0 -8 -5 -14 -11 -14
-6 0 -9 9 -6 20 5 20 -7 37 -16 23z"/>
<path d="M5967 163 c-15 -14 -6 -51 13 -56 15 -4 22 1 26 18 9 36 -17 61 -39
38z m33 -23 c0 -11 -7 -20 -15 -20 -8 0 -15 9 -15 20 0 11 7 20 15 20 8 0 15
-9 15 -20z"/>
<path d="M6147 163 c-3 -5 -1 -17 3 -29 7 -16 18 -21 54 -22 40 -2 46 0 46 18
0 18 2 19 20 8 18 -12 19 -13 2 -20 -14 -5 -13 -7 6 -7 23 -1 30 13 11 25 -8
4 -7 9 2 15 9 5 1 7 -20 4 -18 -2 -36 -6 -39 -9 -3 -3 -11 -1 -18 5 -10 8 -16
5 -26 -10 -16 -27 -32 -27 -25 -1 5 20 -7 37 -16 23z m80 -39 c-3 -3 -12 -4
-19 -1 -8 3 -5 6 6 6 11 1 17 -2 13 -5z"/>
<path d="M1324 151 c4 -6 2 -11 -3 -11 -6 0 -11 -7 -11 -15 0 -9 9 -15 21 -15
15 0 20 5 17 22 -2 12 -9 23 -17 26 -8 3 -11 0 -7 -7z"/>
<path d="M1364 145 c-3 -8 -4 -20 -2 -27 3 -7 7 -1 10 15 6 29 1 36 -8 12z"/>
<path d="M1481 152 c-6 -2 -11 -13 -10 -25 0 -21 1 -20 11 3 6 15 12 20 15 13
3 -7 12 -13 21 -14 14 0 13 -2 -3 -9 -19 -8 -19 -9 3 -9 23 -1 30 13 12 24 -6
4 -8 10 -5 15 5 9 -21 10 -44 2z"/>
<path d="M3641 138 c-1 -22 4 -28 19 -28 15 0 20 6 19 28 -2 23 -2 24 -6 5 -2
-13 -8 -23 -13 -23 -5 0 -11 10 -13 23 -4 19 -4 18 -6 -5z"/>
<path d="M3704 151 c4 -6 2 -11 -3 -11 -6 0 -11 -7 -11 -15 0 -9 9 -15 21 -15
15 0 20 5 17 22 -2 12 -9 23 -17 26 -8 3 -11 0 -7 -7z"/>
<path d="M3740 136 c0 -31 6 -34 13 -6 3 11 1 23 -4 26 -5 3 -9 -6 -9 -20z"/>
<path d="M3861 152 c-6 -2 -11 -13 -10 -25 0 -21 1 -20 11 3 6 15 12 20 15 13
3 -7 12 -13 21 -14 14 0 13 -2 -3 -9 -19 -8 -19 -9 3 -9 23 -1 30 13 12 24 -6
4 -8 10 -5 15 5 9 -21 10 -44 2z"/>
<path d="M6021 138 c-1 -22 4 -28 19 -28 15 0 20 6 19 28 -2 23 -2 24 -6 5 -2
-13 -8 -23 -13 -23 -5 0 -11 10 -13 23 -4 19 -4 18 -6 -5z"/>
<path d="M6088 152 c11 -7 11 -10 -2 -15 -23 -9 -20 -27 5 -27 15 0 20 5 17
22 -2 12 -10 23 -18 25 -12 4 -12 3 -2 -5z"/>
<path d="M6120 136 c0 -31 6 -34 13 -6 3 11 1 23 -4 26 -5 3 -9 -6 -9 -20z"/>
<path d="M1261 133 c-1 -17 5 -23 19 -23 14 0 20 6 19 23 -1 16 -2 18 -6 5 -2
-10 -8 -18 -13 -18 -5 0 -11 8 -13 18 -4 13 -5 11 -6 -5z"/>
</g>
</svg>
