<?xml version="1.0" standalone="no"?>
<!DOCTYPE svg PUBLIC "-//W3C//DTD SVG 20010904//EN"
 "http://www.w3.org/TR/2001/REC-SVG-20010904/DTD/svg10.dtd">
<svg version="1.0" xmlns="http://www.w3.org/2000/svg"
 width="461.000000pt" height="346.000000pt" viewBox="0 0 461.000000 346.000000"
 preserveAspectRatio="xMidYMid meet">
<metadata>
Created by potrace 1.16, written by Peter Selinger 2001-2019
</metadata>
<g transform="translate(0.000000,346.000000) scale(0.100000,-0.100000)"
fill="#000000" stroke="none">
<path d="M1201 3176 c-7 -8 -11 -27 -9 -43 2 -23 8 -29 36 -31 17 -2 32 1 32
6 0 6 -8 8 -18 5 -10 -2 -24 2 -31 11 -18 22 3 59 30 51 11 -4 19 -2 19 4 0
16 -46 13 -59 -3z"/>
<path d="M2027 3183 c-11 -10 -8 -83 3 -83 6 0 10 12 10 28 l1 27 13 -24 c13
-23 14 -23 24 -5 11 18 11 18 12 -3 0 -13 5 -23 10 -23 6 0 10 20 10 45 0 51
-15 59 -32 18 l-11 -28 -10 28 c-11 27 -18 32 -30 20z"/>
<path d="M2200 3145 c0 -25 5 -45 10 -45 6 0 10 20 10 45 0 25 -4 45 -10 45
-5 0 -10 -20 -10 -45z"/>
<path d="M2237 3177 c-9 -25 5 -77 22 -76 10 0 11 2 4 6 -17 6 -17 40 -1 45 9
3 8 9 -4 21 -12 12 -17 13 -21 4z"/>
<path d="M2390 3145 c0 -25 5 -45 10 -45 6 0 10 20 10 45 0 25 -4 45 -10 45
-5 0 -10 -20 -10 -45z"/>
<path d="M3112 3145 c0 -39 2 -44 7 -20 8 38 25 39 29 3 4 -34 22 -37 22 -4 0
26 -23 51 -39 42 -5 -4 -12 2 -14 11 -3 10 -5 -4 -5 -32z"/>
<path d="M1752 3143 c2 -29 8 -38 23 -40 11 -2 14 0 8 3 -7 3 -13 14 -13 24 0
10 6 21 13 23 9 4 8 8 -3 16 -25 18 -31 12 -28 -26z"/>
<path d="M1282 3161 c-8 -4 -12 -19 -10 -32 2 -18 9 -24 28 -24 21 0 25 5 25
30 0 31 -19 42 -43 26z m35 -35 c-4 -9 -11 -16 -17 -16 -11 0 -14 33 -3 44 11
10 26 -11 20 -28z"/>
<path d="M1351 3131 c1 -36 1 -36 8 -6 8 38 25 39 29 3 4 -34 22 -37 22 -4 0
27 -17 43 -42 43 -14 0 -18 -8 -17 -36z"/>
<path d="M1424 3159 c-4 -7 3 -20 17 -29 l23 -18 -25 -5 c-23 -4 -23 -4 4 -6
30 -1 39 25 12 35 -8 4 -15 11 -15 16 0 6 7 8 15 4 8 -3 15 -1 15 4 0 14 -37
12 -46 -1z"/>
<path d="M1492 3138 c-2 -36 0 -38 28 -38 27 0 30 3 30 29 0 38 -18 50 -22 14
-5 -39 -26 -40 -31 -1 l-4 33 -1 -37z"/>
<path d="M1560 3133 c0 -18 5 -33 10 -33 6 0 10 11 10 24 0 14 5 28 10 31 6 4
10 -7 10 -24 0 -38 18 -41 22 -3 4 36 21 35 30 -3 6 -29 6 -29 5 5 -2 35 -2
35 -49 36 -48 1 -48 1 -48 -33z"/>
<path d="M1681 3116 c1 -28 3 -43 6 -34 2 9 14 18 26 20 17 2 22 10 22 33 0
26 -4 30 -27 31 -27 1 -28 -1 -27 -50z m45 23 c10 -17 -13 -36 -27 -22 -12 12
-4 33 11 33 5 0 12 -5 16 -11z"/>
<path d="M1800 3136 c0 -20 5 -36 10 -36 6 0 10 13 10 29 0 17 -4 33 -10 36
-6 4 -10 -8 -10 -29z"/>
<path d="M1840 3155 c-18 -21 -3 -55 25 -55 27 0 39 24 25 51 -13 23 -33 25
-50 4z m40 -26 c0 -10 -7 -19 -15 -19 -15 0 -21 31 -9 43 11 10 24 -3 24 -24z"/>
<path d="M1911 3130 c1 -30 2 -32 8 -11 9 34 31 39 31 7 0 -14 5 -26 10 -26
12 0 13 40 2 57 -4 7 -18 11 -30 10 -18 -1 -22 -7 -21 -37z"/>
<path d="M2132 3138 c-2 -36 0 -38 28 -38 27 0 30 3 30 29 0 38 -18 50 -22 14
-5 -39 -26 -40 -31 -1 l-4 33 -1 -37z"/>
<path d="M2287 3163 c-11 -10 -8 -63 3 -63 6 0 10 16 10 35 0 36 -2 40 -13 28z"/>
<path d="M2321 3116 c1 -28 3 -43 6 -33 2 9 13 17 24 17 43 0 33 64 -10 66
-19 1 -21 -4 -20 -50z m39 13 c0 -20 -15 -26 -25 -9 -9 15 3 43 15 35 5 -3 10
-15 10 -26z"/>
<path d="M2433 3135 c0 -22 2 -30 4 -17 2 12 2 30 0 40 -3 9 -5 -1 -4 -23z"/>
<path d="M2461 3152 c-14 -26 5 -52 37 -51 21 1 22 2 7 6 -34 8 -41 23 -12 23
29 0 34 9 15 28 -17 17 -36 15 -47 -6z m34 -2 c3 -5 -1 -10 -10 -10 -9 0 -13
5 -10 10 3 6 8 10 10 10 2 0 7 -4 10 -10z"/>
<path d="M2537 3163 c-11 -10 -8 -63 3 -63 6 0 10 10 10 23 0 13 5 28 12 35 9
9 9 12 -3 12 -9 0 -19 -3 -22 -7z"/>
<path d="M2587 3163 c-14 -13 -6 -31 16 -38 l22 -7 -25 -8 -25 -8 28 -1 c30
-1 39 25 12 35 -8 4 -15 11 -15 16 0 6 7 7 16 4 8 -3 12 -2 9 4 -7 11 -28 13
-38 3z"/>
<path d="M2690 3161 c0 -6 7 -8 15 -5 8 4 15 2 15 -4 0 -5 -9 -12 -21 -15 -29
-8 -19 -31 15 -35 26 -3 27 -1 24 30 -2 25 -8 34 -25 36 -13 2 -23 -1 -23 -7z
m30 -41 c0 -5 -4 -10 -10 -10 -5 0 -10 5 -10 10 0 6 5 10 10 10 6 0 10 -4 10
-10z"/>
<path d="M2760 3155 c-19 -23 -3 -55 28 -54 25 2 25 2 4 6 -17 3 -22 10 -20
26 2 14 10 21 20 21 10 -1 15 2 12 7 -8 14 -30 11 -44 -6z"/>
<path d="M2820 3133 c0 -18 5 -33 10 -33 6 0 10 10 10 23 0 13 5 28 11 34 9 9
7 12 -10 10 -17 -1 -21 -8 -21 -34z"/>
<path d="M2872 3154 c-15 -27 -3 -54 24 -54 28 0 42 25 27 49 -14 23 -40 25
-51 5z m38 -25 c0 -20 -15 -26 -25 -9 -9 15 3 43 15 35 5 -3 10 -15 10 -26z"/>
<path d="M2944 3159 c-4 -7 3 -20 17 -29 l23 -18 -25 -5 c-23 -4 -23 -4 4 -6
30 -1 39 25 12 35 -8 4 -15 11 -15 16 0 6 7 8 15 4 8 -3 15 -1 15 4 0 14 -37
12 -46 -1z"/>
<path d="M3004 3159 c-4 -7 4 -20 17 -30 l24 -19 -25 -1 c-18 -1 -20 -3 -7 -6
10 -3 25 -2 32 1 18 6 8 36 -11 36 -8 0 -14 5 -14 11 0 6 7 9 15 5 8 -3 15 -1
15 4 0 14 -37 12 -46 -1z"/>
<path d="M3184 3156 c-11 -29 0 -51 26 -51 21 0 25 5 25 30 0 24 -5 31 -23 33
-13 2 -24 -3 -28 -12z m38 -38 c-16 -16 -37 4 -28 28 6 16 8 16 23 1 13 -13
15 -19 5 -29z"/>
<path d="M3261 3131 c1 -35 2 -35 8 -7 9 41 31 46 31 7 0 -17 5 -31 10 -31 6
0 10 15 10 33 0 30 -3 33 -30 33 -28 0 -30 -2 -29 -35z"/>
<path d="M3340 3160 c0 -5 5 -10 11 -10 7 0 5 -10 -5 -25 -16 -25 -16 -25 16
-24 18 1 25 3 16 6 -22 6 -23 17 -3 33 22 18 18 30 -10 30 -14 0 -25 -4 -25
-10z"/>
<path d="M3404 3156 c-11 -29 0 -51 26 -51 21 0 25 5 25 30 0 24 -5 31 -23 33
-13 2 -24 -3 -28 -12z m38 -38 c-16 -16 -37 4 -28 28 6 16 8 16 23 1 13 -13
15 -19 5 -29z"/>
<path d="M3477 3164 c-10 -11 -9 -64 2 -64 5 0 11 12 13 28 4 36 21 35 30 -3
6 -29 6 -29 5 5 -2 27 -7 36 -22 38 -12 2 -24 0 -28 -4z"/>
<path d="M455 3050 c-3 -5 1 -10 9 -10 20 0 20 -14 1 -30 -23 -19 -18 -30 13
-29 18 1 21 3 9 6 -18 5 -18 6 -1 24 14 15 14 21 4 34 -14 17 -26 19 -35 5z"/>
<path d="M365 3015 c0 -25 4 -35 15 -35 12 0 15 8 12 35 -2 19 -9 35 -16 35
-6 0 -11 -15 -11 -35z"/>
<path d="M570 3036 c0 -8 -8 -17 -17 -19 -17 -4 -17 -5 0 -6 16 -1 17 -19 17
-230 0 -210 -1 -230 -17 -234 -17 -4 -17 -5 0 -6 16 -1 17 -19 17 -230 0 -210
-1 -230 -17 -234 -17 -4 -17 -5 0 -6 16 -1 17 -19 17 -230 0 -210 -1 -230 -17
-234 -17 -4 -17 -5 0 -6 16 -1 17 -19 17 -226 0 -193 -2 -225 -15 -225 -8 0
-15 -4 -15 -10 0 -5 7 -10 15 -10 13 0 15 -32 15 -224 0 -205 -1 -225 -17
-229 -17 -4 -17 -5 0 -6 15 -1 17 -15 17 -151 l0 -150 179 0 c134 0 181 -3
184 -12 4 -10 6 -10 6 0 1 18 457 18 465 0 5 -10 7 -10 12 0 4 9 61 12 234 12
209 0 229 -1 233 -17 4 -17 5 -17 6 0 1 16 19 17 235 17 178 0 236 -3 239 -12
4 -10 6 -10 6 0 1 9 54 12 230 12 174 0 231 -3 234 -12 4 -10 6 -10 6 0 1 9
55 12 235 12 215 0 235 -1 239 -17 4 -17 5 -17 6 0 1 16 19 17 230 17 174 0
231 -3 235 -12 5 -10 7 -10 12 0 4 9 50 12 180 12 l174 0 0 1340 0 1340 -1790
0 c-1544 0 -1790 -2 -1790 -14z m3570 -134 l0 -138 -287 -38 c-993 -131 -1854
-321 -2333 -516 -103 -42 -107 -44 -227 -163 -111 -109 -131 -136 -242 -313
-104 -164 -140 -233 -242 -464 -66 -150 -118 -274 -115 -277 3 -3 10 5 15 18
5 13 59 136 120 272 89 201 133 285 230 440 111 177 130 202 243 313 l123 122
125 50 c434 175 1229 355 2119 482 118 16 224 30 235 29 12 0 -60 -18 -159
-40 -866 -187 -1518 -410 -1998 -683 -415 -236 -711 -515 -942 -886 -103 -165
-135 -224 -106 -194 6 5 61 91 124 192 84 136 143 216 228 313 518 591 1402
983 2891 1283 98 20 182 36 188 36 6 0 10 -105 10 -300 0 -290 -1 -300 -19
-300 -52 0 -930 -83 -1116 -106 -393 -47 -593 -97 -773 -192 -324 -170 -678
-442 -1051 -807 -202 -198 -501 -528 -489 -540 2 -2 58 57 123 133 160 183
518 541 685 683 274 233 506 397 733 518 184 98 403 151 827 200 159 19 1029
101 1065 101 13 0 15 -102 15 -870 l0 -870 -1780 0 -1780 0 0 1325 0 1325
1780 0 1780 0 0 -138z"/>
<path d="M3301 851 c-17 -11 -7 -41 14 -41 23 0 18 -18 -7 -23 -20 -4 -19 -4
5 -6 34 -1 38 33 5 44 l-23 8 23 4 c12 2 20 9 17 14 -8 11 -16 11 -34 0z"/>
<path d="M3583 820 c0 -25 2 -35 4 -22 2 12 2 32 0 45 -2 12 -4 2 -4 -23z"/>
<path d="M3765 844 c-18 -18 -18 -20 -5 -45 6 -10 21 -19 33 -18 l22 0 -22 9
c-33 13 -31 50 2 50 21 0 25 -5 25 -30 0 -16 5 -30 10 -30 6 0 10 9 10 19 0
32 20 35 21 4 2 -25 2 -25 6 -5 9 46 -68 80 -102 46z"/>
<path d="M4007 854 c-11 -11 -8 -74 3 -74 6 0 10 5 10 11 0 8 6 7 18 -2 15
-13 16 -12 4 3 -7 9 -17 29 -20 43 -4 14 -11 23 -15 19z"/>
<path d="M3352 819 c4 -42 23 -49 22 -7 0 18 -6 34 -13 36 -9 3 -11 -6 -9 -29z"/>
<path d="M3421 806 c1 -21 3 -25 6 -11 8 34 23 41 23 12 0 -15 5 -27 10 -27 6
0 10 9 10 19 0 31 18 34 23 4 5 -27 5 -27 3 2 -1 28 -4 30 -38 31 -36 1 -38
-1 -37 -30z"/>
<path d="M3611 813 c-1 -29 2 -33 24 -33 21 0 25 5 24 28 0 26 -1 26 -9 5 -13
-31 -28 -29 -33 5 -4 25 -4 25 -6 -5z"/>
<path d="M3674 828 c-4 -6 1 -17 10 -24 16 -12 16 -13 -1 -17 -14 -4 -14 -5 5
-6 13 -1 22 5 22 14 0 8 -4 15 -10 15 -5 0 -10 5 -10 11 0 5 5 7 10 4 6 -3 10
-1 10 4 0 15 -27 14 -36 -1z"/>
<path d="M3897 834 c-4 -4 -7 -18 -7 -31 0 -19 5 -23 28 -22 l27 1 -25 8 c-25
8 -25 8 -2 9 17 1 22 6 20 18 -3 19 -29 29 -41 17z m28 -14 c3 -5 -1 -10 -10
-10 -9 0 -13 5 -10 10 3 6 8 10 10 10 2 0 7 -4 10 -10z"/>
<path d="M3957 833 c-4 -3 -7 -17 -7 -30 0 -18 5 -23 23 -22 17 1 18 2 4 6
-20 5 -19 40 1 36 7 -2 12 2 12 7 0 11 -23 14 -33 3z"/>
<path d="M4035 830 c-3 -5 -1 -10 4 -10 6 0 11 5 11 10 0 6 -2 10 -4 10 -3 0
-8 -4 -11 -10z"/>
<path d="M3000 820 c0 -6 42 -10 105 -10 63 0 105 4 105 10 0 6 -42 10 -105
10 -63 0 -105 -4 -105 -10z"/>
<path d="M3392 805 c0 -16 2 -22 5 -12 2 9 2 23 0 30 -3 6 -5 -1 -5 -18z"/>
<path d="M3521 808 c-1 -24 3 -28 24 -28 20 0 25 5 25 25 0 14 -4 25 -10 25
-5 0 -10 -9 -10 -20 0 -27 -18 -25 -23 3 -4 19 -4 18 -6 -5z"/>
<path d="M3293 685 c2 -36 5 -40 27 -40 21 0 26 5 28 33 2 18 -1 32 -7 32 -6
0 -11 -14 -11 -31 0 -41 -23 -33 -32 12 -6 34 -6 34 -5 -6z"/>
<path d="M3763 680 c0 -25 2 -35 4 -22 2 12 2 32 0 45 -2 12 -4 2 -4 -23z"/>
<path d="M3363 675 c0 -22 2 -30 4 -17 2 12 2 30 0 40 -3 9 -5 -1 -4 -23z"/>
<path d="M3542 679 c4 -42 23 -49 22 -7 0 18 -6 34 -13 36 -9 3 -11 -6 -9 -29z"/>
<path d="M3430 685 c-17 -21 -5 -45 22 -44 21 0 21 1 4 8 -19 7 -18 8 4 14 20
5 21 8 10 21 -16 20 -24 20 -40 1z m30 -5 c0 -5 -4 -10 -10 -10 -5 0 -10 5
-10 10 0 6 5 10 10 10 6 0 10 -4 10 -10z"/>
<path d="M3515 690 c-4 -6 -11 -7 -17 -4 -7 5 -9 2 -5 -8 3 -9 1 -20 -5 -26
-7 -7 -3 -10 13 -9 19 2 24 8 25 29 1 30 -1 34 -11 18z"/>
<path d="M3592 691 c-22 -14 -10 -46 18 -48 23 -2 23 -2 5 6 -18 9 -18 10 -2
10 12 1 17 7 15 18 -4 20 -18 26 -36 14z m23 -11 c3 -5 -1 -10 -10 -10 -9 0
-13 5 -10 10 3 6 8 10 10 10 2 0 7 -4 10 -10z"/>
<path d="M3653 693 c-15 -6 -18 -53 -3 -53 6 0 10 9 10 19 0 29 18 35 23 9 4
-21 4 -21 3 1 -1 25 -12 33 -33 24z"/>
<path d="M3710 680 c0 -12 7 -20 18 -21 11 -1 9 -4 -8 -9 l-25 -8 28 -1 c18
-1 27 4 27 14 0 8 -7 15 -15 15 -18 0 -20 16 -2 23 7 3 5 6 -5 6 -12 1 -18 -6
-18 -19z"/>
<path d="M3791 686 c-15 -18 -3 -46 20 -46 25 0 35 26 19 45 -15 19 -24 19
-39 1z m25 -33 c-11 -11 -19 6 -11 24 8 17 8 17 12 0 3 -10 2 -21 -1 -24z"/>
<path d="M3851 666 c1 -21 3 -25 6 -11 8 34 23 41 23 12 0 -15 5 -27 10 -27
12 0 13 30 2 46 -4 6 -15 11 -24 11 -14 0 -18 -8 -17 -31z"/>
<path d="M3914 688 c-4 -6 1 -17 10 -24 16 -12 16 -13 -1 -17 -14 -4 -14 -5 5
-6 13 -1 22 5 22 14 0 8 -4 15 -10 15 -5 0 -10 5 -10 11 0 5 5 7 10 4 6 -3 10
-1 10 4 0 15 -27 14 -36 -1z"/>
<path d="M3053 673 c32 -2 81 -2 110 0 29 2 3 3 -58 3 -60 0 -84 -1 -52 -3z"/>
<path d="M3280 560 c0 -5 6 -10 14 -10 9 0 16 -13 19 -32 l4 -33 1 33 c1 17 7
32 12 32 6 0 10 -5 10 -11 0 -5 6 -7 13 -4 6 4 4 0 -5 -8 -25 -20 -22 -37 7
-37 20 0 25 5 25 26 0 17 -6 28 -20 31 -11 3 -20 9 -20 14 0 5 -13 9 -30 9
-16 0 -30 -4 -30 -10z m90 -50 c0 -5 -5 -10 -11 -10 -5 0 -7 5 -4 10 3 6 8 10
11 10 2 0 4 -4 4 -10z"/>
<path d="M3602 529 c4 -42 23 -49 22 -7 0 18 -6 34 -13 36 -9 3 -11 -6 -9 -29z"/>
<path d="M3425 540 c-4 -6 -11 -7 -17 -4 -7 5 -9 2 -5 -8 3 -9 1 -20 -5 -26
-7 -7 -3 -10 13 -9 19 2 24 8 25 29 1 30 -1 34 -11 18z"/>
<path d="M3491 536 c-16 -19 -3 -46 23 -45 17 1 18 2 3 6 -20 5 -19 40 1 36 7
-2 12 2 12 7 0 15 -26 12 -39 -4z"/>
<path d="M3580 525 c0 -31 -17 -33 -30 -2 -10 22 -10 22 -7 -3 1 -17 9 -26 25
-28 19 -3 22 1 22 27 0 17 -2 31 -5 31 -3 0 -5 -11 -5 -25z"/>
<path d="M3053 523 c32 -2 81 -2 110 0 29 2 3 3 -58 3 -60 0 -84 -1 -52 -3z"/>
<path d="M461 2580 c-7 -4 -11 -20 -9 -36 2 -21 8 -29 23 -29 15 0 21 8 23 31
3 33 -14 49 -37 34z m27 -32 c-5 -32 -28 -35 -28 -4 0 17 5 26 16 26 10 0 14
-7 12 -22z"/>
<path d="M365 2545 c0 -25 4 -35 15 -35 12 0 15 8 12 35 -2 19 -9 35 -16 35
-6 0 -11 -15 -11 -35z"/>
<path d="M360 2105 c-17 -21 -4 -65 20 -65 23 0 35 33 20 60 -13 24 -23 25
-40 5z m30 -30 c0 -14 -4 -25 -10 -25 -5 0 -10 11 -10 25 0 14 5 25 10 25 6 0
10 -11 10 -25z"/>
<path d="M463 2113 c-7 -3 -13 -20 -13 -39 0 -29 3 -34 24 -34 21 0 24 5 24
34 0 34 -12 47 -35 39z m27 -17 c0 -11 -19 -15 -25 -6 -3 5 1 10 9 10 9 0 16
-2 16 -4z m0 -36 c0 -5 -7 -10 -15 -10 -8 0 -15 5 -15 10 0 6 7 10 15 10 8 0
15 -4 15 -10z"/>
<path d="M233 1983 c-1 -42 0 -43 31 -42 30 2 30 2 4 6 -32 5 -33 10 -12 38
13 17 16 18 24 5 8 -13 10 -13 10 2 0 25 -21 33 -36 14 -12 -16 -13 -16 -17 1
-2 10 -4 -1 -4 -24z"/>
<path d="M237 1923 c-13 -12 -7 -41 9 -47 20 -8 44 10 44 32 0 13 -3 12 -15
-4 -14 -19 -14 -18 -15 4 0 22 -10 28 -23 15z"/>
<path d="M243 1853 c9 -2 25 -2 35 0 9 3 1 5 -18 5 -19 0 -27 -2 -17 -5z"/>
<path d="M228 1833 c12 -2 32 -2 45 0 12 2 2 4 -23 4 -25 0 -35 -2 -22 -4z"/>
<path d="M237 1803 c-4 -3 -7 -15 -7 -25 0 -15 8 -18 43 -18 23 0 37 4 31 8
-6 4 -13 15 -17 25 -6 17 -37 23 -50 10z m38 -13 c3 -6 -1 -13 -10 -16 -19 -8
-30 0 -20 15 8 14 22 14 30 1z"/>
<path d="M224 1736 c-16 -17 8 -36 43 -35 l28 1 -30 8 c-23 6 -25 8 -8 9 12 0
24 5 27 10 4 5 -3 7 -15 4 -12 -3 -24 -1 -28 4 -4 7 -10 7 -17 -1z"/>
<path d="M228 1673 c12 -2 32 -2 45 0 12 2 2 4 -23 4 -25 0 -35 -2 -22 -4z"/>
<path d="M230 1640 c0 -5 11 -10 25 -10 34 0 32 -20 -2 -21 -26 -2 -26 -2 -4
-6 28 -6 44 8 35 30 -7 18 -54 24 -54 7z"/>
<path d="M360 1635 c-17 -21 -4 -65 20 -65 23 0 35 33 20 60 -13 24 -23 25
-40 5z m30 -30 c0 -14 -4 -25 -10 -25 -5 0 -10 11 -10 25 0 14 5 25 10 25 6 0
10 -11 10 -25z"/>
<path d="M460 1636 c-16 -20 -9 -60 13 -64 25 -5 34 28 12 44 -17 13 -17 14
-1 14 9 0 14 5 11 10 -9 14 -21 12 -35 -4z m27 -52 c-9 -9 -28 6 -21 18 4 6
10 6 17 -1 6 -6 8 -13 4 -17z"/>
<path d="M230 1550 c0 -39 1 -40 33 -39 30 2 30 2 5 6 -32 5 -38 23 -8 23 11
0 20 5 20 10 0 6 -9 10 -20 10 -30 0 -24 18 8 23 25 4 25 4 -5 6 -32 1 -33 0
-33 -39z"/>
<path d="M272 1440 c4 -35 -38 -42 -51 -8 l-10 23 0 -22 c-1 -25 29 -46 53
-37 20 8 31 43 17 57 -9 9 -11 5 -9 -13z"/>
<path d="M360 1165 c-17 -21 -4 -65 20 -65 23 0 35 33 20 60 -13 24 -23 25
-40 5z m30 -30 c0 -14 -4 -25 -10 -25 -5 0 -10 11 -10 25 0 14 5 25 10 25 6 0
10 -11 10 -25z"/>
<path d="M467 1160 c-22 -32 -22 -46 3 -53 26 -7 30 1 21 43 l-7 34 -17 -24z
m13 -20 c0 -5 -5 -10 -11 -10 -5 0 -7 5 -4 10 3 6 8 10 11 10 2 0 4 -4 4 -10z"/>
<path d="M360 695 c-17 -21 -4 -65 20 -65 23 0 35 33 20 60 -13 24 -23 25 -40
5z m30 -30 c0 -14 -4 -25 -10 -25 -5 0 -10 11 -10 25 0 14 5 25 10 25 6 0 10
-11 10 -25z"/>
<path d="M455 700 c-3 -5 1 -10 9 -10 20 0 20 -14 1 -30 -23 -19 -18 -30 13
-29 18 1 21 3 9 6 -18 5 -18 6 -1 24 14 15 14 21 4 34 -14 17 -26 19 -35 5z"/>
<path d="M915 300 c-3 -5 1 -10 9 -10 20 0 20 -14 1 -30 -23 -19 -18 -30 13
-29 18 1 21 3 9 6 -18 5 -18 6 -1 24 14 15 14 21 4 34 -14 17 -26 19 -35 5z"/>
<path d="M1396 279 c-20 -34 -20 -34 12 -43 23 -8 26 -1 22 39 -3 34 -15 36
-34 4z"/>
<path d="M1870 296 c-16 -20 -9 -60 13 -64 25 -5 34 28 12 44 -17 13 -17 14
-1 14 9 0 14 5 11 10 -9 14 -21 12 -35 -4z m27 -52 c-9 -9 -28 6 -21 18 4 6
10 6 17 -1 6 -6 8 -13 4 -17z"/>
<path d="M2347 303 c-4 -3 -7 -22 -7 -40 0 -30 3 -34 23 -31 16 2 22 10 22 28
0 38 -21 61 -38 43z m23 -23 c0 -5 -2 -10 -4 -10 -3 0 -8 5 -11 10 -3 6 -1 10
4 10 6 0 11 -4 11 -10z m0 -30 c0 -5 -4 -10 -10 -10 -5 0 -10 5 -10 10 0 6 5
10 10 10 6 0 10 -4 10 -10z"/>
<path d="M2790 299 c-10 -6 -11 -9 -2 -9 6 0 12 -11 12 -24 0 -13 -6 -27 -12
-29 -7 -3 -2 -6 12 -6 24 -1 26 2 22 34 -5 40 -12 48 -32 34z"/>
<path d="M2850 295 c-17 -21 -4 -65 20 -65 23 0 35 33 20 60 -13 24 -23 25
-40 5z m30 -30 c0 -14 -4 -25 -10 -25 -5 0 -10 11 -10 25 0 14 5 25 10 25 6 0
10 -11 10 -25z"/>
<path d="M3270 300 c-10 -6 -11 -10 -2 -10 6 0 12 -11 12 -24 0 -13 -6 -27
-12 -29 -7 -3 1 -6 17 -6 17 0 25 3 18 7 -6 4 -13 22 -15 39 -2 26 -6 31 -18
23z"/>
<path d="M3325 301 c-3 -5 4 -11 16 -13 l21 -3 -22 -27 -21 -28 28 1 c22 0 24
2 10 8 -17 6 -17 8 -3 20 20 17 20 37 0 45 -20 8 -22 8 -29 -3z"/>
<path d="M3812 286 c-24 -31 -22 -41 8 -49 26 -7 30 1 21 43 l-7 34 -22 -28z
m18 -16 c0 -5 -5 -10 -11 -10 -5 0 -7 5 -4 10 3 6 8 10 11 10 2 0 4 -4 4 -10z"/>
<path d="M3745 265 c0 -25 4 -35 15 -35 12 0 15 8 12 35 -2 19 -9 35 -16 35
-6 0 -11 -15 -11 -35z"/>
<path d="M2340 160 c-8 -5 -18 -6 -22 -4 -4 3 -8 -10 -7 -28 1 -29 2 -30 8 -9
9 34 31 39 31 7 0 -18 5 -26 18 -26 13 0 14 2 3 9 -8 5 -12 18 -8 30 6 25 -3
33 -23 21z"/>
<path d="M2580 145 c0 -14 0 -28 0 -32 0 -5 4 -9 9 -11 4 -1 6 9 4 23 -3 15
-1 25 6 25 7 0 9 5 6 10 -11 18 -25 10 -25 -15z"/>
<path d="M2127 153 c-4 -3 -7 -17 -7 -30 0 -16 6 -23 19 -23 11 0 22 -6 24
-12 3 -7 6 3 6 23 1 25 -4 39 -15 43 -19 7 -19 7 -27 -1z m23 -37 c-14 -14
-24 0 -16 21 6 15 8 15 16 3 6 -9 5 -19 0 -24z"/>
<path d="M2220 135 c0 -31 -17 -33 -30 -2 -10 22 -10 22 -7 -3 1 -17 9 -26 25
-28 19 -3 22 1 22 27 0 17 -2 31 -5 31 -3 0 -5 -11 -5 -25z"/>
<path d="M2250 150 c0 -6 6 -8 13 -5 6 4 4 0 -5 -8 -26 -20 -22 -37 8 -37 22
0 25 4 22 27 -3 27 -38 48 -38 23z m30 -30 c0 -5 -5 -10 -11 -10 -5 0 -7 5 -4
10 3 6 8 10 11 10 2 0 4 -4 4 -10z"/>
<path d="M2391 146 c-18 -21 -2 -46 28 -45 l26 1 -25 7 -25 7 24 7 c21 5 22 8
11 21 -15 20 -24 20 -39 2z m29 -6 c0 -5 -5 -10 -11 -10 -5 0 -7 5 -4 10 3 6
8 10 11 10 2 0 4 -4 4 -10z"/>
<path d="M2451 126 c1 -21 3 -25 6 -11 3 11 9 25 14 31 5 7 3 11 -6 11 -10 0
-15 -10 -14 -31z"/>
<path d="M2494 148 c-4 -6 1 -17 10 -24 16 -12 16 -13 -1 -17 -14 -4 -14 -5 5
-6 26 -1 30 24 5 33 -15 6 -15 8 -3 16 9 6 10 10 3 10 -6 0 -15 -5 -19 -12z"/>
</g>
</svg>
