<?xml version="1.0" encoding="utf-8" standalone="no"?>
<!DOCTYPE svg PUBLIC "-//W3C//DTD SVG 1.1//EN"
  "http://www.w3.org/Graphics/SVG/1.1/DTD/svg11.dtd">
<svg xmlns:xlink="http://www.w3.org/1999/xlink" width="432pt" height="288pt" viewBox="0 0 432 288" xmlns="http://www.w3.org/2000/svg" version="1.1">
 <metadata>
  <rdf:RDF xmlns:dc="http://purl.org/dc/elements/1.1/" xmlns:cc="http://creativecommons.org/ns#" xmlns:rdf="http://www.w3.org/1999/02/22-rdf-syntax-ns#">
   <cc:Work>
    <dc:type rdf:resource="http://purl.org/dc/dcmitype/StillImage"/>
    <dc:date>2024-10-11T01:25:25.846195</dc:date>
    <dc:format>image/svg+xml</dc:format>
    <dc:creator>
     <cc:Agent>
      <dc:title>Matplotlib v3.6.2, https://matplotlib.org/</dc:title>
     </cc:Agent>
    </dc:creator>
   </cc:Work>
  </rdf:RDF>
 </metadata>
 <defs>
  <style type="text/css">*{stroke-linejoin: round; stroke-linecap: butt}</style>
 </defs>
 <g id="figure_1">
  <g id="patch_1">
   <path d="M 0 288 
L 432 288 
L 432 0 
L 0 0 
z
" style="fill: #ffffff"/>
  </g>
  <g id="axes_1">
   <g id="patch_2">
    <path d="M 54 252 
L 388.8 252 
L 388.8 34.56 
L 54 34.56 
z
" style="fill: #ffffff"/>
   </g>
   <g id="matplotlib.axis_1">
    <g id="xtick_1">
     <g id="line2d_1">
      <defs>
       <path id="m0b3e98d853" d="M 0 0 
L 0 3.5 
" style="stroke: #000000; stroke-width: 0.8"/>
      </defs>
      <g>
       <use xlink:href="#m0b3e98d853" x="69.218182" y="252" style="stroke: #000000; stroke-width: 0.8"/>
      </g>
     </g>
     <g id="text_1">
      <!-- 2020Q1 -->
      <g transform="translate(46.215526 269.185) scale(0.14 -0.14)">
       <defs>
        <path id="Palatino-Roman-32" d="M 106 0 
L 106 175 
Q 203 297 456 556 
L 1153 1281 
Q 1234 1366 1550 1722 
Q 1788 1994 1922 2217 
Q 2056 2441 2118 2652 
Q 2181 2863 2181 3053 
Q 2181 3378 2000 3616 
Q 1766 3931 1319 3931 
Q 1069 3931 881 3850 
Q 694 3769 630 3670 
Q 566 3572 441 3106 
L 253 3106 
Q 328 3525 359 3969 
Q 556 4156 689 4237 
Q 822 4319 1015 4367 
Q 1209 4416 1438 4416 
Q 1847 4416 2128 4277 
Q 2409 4138 2578 3863 
Q 2747 3588 2747 3241 
Q 2747 2866 2555 2502 
Q 2363 2138 1756 1534 
L 1222 1003 
Q 931 713 781 541 
L 2153 541 
Q 2566 541 2963 581 
L 2984 556 
Q 2966 438 2966 278 
Q 2966 134 2984 34 
L 2963 0 
Q 2741 13 2456 19 
Q 1819 31 1603 31 
Q 1331 31 688 19 
Q 334 13 106 0 
z
" transform="scale(0.015625)"/>
        <path id="Palatino-Roman-30" d="M 194 1934 
Q 194 2825 322 3309 
Q 450 3794 787 4109 
Q 1125 4425 1644 4425 
Q 1906 4425 2129 4336 
Q 2353 4247 2495 4111 
Q 2638 3975 2736 3776 
Q 2834 3578 2875 3378 
Q 2969 2922 2969 2384 
Q 2969 1684 2859 1184 
Q 2797 900 2681 664 
Q 2566 428 2406 262 
Q 2247 97 2022 -1 
Q 1797 -100 1516 -100 
Q 1175 -100 931 44 
Q 688 188 544 413 
Q 344 734 269 1148 
Q 194 1563 194 1934 
z
M 731 2116 
Q 731 1666 790 1233 
Q 850 800 978 531 
Q 1066 350 1234 234 
Q 1403 119 1613 119 
Q 1969 119 2159 416 
Q 2434 841 2434 2106 
Q 2434 2650 2376 3083 
Q 2319 3516 2184 3794 
Q 2097 3972 1939 4086 
Q 1781 4200 1559 4200 
Q 1316 4200 1123 4044 
Q 931 3888 831 3477 
Q 731 3066 731 2116 
z
" transform="scale(0.015625)"/>
        <path id="Palatino-Roman-51" d="M 1691 -800 
L 1691 -597 
Q 2203 -197 2503 -91 
Q 1713 -91 1225 168 
Q 738 428 444 984 
Q 150 1541 150 2225 
Q 150 3231 815 3879 
Q 1481 4528 2566 4528 
Q 3106 4528 3534 4375 
Q 3963 4222 4245 3955 
Q 4528 3688 4678 3366 
Q 4881 2931 4881 2369 
Q 4881 1700 4601 1161 
Q 4322 622 3784 290 
Q 3247 -41 2572 -91 
Q 2741 -119 2875 -158 
Q 3009 -197 3263 -300 
Q 3831 -528 4092 -595 
Q 4353 -663 4541 -663 
Q 4666 -663 4872 -597 
L 4872 -756 
Q 4809 -803 4722 -850 
Q 4556 -944 4492 -989 
Q 4428 -1034 4366 -1094 
Q 4322 -1094 4162 -1072 
Q 4003 -1050 3836 -1004 
Q 3669 -959 3247 -813 
Q 2450 -541 2269 -541 
Q 2206 -541 2137 -562 
Q 2069 -584 1981 -631 
L 1691 -800 
z
M 800 2384 
Q 800 2078 883 1722 
Q 966 1366 1108 1097 
Q 1250 828 1459 625 
Q 1669 422 1944 306 
Q 2219 191 2588 191 
Q 3091 191 3466 422 
Q 3841 653 4031 1109 
Q 4222 1566 4222 2150 
Q 4222 2631 4092 3040 
Q 3963 3450 3741 3711 
Q 3519 3972 3181 4117 
Q 2844 4263 2431 4263 
Q 1678 4263 1239 3791 
Q 800 3319 800 2384 
z
" transform="scale(0.015625)"/>
        <path id="Palatino-Roman-31" d="M 478 3559 
L 422 3575 
L 391 3831 
L 422 3863 
Q 756 3959 1150 4128 
Q 1731 4375 1897 4459 
L 1978 4428 
Q 1928 2997 1928 2784 
L 1928 1625 
Q 1928 931 1944 575 
Q 1953 366 1995 311 
Q 2038 256 2120 232 
Q 2203 209 2663 191 
L 2663 0 
Q 1872 25 1672 25 
Q 1522 25 613 0 
L 613 191 
Q 1088 219 1161 236 
Q 1234 253 1270 287 
Q 1306 322 1322 384 
Q 1347 481 1365 942 
Q 1384 1403 1384 1641 
L 1384 2872 
Q 1384 3625 1381 3816 
Q 1381 3900 1359 3922 
Q 1347 3934 1325 3934 
Q 1297 3934 1181 3884 
Q 650 3647 478 3559 
z
" transform="scale(0.015625)"/>
       </defs>
       <use xlink:href="#Palatino-Roman-32"/>
       <use xlink:href="#Palatino-Roman-30" x="50"/>
       <use xlink:href="#Palatino-Roman-32" x="100"/>
       <use xlink:href="#Palatino-Roman-30" x="150"/>
       <use xlink:href="#Palatino-Roman-51" x="200"/>
       <use xlink:href="#Palatino-Roman-31" x="278.613281"/>
      </g>
     </g>
    </g>
    <g id="xtick_2">
     <g id="line2d_2">
      <g>
       <use xlink:href="#m0b3e98d853" x="158.736898" y="252" style="stroke: #000000; stroke-width: 0.8"/>
      </g>
     </g>
     <g id="text_2">
      <!-- 2021Q2 -->
      <g transform="translate(135.734242 269.185) scale(0.14 -0.14)">
       <use xlink:href="#Palatino-Roman-32"/>
       <use xlink:href="#Palatino-Roman-30" x="50"/>
       <use xlink:href="#Palatino-Roman-32" x="100"/>
       <use xlink:href="#Palatino-Roman-31" x="150"/>
       <use xlink:href="#Palatino-Roman-51" x="200"/>
       <use xlink:href="#Palatino-Roman-32" x="278.613281"/>
      </g>
     </g>
    </g>
    <g id="xtick_3">
     <g id="line2d_3">
      <g>
       <use xlink:href="#m0b3e98d853" x="248.255615" y="252" style="stroke: #000000; stroke-width: 0.8"/>
      </g>
     </g>
     <g id="text_3">
      <!-- 2022Q3 -->
      <g transform="translate(225.252959 269.185) scale(0.14 -0.14)">
       <defs>
        <path id="Palatino-Roman-33" d="M 325 97 
Q 281 363 247 506 
Q 225 597 106 1022 
L 278 1088 
Q 475 563 729 377 
Q 984 191 1394 191 
Q 1694 191 1898 309 
Q 2103 428 2231 687 
Q 2359 947 2359 1272 
Q 2359 1706 2137 1939 
Q 1916 2172 1541 2172 
Q 1416 2172 1308 2147 
Q 1200 2122 988 2034 
L 950 2066 
L 1019 2406 
Q 1269 2391 1353 2391 
Q 1734 2391 1942 2658 
Q 2150 2925 2150 3263 
Q 2150 3566 1929 3778 
Q 1709 3991 1372 3991 
Q 1169 3991 981 3909 
Q 794 3828 650 3691 
Q 594 3572 472 3244 
L 278 3244 
L 472 3994 
Q 681 4213 866 4300 
Q 1169 4438 1528 4438 
Q 2056 4438 2364 4159 
Q 2672 3881 2672 3484 
Q 2672 3216 2512 2955 
Q 2353 2694 1972 2422 
Q 2325 2375 2529 2261 
Q 2734 2147 2843 1939 
Q 2953 1731 2953 1475 
Q 2953 1103 2718 743 
Q 2484 384 2059 150 
Q 1634 -84 1138 -84 
Q 919 -84 737 -43 
Q 556 -3 325 97 
z
" transform="scale(0.015625)"/>
       </defs>
       <use xlink:href="#Palatino-Roman-32"/>
       <use xlink:href="#Palatino-Roman-30" x="50"/>
       <use xlink:href="#Palatino-Roman-32" x="100"/>
       <use xlink:href="#Palatino-Roman-32" x="150"/>
       <use xlink:href="#Palatino-Roman-51" x="200"/>
       <use xlink:href="#Palatino-Roman-33" x="278.613281"/>
      </g>
     </g>
    </g>
    <g id="xtick_4">
     <g id="line2d_4">
      <g>
       <use xlink:href="#m0b3e98d853" x="337.774332" y="252" style="stroke: #000000; stroke-width: 0.8"/>
      </g>
     </g>
     <g id="text_4">
      <!-- 2023Q4 -->
      <g transform="translate(314.771675 269.185) scale(0.14 -0.14)">
       <defs>
        <path id="Palatino-Roman-34" d="M 1003 0 
L 1003 184 
Q 1491 194 1575 211 
Q 1659 228 1694 266 
Q 1738 319 1756 456 
Q 1784 688 1784 934 
L 1784 1166 
L 1100 1166 
Q 534 1166 91 1147 
L 38 1316 
Q 278 1769 681 2425 
Q 1269 3381 1853 4266 
Q 1888 4281 2022 4338 
Q 2259 4431 2294 4444 
L 2372 4406 
Q 2350 4031 2344 3481 
Q 2328 2322 2328 2209 
L 2328 1563 
Q 2753 1566 3025 1584 
Q 3016 1428 3016 1378 
L 3025 1147 
Q 2706 1166 2488 1166 
L 2328 1166 
L 2328 956 
Q 2328 431 2375 316 
Q 2394 269 2450 241 
Q 2569 188 3025 184 
L 3025 0 
Q 2350 25 1988 25 
Q 1597 25 1003 0 
z
M 450 1563 
L 1784 1563 
L 1813 3784 
Q 1472 3294 1042 2584 
Q 613 1875 450 1563 
z
" transform="scale(0.015625)"/>
       </defs>
       <use xlink:href="#Palatino-Roman-32"/>
       <use xlink:href="#Palatino-Roman-30" x="50"/>
       <use xlink:href="#Palatino-Roman-32" x="100"/>
       <use xlink:href="#Palatino-Roman-33" x="150"/>
       <use xlink:href="#Palatino-Roman-51" x="200"/>
       <use xlink:href="#Palatino-Roman-34" x="278.613281"/>
      </g>
     </g>
    </g>
   </g>
   <g id="matplotlib.axis_2">
    <g id="ytick_1">
     <g id="line2d_5">
      <defs>
       <path id="m49f1ab1ddc" d="M 0 0 
L -3.5 0 
" style="stroke: #000000; stroke-width: 0.8"/>
      </defs>
      <g>
       <use xlink:href="#m49f1ab1ddc" x="54" y="248.491544" style="stroke: #000000; stroke-width: 0.8"/>
      </g>
     </g>
     <g id="text_5">
      <!-- −10 -->
      <g transform="translate(24.516875 253.584044) scale(0.14 -0.14)">
       <defs>
        <path id="Palatino-Roman-2212" d="M 234 2063 
L 3653 2063 
L 3650 1716 
L 231 1716 
L 234 2063 
z
" transform="scale(0.015625)"/>
       </defs>
       <use xlink:href="#Palatino-Roman-2212"/>
       <use xlink:href="#Palatino-Roman-31" x="60.595703"/>
       <use xlink:href="#Palatino-Roman-30" x="110.595703"/>
      </g>
     </g>
    </g>
    <g id="ytick_2">
     <g id="line2d_6">
      <g>
       <use xlink:href="#m49f1ab1ddc" x="54" y="212.7416" style="stroke: #000000; stroke-width: 0.8"/>
      </g>
     </g>
     <g id="text_6">
      <!-- −8 -->
      <g transform="translate(31.516875 217.8341) scale(0.14 -0.14)">
       <defs>
        <path id="Palatino-Roman-38" d="M 1050 2241 
Q 666 2444 505 2689 
Q 344 2934 344 3250 
Q 344 3734 703 4070 
Q 1063 4406 1650 4406 
Q 1988 4406 2252 4290 
Q 2516 4175 2650 3962 
Q 2784 3750 2784 3500 
Q 2784 3309 2701 3125 
Q 2619 2941 2434 2766 
Q 2294 2634 2019 2463 
L 2019 2434 
Q 2413 2247 2556 2141 
Q 2750 2000 2856 1797 
Q 2963 1594 2963 1328 
Q 2963 978 2764 636 
Q 2566 294 2208 105 
Q 1850 -84 1444 -84 
Q 1091 -84 798 61 
Q 506 206 353 464 
Q 200 722 200 1038 
Q 200 1416 425 1722 
Q 650 2028 1050 2213 
L 1050 2241 
z
M 1778 2541 
Q 2097 2744 2223 2944 
Q 2350 3144 2350 3416 
Q 2350 3641 2258 3823 
Q 2166 4006 1989 4100 
Q 1813 4194 1588 4194 
Q 1238 4194 1030 3998 
Q 822 3803 822 3488 
Q 822 3178 1006 3003 
Q 1191 2828 1778 2541 
z
M 1303 2128 
Q 947 1909 797 1668 
Q 647 1428 647 1088 
Q 647 800 756 581 
Q 866 363 1080 247 
Q 1294 131 1541 131 
Q 1797 131 2015 250 
Q 2234 369 2348 586 
Q 2463 803 2463 1072 
Q 2463 1303 2366 1462 
Q 2269 1622 2033 1765 
Q 1797 1909 1303 2128 
z
" transform="scale(0.015625)"/>
       </defs>
       <use xlink:href="#Palatino-Roman-2212"/>
       <use xlink:href="#Palatino-Roman-38" x="60.595703"/>
      </g>
     </g>
    </g>
    <g id="ytick_3">
     <g id="line2d_7">
      <g>
       <use xlink:href="#m49f1ab1ddc" x="54" y="176.991657" style="stroke: #000000; stroke-width: 0.8"/>
      </g>
     </g>
     <g id="text_7">
      <!-- −6 -->
      <g transform="translate(31.516875 182.084157) scale(0.14 -0.14)">
       <defs>
        <path id="Palatino-Roman-36" d="M 2700 4347 
L 2700 4309 
Q 2353 4231 1975 4000 
Q 1597 3769 1356 3473 
Q 1116 3178 998 2867 
Q 881 2556 847 2153 
Q 1028 2281 1116 2347 
Q 1341 2522 1405 2556 
Q 1469 2591 1580 2617 
Q 1691 2644 1847 2644 
Q 2391 2644 2687 2334 
Q 2984 2025 2984 1438 
Q 2984 1038 2838 741 
Q 2688 438 2511 281 
Q 2334 125 2104 17 
Q 1875 -91 1541 -91 
Q 969 -91 594 342 
Q 219 775 219 1603 
Q 219 2172 395 2653 
Q 572 3134 878 3481 
Q 1184 3828 1607 4089 
Q 2031 4350 2472 4456 
L 2700 4347 
z
M 788 1366 
Q 788 1119 844 875 
Q 878 731 939 593 
Q 1000 456 1098 347 
Q 1197 238 1333 178 
Q 1469 119 1628 119 
Q 1844 119 2030 236 
Q 2216 353 2330 617 
Q 2444 881 2444 1222 
Q 2444 1550 2333 1795 
Q 2222 2041 2026 2156 
Q 1831 2272 1613 2272 
Q 1338 2272 1075 2088 
Q 888 1956 838 1811 
Q 788 1666 788 1366 
z
" transform="scale(0.015625)"/>
       </defs>
       <use xlink:href="#Palatino-Roman-2212"/>
       <use xlink:href="#Palatino-Roman-36" x="60.595703"/>
      </g>
     </g>
    </g>
    <g id="ytick_4">
     <g id="line2d_8">
      <g>
       <use xlink:href="#m49f1ab1ddc" x="54" y="141.241714" style="stroke: #000000; stroke-width: 0.8"/>
      </g>
     </g>
     <g id="text_8">
      <!-- −4 -->
      <g transform="translate(31.516875 146.334214) scale(0.14 -0.14)">
       <use xlink:href="#Palatino-Roman-2212"/>
       <use xlink:href="#Palatino-Roman-34" x="60.595703"/>
      </g>
     </g>
    </g>
    <g id="ytick_5">
     <g id="line2d_9">
      <g>
       <use xlink:href="#m49f1ab1ddc" x="54" y="105.491771" style="stroke: #000000; stroke-width: 0.8"/>
      </g>
     </g>
     <g id="text_9">
      <!-- −2 -->
      <g transform="translate(31.516875 110.584271) scale(0.14 -0.14)">
       <use xlink:href="#Palatino-Roman-2212"/>
       <use xlink:href="#Palatino-Roman-32" x="60.595703"/>
      </g>
     </g>
    </g>
    <g id="ytick_6">
     <g id="line2d_10">
      <g>
       <use xlink:href="#m49f1ab1ddc" x="54" y="69.741827" style="stroke: #000000; stroke-width: 0.8"/>
      </g>
     </g>
     <g id="text_10">
      <!-- 0 -->
      <g transform="translate(40 74.834327) scale(0.14 -0.14)">
       <use xlink:href="#Palatino-Roman-30"/>
      </g>
     </g>
    </g>
    <g id="text_11">
     <!-- % deviation -->
     <g transform="translate(16.660312 180.247656) rotate(-90) scale(0.14 -0.14)">
      <defs>
       <path id="Palatino-Roman-25" d="M 2825 622 
Q 2825 1181 3208 1643 
Q 3591 2106 4094 2106 
Q 4416 2106 4616 1884 
Q 4816 1663 4816 1353 
Q 4816 1106 4753 864 
Q 4691 622 4544 389 
Q 4397 156 4148 -19 
Q 3900 -194 3606 -194 
Q 3241 -194 3033 29 
Q 2825 253 2825 622 
z
M 869 -813 
L 594 -813 
L 3628 4222 
Q 3463 4034 3250 3925 
Q 3038 3816 2834 3816 
Q 2622 3816 2453 3875 
Q 2284 3934 2206 4022 
Q 2275 3884 2275 3697 
Q 2275 3444 2208 3223 
Q 2141 3003 1989 2747 
Q 1838 2491 1600 2341 
Q 1363 2191 1097 2191 
Q 756 2191 542 2411 
Q 328 2631 328 3034 
Q 328 3575 701 4036 
Q 1075 4497 1597 4497 
Q 1766 4497 1917 4420 
Q 2069 4344 2153 4203 
Q 2234 4109 2415 4045 
Q 2597 3981 2819 3981 
Q 3091 3981 3397 4206 
Q 3703 4431 3891 4728 
Q 3922 4719 3956 4711 
Q 3991 4703 4019 4703 
L 4066 4703 
Q 4131 4703 4184 4716 
Q 4116 4634 4052 4537 
Q 3988 4441 3688 3942 
Q 3388 3444 2578 2078 
Q 1769 713 1448 172 
Q 1128 -369 869 -813 
z
M 3428 1309 
Q 3313 1053 3264 859 
Q 3216 666 3216 475 
Q 3216 213 3323 64 
Q 3431 -84 3622 -84 
Q 3828 -84 4011 98 
Q 4194 281 4314 534 
Q 4434 788 4503 1031 
Q 4572 1275 4572 1447 
Q 4572 1688 4459 1827 
Q 4347 1966 4138 1966 
Q 3913 1966 3736 1778 
Q 3559 1591 3428 1309 
z
M 2078 3819 
Q 2078 4063 1967 4230 
Q 1856 4397 1656 4397 
Q 1441 4397 1261 4233 
Q 1081 4069 947 3726 
Q 813 3384 775 3211 
Q 738 3038 738 2850 
Q 738 2584 847 2443 
Q 956 2303 1156 2303 
Q 1356 2303 1512 2440 
Q 1669 2578 1805 2847 
Q 1941 3116 2009 3370 
Q 2078 3625 2078 3819 
z
" transform="scale(0.015625)"/>
       <path id="Palatino-Roman-20" transform="scale(0.015625)"/>
       <path id="Palatino-Roman-64" d="M 2122 4244 
L 2122 4422 
Q 2469 4459 2708 4511 
Q 2947 4563 3175 4638 
L 3216 4609 
Q 3203 4344 3188 3584 
L 3175 3084 
L 3175 1128 
Q 3175 809 3186 576 
Q 3197 344 3225 298 
Q 3253 253 3318 225 
Q 3384 197 3709 169 
L 3709 0 
Q 3328 22 3172 22 
Q 3038 22 2622 0 
Q 2631 216 2638 581 
Q 2513 491 2302 309 
Q 2091 128 1972 13 
Q 1722 -50 1531 -50 
Q 1178 -50 881 125 
Q 584 300 423 633 
Q 263 966 263 1381 
Q 263 1694 361 1973 
Q 459 2253 609 2406 
Q 694 2494 994 2672 
Q 1294 2850 1480 2929 
Q 1666 3009 1884 3009 
Q 2081 3009 2270 2961 
Q 2459 2913 2638 2813 
L 2638 3634 
Q 2638 4069 2600 4163 
Q 2588 4197 2553 4213 
Q 2491 4241 2122 4244 
z
M 2638 2278 
Q 2425 2513 2192 2620 
Q 1959 2728 1734 2728 
Q 1478 2728 1262 2597 
Q 1047 2466 933 2200 
Q 819 1934 819 1563 
Q 819 991 1103 669 
Q 1388 347 1788 347 
Q 1997 347 2162 434 
Q 2328 522 2453 690 
Q 2578 859 2613 1066 
Q 2638 1203 2638 1744 
L 2638 2278 
z
" transform="scale(0.015625)"/>
       <path id="Palatino-Roman-65" d="M 2763 484 
L 2663 259 
Q 2447 125 2347 81 
Q 2200 16 2011 -29 
Q 1822 -75 1613 -75 
Q 1200 -75 865 97 
Q 531 269 345 611 
Q 159 953 159 1413 
Q 159 1772 257 2061 
Q 356 2350 481 2488 
Q 572 2588 762 2717 
Q 953 2847 1141 2922 
Q 1388 3025 1675 3025 
Q 2025 3025 2308 2865 
Q 2591 2706 2722 2431 
Q 2853 2156 2853 1809 
Q 2853 1722 2841 1597 
Q 2616 1553 2438 1541 
Q 2100 1516 1763 1516 
L 759 1516 
Q 766 1069 914 792 
Q 1063 516 1323 384 
Q 1584 253 1866 253 
Q 2056 253 2245 314 
Q 2434 375 2713 538 
L 2763 484 
z
M 759 1763 
Q 847 1753 1091 1744 
Q 1556 1728 1731 1728 
Q 2147 1728 2278 1744 
Q 2281 1819 2281 1859 
Q 2281 2353 2081 2584 
Q 1881 2816 1547 2816 
Q 1194 2816 978 2562 
Q 763 2309 759 1763 
z
" transform="scale(0.015625)"/>
       <path id="Palatino-Roman-76" d="M 1594 -31 
Q 1472 288 1425 397 
L 1169 994 
L 528 2484 
Q 466 2625 422 2672 
Q 378 2719 325 2731 
Q 281 2744 94 2750 
L 94 2938 
Q 613 2916 850 2916 
Q 1113 2916 1569 2938 
L 1569 2750 
Q 1231 2741 1172 2706 
Q 1113 2672 1113 2613 
Q 1113 2519 1238 2209 
L 1619 1259 
L 1709 1047 
Q 1863 675 1919 550 
L 2231 1259 
Q 2259 1322 2516 1963 
Q 2666 2334 2716 2531 
Q 2728 2584 2728 2625 
Q 2728 2678 2688 2700 
Q 2613 2741 2288 2750 
L 2288 2938 
Q 2753 2916 2884 2916 
Q 2994 2916 3481 2938 
L 3481 2750 
Q 3288 2741 3223 2705 
Q 3159 2669 3097 2556 
Q 3053 2481 2759 1881 
L 2459 1241 
Q 2381 1069 1919 -31 
L 1594 -31 
z
" transform="scale(0.015625)"/>
       <path id="Palatino-Roman-69" d="M 903 4400 
Q 1050 4400 1151 4297 
Q 1253 4194 1253 4047 
Q 1253 3903 1150 3800 
Q 1047 3697 903 3697 
Q 756 3697 653 3800 
Q 550 3903 550 4047 
Q 550 4194 653 4297 
Q 756 4400 903 4400 
z
M 141 2572 
L 141 2750 
Q 747 2819 1159 3013 
L 1228 2963 
Q 1203 2297 1203 1944 
L 1203 1375 
Q 1219 563 1222 497 
Q 1225 341 1256 269 
Q 1272 241 1297 220 
Q 1322 200 1372 188 
Q 1391 184 1719 178 
L 1719 0 
Q 1244 22 959 22 
Q 709 22 141 0 
L 141 178 
L 438 181 
Q 503 184 539 204 
Q 575 225 594 256 
Q 628 319 638 478 
Q 638 519 656 1375 
L 656 1925 
Q 656 2391 625 2478 
Q 606 2525 557 2548 
Q 509 2572 141 2572 
z
" transform="scale(0.015625)"/>
       <path id="Palatino-Roman-61" d="M 678 2141 
L 513 2184 
Q 516 2256 516 2381 
Q 516 2513 513 2591 
Q 909 2850 1163 2941 
Q 1356 3006 1597 3006 
Q 1953 3006 2197 2872 
Q 2441 2738 2559 2488 
Q 2641 2313 2641 2009 
L 2628 1438 
L 2628 506 
Q 2628 356 2653 291 
Q 2672 244 2713 222 
Q 2744 203 2844 197 
L 3047 178 
L 3047 0 
Q 2791 22 2597 22 
Q 2409 22 2097 0 
L 2113 550 
Q 1475 69 1356 8 
Q 1238 -53 1056 -53 
Q 678 -53 467 148 
Q 256 350 256 684 
Q 256 900 329 1078 
Q 403 1256 506 1361 
Q 609 1466 716 1516 
Q 897 1600 1305 1697 
Q 1713 1794 2113 1841 
Q 2116 2138 2041 2303 
Q 1966 2469 1787 2575 
Q 1609 2681 1353 2681 
Q 1169 2681 1030 2631 
Q 891 2581 859 2547 
L 803 2434 
Q 719 2247 678 2141 
z
M 2113 1650 
Q 1706 1581 1418 1497 
Q 1131 1413 1013 1322 
Q 941 1269 888 1163 
Q 806 1006 806 816 
Q 806 584 934 454 
Q 1063 325 1291 325 
Q 1500 325 1704 445 
Q 1909 566 2113 806 
L 2113 1650 
z
" transform="scale(0.015625)"/>
       <path id="Palatino-Roman-74" d="M 144 2450 
L 144 2581 
Q 456 2700 641 2794 
Q 641 3538 622 3744 
Q 947 3856 1150 3984 
L 1225 3922 
Q 1191 3663 1150 2778 
Q 1400 2775 1450 2775 
Q 1478 2775 1772 2781 
Q 1934 2784 2016 2794 
L 2038 2772 
L 1972 2481 
Q 1775 2484 1609 2484 
Q 1444 2484 1150 2481 
L 1131 1209 
Q 1122 744 1137 653 
Q 1153 563 1197 495 
Q 1241 428 1311 387 
Q 1381 347 1550 325 
Q 1678 325 1758 336 
Q 1838 347 1959 391 
L 1997 269 
Q 1850 153 1713 28 
Q 1594 -16 1491 -30 
Q 1388 -44 1253 -44 
Q 1088 -44 989 -6 
Q 891 31 809 98 
Q 728 166 675 269 
Q 622 372 606 594 
Q 609 806 619 1059 
Q 622 1109 622 1169 
L 622 2466 
L 494 2466 
Q 338 2466 144 2450 
z
" transform="scale(0.015625)"/>
       <path id="Palatino-Roman-6f" d="M 213 1438 
Q 213 2138 658 2580 
Q 1103 3022 1800 3022 
Q 2456 3022 2868 2609 
Q 3281 2197 3281 1544 
Q 3281 1088 3068 709 
Q 2856 331 2468 117 
Q 2081 -97 1616 -97 
Q 1253 -97 1001 25 
Q 750 147 594 331 
Q 438 516 356 709 
Q 213 1050 213 1438 
z
M 803 1669 
Q 803 1284 931 887 
Q 1059 491 1301 308 
Q 1544 125 1828 125 
Q 2191 125 2434 412 
Q 2678 700 2678 1297 
Q 2678 1794 2533 2155 
Q 2388 2516 2163 2664 
Q 1938 2813 1666 2813 
Q 1281 2813 1042 2534 
Q 803 2256 803 1669 
z
" transform="scale(0.015625)"/>
       <path id="Palatino-Roman-6e" d="M 88 0 
L 88 178 
L 384 181 
Q 450 184 486 204 
Q 522 225 541 256 
Q 575 319 584 478 
Q 584 519 603 1375 
L 603 1747 
Q 603 1997 594 2284 
Q 584 2469 564 2503 
Q 544 2538 494 2555 
Q 444 2572 88 2569 
L 88 2747 
Q 719 2834 1009 2975 
Q 1072 3006 1094 3006 
Q 1116 3006 1128 2990 
Q 1141 2975 1141 2944 
Q 1141 2922 1138 2894 
Q 1128 2781 1119 2419 
L 1700 2916 
Q 1956 3009 2184 3009 
Q 2438 3009 2664 2906 
Q 2891 2803 3005 2647 
Q 3119 2491 3156 2253 
Q 3178 2113 3178 1469 
L 3178 916 
Q 3178 509 3200 363 
Q 3216 269 3248 233 
Q 3281 197 3350 188 
L 3684 178 
L 3684 0 
Q 3378 22 3175 22 
Q 3000 22 2594 0 
Q 2638 772 2638 975 
L 2638 1500 
Q 2638 1991 2600 2144 
Q 2547 2353 2359 2481 
Q 2172 2609 1906 2609 
Q 1672 2609 1478 2498 
Q 1284 2388 1201 2242 
Q 1119 2097 1119 1753 
L 1119 1375 
Q 1138 563 1138 497 
Q 1144 341 1175 269 
Q 1188 241 1213 220 
Q 1238 200 1291 188 
Q 1309 184 1634 178 
L 1634 0 
Q 1253 22 944 22 
Q 681 22 88 0 
z
" transform="scale(0.015625)"/>
      </defs>
      <use xlink:href="#Palatino-Roman-25"/>
      <use xlink:href="#Palatino-Roman-20" x="83.984375"/>
      <use xlink:href="#Palatino-Roman-64" x="108.984375"/>
      <use xlink:href="#Palatino-Roman-65" x="170.068359"/>
      <use xlink:href="#Palatino-Roman-76" x="217.96875"/>
      <use xlink:href="#Palatino-Roman-69" x="274.462891"/>
      <use xlink:href="#Palatino-Roman-61" x="303.564453"/>
      <use xlink:href="#Palatino-Roman-74" x="353.564453"/>
      <use xlink:href="#Palatino-Roman-69" x="386.181641"/>
      <use xlink:href="#Palatino-Roman-6f" x="415.283203"/>
      <use xlink:href="#Palatino-Roman-6e" x="469.873047"/>
     </g>
    </g>
   </g>
   <g id="line2d_11">
    <path d="M 69.218182 69.741827 
L 87.121925 238.77499 
L 105.025668 162.063261 
L 122.929412 125.080349 
L 140.833155 116.636589 
L 158.736898 111.634257 
L 176.640642 96.078115 
L 194.544385 79.795719 
L 212.448128 73.196411 
L 230.351872 70.166686 
L 248.255615 68.304889 
L 266.159358 68.870165 
L 284.063102 67.58088 
L 301.966845 68.744553 
L 319.870588 71.137383 
L 337.774332 71.700908 
L 355.678075 72.893072 
L 373.581818 72.836675 
" clip-path="url(#pc1b96f26e3)" style="fill: none; stroke: #4b0082; stroke-width: 4; stroke-linecap: square"/>
   </g>
   <g id="line2d_12">
    <path d="M 69.218182 69.741827 
L 87.121925 238.244788 
L 105.025668 169.124882 
L 122.929412 138.770356 
L 140.833155 134.84848 
L 158.736898 132.863 
L 176.640642 119.73764 
L 194.544385 105.051707 
L 212.448128 99.019172 
L 230.351872 95.913503 
L 248.255615 93.65593 
L 266.159358 93.667906 
L 284.063102 91.825247 
L 301.966845 92.383142 
L 319.870588 94.211823 
L 337.774332 94.341971 
L 355.678075 95.174283 
L 373.581818 93.920175 
" clip-path="url(#pc1b96f26e3)" style="fill: none; stroke: #ff0000; stroke-width: 4; stroke-linecap: square"/>
   </g>
   <g id="line2d_13">
    <path d="M 69.218182 69.741827 
L 87.121925 242.116364 
L 105.025668 163.137446 
L 122.929412 124.274827 
L 140.833155 114.872591 
L 158.736898 109.23125 
L 176.640642 92.934031 
L 194.544385 76.00999 
L 212.448128 69.115006 
L 230.351872 65.980933 
L 248.255615 64.100486 
L 266.159358 64.72729 
L 284.063102 63.473665 
L 301.966845 64.72729 
L 319.870588 67.234559 
L 337.774332 67.86138 
L 355.678075 69.115006 
L 373.581818 69.470181 
" clip-path="url(#pc1b96f26e3)" style="fill: none; stroke-dasharray: 25.6,6.4,4,6.4; stroke-dashoffset: 0; stroke: #ff8c00; stroke-width: 4"/>
   </g>
   <g id="line2d_14">
    <path d="M 69.218182 69.741827 
L 87.121925 227.258383 
L 105.025668 104.281083 
L 122.929412 96.459107 
L 140.833155 84.204022 
L 158.736898 67.842172 
L 176.640642 63.93572 
L 194.544385 44.443636 
L 212.448128 63.948068 
L 230.351872 77.06485 
L 248.255615 75.918212 
L 266.159358 75.193394 
L 284.063102 75.865604 
L 301.966845 77.333929 
L 319.870588 66.708687 
L 337.774332 62.377519 
" clip-path="url(#pc1b96f26e3)" style="fill: none; stroke-dasharray: 14.8,6.4; stroke-dashoffset: 0; stroke: #000000; stroke-width: 4"/>
   </g>
   <g id="line2d_15">
    <path d="M 69.218182 69.741827 
L 87.121925 69.741827 
L 105.025668 69.741827 
L 122.929412 69.741827 
L 140.833155 69.741827 
L 158.736898 69.741827 
L 176.640642 69.741827 
L 194.544385 69.741827 
L 212.448128 69.741827 
L 230.351872 69.741827 
L 248.255615 69.741827 
L 266.159358 69.741827 
L 284.063102 69.741827 
L 301.966845 69.741827 
L 319.870588 69.741827 
L 337.774332 69.741827 
L 355.678075 69.741827 
L 373.581818 69.741827 
" clip-path="url(#pc1b96f26e3)" style="fill: none; stroke: #000000; stroke-width: 1.5; stroke-linecap: square"/>
   </g>
   <g id="patch_3">
    <path d="M 54 252 
L 54 34.56 
" style="fill: none; stroke: #000000; stroke-width: 0.8; stroke-linejoin: miter; stroke-linecap: square"/>
   </g>
   <g id="patch_4">
    <path d="M 388.8 252 
L 388.8 34.56 
" style="fill: none; stroke: #000000; stroke-width: 0.8; stroke-linejoin: miter; stroke-linecap: square"/>
   </g>
   <g id="patch_5">
    <path d="M 54 252 
L 388.8 252 
" style="fill: none; stroke: #000000; stroke-width: 0.8; stroke-linejoin: miter; stroke-linecap: square"/>
   </g>
   <g id="patch_6">
    <path d="M 54 34.56 
L 388.8 34.56 
" style="fill: none; stroke: #000000; stroke-width: 0.8; stroke-linejoin: miter; stroke-linecap: square"/>
   </g>
   <g id="text_12">
    <!-- Output (untargeted) -->
    <g transform="translate(131.384375 28.56) scale(0.2 -0.2)">
     <defs>
      <path id="Palatino-Roman-4f" d="M 153 2191 
Q 153 2684 301 3103 
Q 450 3522 794 3856 
Q 1138 4191 1572 4361 
Q 2006 4531 2566 4531 
Q 3081 4531 3503 4386 
Q 3925 4241 4195 4002 
Q 4466 3763 4622 3478 
Q 4741 3266 4811 2978 
Q 4881 2691 4881 2363 
Q 4881 1309 4173 609 
Q 3466 -91 2388 -91 
Q 1897 -91 1472 68 
Q 1047 228 753 542 
Q 459 856 306 1304 
Q 153 1753 153 2191 
z
M 803 2450 
Q 803 2153 862 1847 
Q 922 1541 1013 1319 
Q 1163 944 1405 689 
Q 1647 434 1945 314 
Q 2244 194 2606 194 
Q 3109 194 3481 439 
Q 3853 684 4036 1129 
Q 4219 1575 4219 2156 
Q 4219 2653 4088 3072 
Q 4006 3328 3872 3536 
Q 3738 3744 3552 3898 
Q 3366 4053 3069 4159 
Q 2772 4266 2428 4266 
Q 1931 4266 1556 4044 
Q 1181 3822 992 3401 
Q 803 2981 803 2450 
z
" transform="scale(0.015625)"/>
      <path id="Palatino-Roman-75" d="M 3697 178 
L 3697 0 
Q 3288 22 3078 22 
Q 2847 22 2609 0 
Q 2628 253 2638 569 
Q 2450 419 2191 159 
Q 2131 100 2075 72 
Q 1941 -3 1806 -36 
Q 1672 -69 1484 -69 
Q 1231 -69 1061 0 
Q 891 69 769 209 
Q 678 313 629 477 
Q 581 641 581 872 
Q 581 981 589 1078 
Q 597 1175 597 1269 
L 597 1803 
Q 597 1884 588 2213 
Q 581 2419 559 2481 
Q 547 2513 519 2531 
Q 472 2563 353 2563 
Q 181 2563 81 2566 
L 81 2744 
Q 753 2819 1056 2984 
Q 1106 3013 1134 3013 
Q 1156 3013 1170 2997 
Q 1184 2981 1184 2950 
Q 1184 2925 1181 2888 
Q 1169 2788 1159 2503 
Q 1141 1981 1141 1803 
L 1141 1194 
Q 1141 813 1192 658 
Q 1244 503 1392 411 
Q 1541 319 1759 319 
Q 1909 319 2057 370 
Q 2206 422 2325 519 
Q 2413 591 2503 713 
Q 2572 803 2594 851 
Q 2616 900 2622 994 
Q 2638 1269 2638 1541 
L 2638 1803 
Q 2638 1884 2628 2213 
Q 2622 2419 2600 2481 
Q 2588 2513 2559 2531 
Q 2513 2563 2394 2563 
Q 2222 2563 2122 2566 
L 2122 2744 
Q 2794 2819 3097 2984 
Q 3147 3013 3175 3013 
Q 3197 3013 3211 2997 
Q 3225 2981 3225 2950 
Q 3225 2925 3222 2888 
Q 3213 2788 3200 2491 
Q 3181 1981 3181 1803 
L 3181 1375 
L 3188 941 
Q 3197 563 3200 497 
Q 3203 341 3234 269 
Q 3250 241 3275 220 
Q 3300 200 3350 188 
Q 3369 184 3697 178 
z
" transform="scale(0.015625)"/>
      <path id="Palatino-Roman-70" d="M 113 2572 
L 113 2753 
Q 169 2753 350 2779 
Q 531 2806 753 2870 
Q 975 2934 1088 2994 
Q 1122 3013 1144 3013 
Q 1166 3013 1180 2997 
Q 1194 2981 1194 2944 
Q 1194 2928 1191 2869 
Q 1184 2778 1184 2703 
L 1184 2372 
Q 1713 2863 1844 2925 
Q 2016 3009 2356 3009 
Q 2753 3009 3040 2829 
Q 3328 2650 3458 2364 
Q 3588 2078 3588 1753 
Q 3588 1556 3542 1381 
Q 3497 1206 3426 1051 
Q 3356 897 3270 767 
Q 3184 638 3109 572 
Q 3066 531 2883 384 
Q 2700 238 2492 130 
Q 2284 22 2203 -3 
Q 2025 -59 1825 -59 
Q 1669 -59 1520 -21 
Q 1372 16 1184 106 
L 1184 -391 
Q 1200 -1181 1203 -1263 
Q 1206 -1416 1241 -1488 
Q 1253 -1522 1279 -1542 
Q 1306 -1563 1356 -1572 
Q 1384 -1578 1728 -1584 
L 1728 -1763 
Q 1338 -1747 694 -1747 
Q 338 -1747 147 -1763 
L 147 -1584 
L 444 -1581 
Q 509 -1578 545 -1558 
Q 581 -1538 600 -1506 
Q 634 -1444 644 -1284 
Q 647 -1244 663 -391 
L 663 719 
Q 663 1259 650 1828 
Q 638 2397 623 2448 
Q 609 2500 578 2526 
Q 547 2553 497 2563 
L 113 2572 
z
M 1184 644 
Q 1350 475 1562 378 
Q 1775 281 2009 281 
Q 2294 281 2526 423 
Q 2759 566 2895 866 
Q 3031 1166 3031 1519 
Q 3031 1859 2901 2111 
Q 2772 2363 2534 2489 
Q 2297 2616 2056 2616 
Q 1878 2616 1704 2545 
Q 1531 2475 1390 2340 
Q 1250 2206 1203 2084 
Q 1184 2025 1184 1856 
L 1184 644 
z
" transform="scale(0.015625)"/>
      <path id="Palatino-Roman-28" d="M 1763 -1063 
Q 1097 -500 737 275 
Q 378 1050 378 1969 
Q 378 2506 495 2947 
Q 613 3388 809 3745 
Q 1006 4103 1275 4428 
Q 1544 4753 1791 4931 
L 1916 4772 
Q 1416 4231 1170 3554 
Q 925 2878 925 1991 
Q 925 1028 1154 375 
Q 1384 -278 1916 -925 
L 1763 -1063 
z
" transform="scale(0.015625)"/>
      <path id="Palatino-Roman-72" d="M 147 0 
L 147 178 
Q 500 184 528 191 
Q 581 200 607 220 
Q 634 241 650 278 
Q 681 350 688 503 
Q 706 1338 706 1375 
L 706 1747 
Q 706 1997 697 2284 
Q 691 2469 670 2503 
Q 650 2538 598 2555 
Q 547 2572 191 2569 
L 191 2747 
Q 822 2834 1113 2975 
Q 1175 3006 1197 3006 
Q 1219 3006 1231 2990 
Q 1244 2975 1244 2944 
Q 1244 2922 1241 2894 
Q 1225 2703 1222 2303 
Q 1363 2466 1481 2625 
Q 1600 2784 1653 2831 
Q 1747 2913 1869 2961 
Q 1991 3009 2122 3009 
Q 2253 3009 2381 2953 
L 2400 2909 
Q 2353 2494 2347 2178 
L 2206 2178 
Q 2134 2328 2039 2397 
Q 1944 2466 1800 2466 
Q 1559 2466 1390 2267 
Q 1222 2069 1222 1672 
L 1222 1350 
Q 1222 1144 1238 597 
Q 1241 403 1253 350 
Q 1266 297 1286 273 
Q 1306 250 1353 234 
Q 1447 206 1859 178 
L 1859 0 
Q 1309 22 922 22 
Q 522 22 147 0 
z
" transform="scale(0.015625)"/>
      <path id="Palatino-Roman-67" d="M 3463 2766 
L 3488 2706 
Q 3366 2522 3328 2453 
L 2747 2453 
Q 2819 2269 2819 2106 
Q 2819 1869 2695 1642 
Q 2572 1416 2334 1255 
Q 2097 1094 1828 1038 
Q 1653 1000 1356 1006 
Q 1153 844 1100 763 
Q 1066 706 1066 641 
Q 1066 566 1111 508 
Q 1156 450 1250 428 
Q 1391 391 1750 391 
L 2425 403 
Q 2778 403 2961 311 
Q 3144 219 3231 30 
Q 3319 -159 3319 -397 
Q 3319 -719 3108 -1051 
Q 2897 -1384 2481 -1576 
Q 2066 -1769 1550 -1769 
Q 1119 -1769 816 -1634 
Q 513 -1500 367 -1275 
Q 222 -1050 222 -803 
Q 222 -666 264 -545 
Q 306 -425 406 -288 
Q 788 -113 953 19 
Q 694 103 620 178 
Q 547 253 547 328 
Q 547 391 641 666 
Q 794 794 1122 1028 
Q 841 1106 689 1211 
Q 538 1316 453 1495 
Q 369 1675 369 1891 
Q 369 2209 531 2461 
Q 694 2713 1078 2870 
Q 1463 3028 1791 3028 
Q 2003 3028 2195 2959 
Q 2388 2891 2559 2753 
Q 3147 2756 3463 2766 
z
M 906 2063 
Q 906 1841 989 1631 
Q 1072 1422 1233 1315 
Q 1394 1209 1600 1209 
Q 1869 1209 2075 1382 
Q 2281 1556 2281 1941 
Q 2281 2334 2075 2567 
Q 1869 2800 1578 2800 
Q 1275 2800 1090 2608 
Q 906 2416 906 2063 
z
M 1822 -34 
Q 1356 -34 1238 -47 
Q 1178 -56 1103 -109 
Q 856 -284 841 -303 
Q 809 -334 772 -431 
Q 706 -606 706 -784 
Q 706 -1113 961 -1339 
Q 1216 -1566 1663 -1566 
Q 1994 -1566 2267 -1433 
Q 2541 -1300 2680 -1070 
Q 2819 -841 2819 -609 
Q 2809 -409 2757 -306 
Q 2706 -203 2632 -143 
Q 2559 -84 2431 -47 
Q 2356 -38 1822 -34 
z
" transform="scale(0.015625)"/>
      <path id="Palatino-Roman-29" d="M 506 -1063 
L 378 -903 
Q 878 -363 1123 315 
Q 1369 994 1369 1881 
Q 1369 2844 1139 3497 
Q 909 4150 378 4797 
L 531 4931 
Q 1197 4369 1556 3594 
Q 1916 2819 1916 1900 
Q 1916 1366 1798 925 
Q 1681 484 1484 125 
Q 1288 -234 1019 -557 
Q 750 -881 506 -1063 
z
" transform="scale(0.015625)"/>
     </defs>
     <use xlink:href="#Palatino-Roman-4f"/>
     <use xlink:href="#Palatino-Roman-75" x="78.613281"/>
     <use xlink:href="#Palatino-Roman-74" x="138.916016"/>
     <use xlink:href="#Palatino-Roman-70" x="171.533203"/>
     <use xlink:href="#Palatino-Roman-75" x="231.640625"/>
     <use xlink:href="#Palatino-Roman-74" x="291.943359"/>
     <use xlink:href="#Palatino-Roman-20" x="324.560547"/>
     <use xlink:href="#Palatino-Roman-28" x="349.560547"/>
     <use xlink:href="#Palatino-Roman-75" x="382.861328"/>
     <use xlink:href="#Palatino-Roman-6e" x="443.164062"/>
     <use xlink:href="#Palatino-Roman-74" x="501.367188"/>
     <use xlink:href="#Palatino-Roman-61" x="533.984375"/>
     <use xlink:href="#Palatino-Roman-72" x="583.984375"/>
     <use xlink:href="#Palatino-Roman-67" x="621.736328"/>
     <use xlink:href="#Palatino-Roman-65" x="677.351562"/>
     <use xlink:href="#Palatino-Roman-74" x="725.251953"/>
     <use xlink:href="#Palatino-Roman-65" x="757.869141"/>
     <use xlink:href="#Palatino-Roman-64" x="805.769531"/>
     <use xlink:href="#Palatino-Roman-29" x="866.853516"/>
    </g>
   </g>
  </g>
 </g>
 <defs>
  <clipPath id="pc1b96f26e3">
   <rect x="54" y="34.56" width="334.8" height="217.44"/>
  </clipPath>
 </defs>
</svg>
