<?xml version="1.0" encoding="utf-8" standalone="no"?>
<!DOCTYPE svg PUBLIC "-//W3C//DTD SVG 1.1//EN"
  "http://www.w3.org/Graphics/SVG/1.1/DTD/svg11.dtd">
<svg xmlns:xlink="http://www.w3.org/1999/xlink" width="432pt" height="288pt" viewBox="0 0 432 288" xmlns="http://www.w3.org/2000/svg" version="1.1">
 <metadata>
  <rdf:RDF xmlns:dc="http://purl.org/dc/elements/1.1/" xmlns:cc="http://creativecommons.org/ns#" xmlns:rdf="http://www.w3.org/1999/02/22-rdf-syntax-ns#">
   <cc:Work>
    <dc:type rdf:resource="http://purl.org/dc/dcmitype/StillImage"/>
    <dc:date>2024-10-11T01:25:02.665037</dc:date>
    <dc:format>image/svg+xml</dc:format>
    <dc:creator>
     <cc:Agent>
      <dc:title>Matplotlib v3.6.2, https://matplotlib.org/</dc:title>
     </cc:Agent>
    </dc:creator>
   </cc:Work>
  </rdf:RDF>
 </metadata>
 <defs>
  <style type="text/css">*{stroke-linejoin: round; stroke-linecap: butt}</style>
 </defs>
 <g id="figure_1">
  <g id="patch_1">
   <path d="M 0 288 
L 432 288 
L 432 0 
L 0 0 
z
" style="fill: #ffffff"/>
  </g>
  <g id="axes_1">
   <g id="patch_2">
    <path d="M 54 252 
L 388.8 252 
L 388.8 34.56 
L 54 34.56 
z
" style="fill: #ffffff"/>
   </g>
   <g id="matplotlib.axis_1">
    <g id="xtick_1">
     <g id="line2d_1">
      <defs>
       <path id="mffa93527a8" d="M 0 0 
L 0 3.5 
" style="stroke: #000000; stroke-width: 0.8"/>
      </defs>
      <g>
       <use xlink:href="#mffa93527a8" x="69.218182" y="252" style="stroke: #000000; stroke-width: 0.8"/>
      </g>
     </g>
     <g id="text_1">
      <!-- 2020Q1 -->
      <g transform="translate(46.215526 269.185) scale(0.14 -0.14)">
       <defs>
        <path id="Palatino-Roman-32" d="M 106 0 
L 106 175 
Q 203 297 456 556 
L 1153 1281 
Q 1234 1366 1550 1722 
Q 1788 1994 1922 2217 
Q 2056 2441 2118 2652 
Q 2181 2863 2181 3053 
Q 2181 3378 2000 3616 
Q 1766 3931 1319 3931 
Q 1069 3931 881 3850 
Q 694 3769 630 3670 
Q 566 3572 441 3106 
L 253 3106 
Q 328 3525 359 3969 
Q 556 4156 689 4237 
Q 822 4319 1015 4367 
Q 1209 4416 1438 4416 
Q 1847 4416 2128 4277 
Q 2409 4138 2578 3863 
Q 2747 3588 2747 3241 
Q 2747 2866 2555 2502 
Q 2363 2138 1756 1534 
L 1222 1003 
Q 931 713 781 541 
L 2153 541 
Q 2566 541 2963 581 
L 2984 556 
Q 2966 438 2966 278 
Q 2966 134 2984 34 
L 2963 0 
Q 2741 13 2456 19 
Q 1819 31 1603 31 
Q 1331 31 688 19 
Q 334 13 106 0 
z
" transform="scale(0.015625)"/>
        <path id="Palatino-Roman-30" d="M 194 1934 
Q 194 2825 322 3309 
Q 450 3794 787 4109 
Q 1125 4425 1644 4425 
Q 1906 4425 2129 4336 
Q 2353 4247 2495 4111 
Q 2638 3975 2736 3776 
Q 2834 3578 2875 3378 
Q 2969 2922 2969 2384 
Q 2969 1684 2859 1184 
Q 2797 900 2681 664 
Q 2566 428 2406 262 
Q 2247 97 2022 -1 
Q 1797 -100 1516 -100 
Q 1175 -100 931 44 
Q 688 188 544 413 
Q 344 734 269 1148 
Q 194 1563 194 1934 
z
M 731 2116 
Q 731 1666 790 1233 
Q 850 800 978 531 
Q 1066 350 1234 234 
Q 1403 119 1613 119 
Q 1969 119 2159 416 
Q 2434 841 2434 2106 
Q 2434 2650 2376 3083 
Q 2319 3516 2184 3794 
Q 2097 3972 1939 4086 
Q 1781 4200 1559 4200 
Q 1316 4200 1123 4044 
Q 931 3888 831 3477 
Q 731 3066 731 2116 
z
" transform="scale(0.015625)"/>
        <path id="Palatino-Roman-51" d="M 1691 -800 
L 1691 -597 
Q 2203 -197 2503 -91 
Q 1713 -91 1225 168 
Q 738 428 444 984 
Q 150 1541 150 2225 
Q 150 3231 815 3879 
Q 1481 4528 2566 4528 
Q 3106 4528 3534 4375 
Q 3963 4222 4245 3955 
Q 4528 3688 4678 3366 
Q 4881 2931 4881 2369 
Q 4881 1700 4601 1161 
Q 4322 622 3784 290 
Q 3247 -41 2572 -91 
Q 2741 -119 2875 -158 
Q 3009 -197 3263 -300 
Q 3831 -528 4092 -595 
Q 4353 -663 4541 -663 
Q 4666 -663 4872 -597 
L 4872 -756 
Q 4809 -803 4722 -850 
Q 4556 -944 4492 -989 
Q 4428 -1034 4366 -1094 
Q 4322 -1094 4162 -1072 
Q 4003 -1050 3836 -1004 
Q 3669 -959 3247 -813 
Q 2450 -541 2269 -541 
Q 2206 -541 2137 -562 
Q 2069 -584 1981 -631 
L 1691 -800 
z
M 800 2384 
Q 800 2078 883 1722 
Q 966 1366 1108 1097 
Q 1250 828 1459 625 
Q 1669 422 1944 306 
Q 2219 191 2588 191 
Q 3091 191 3466 422 
Q 3841 653 4031 1109 
Q 4222 1566 4222 2150 
Q 4222 2631 4092 3040 
Q 3963 3450 3741 3711 
Q 3519 3972 3181 4117 
Q 2844 4263 2431 4263 
Q 1678 4263 1239 3791 
Q 800 3319 800 2384 
z
" transform="scale(0.015625)"/>
        <path id="Palatino-Roman-31" d="M 478 3559 
L 422 3575 
L 391 3831 
L 422 3863 
Q 756 3959 1150 4128 
Q 1731 4375 1897 4459 
L 1978 4428 
Q 1928 2997 1928 2784 
L 1928 1625 
Q 1928 931 1944 575 
Q 1953 366 1995 311 
Q 2038 256 2120 232 
Q 2203 209 2663 191 
L 2663 0 
Q 1872 25 1672 25 
Q 1522 25 613 0 
L 613 191 
Q 1088 219 1161 236 
Q 1234 253 1270 287 
Q 1306 322 1322 384 
Q 1347 481 1365 942 
Q 1384 1403 1384 1641 
L 1384 2872 
Q 1384 3625 1381 3816 
Q 1381 3900 1359 3922 
Q 1347 3934 1325 3934 
Q 1297 3934 1181 3884 
Q 650 3647 478 3559 
z
" transform="scale(0.015625)"/>
       </defs>
       <use xlink:href="#Palatino-Roman-32"/>
       <use xlink:href="#Palatino-Roman-30" x="50"/>
       <use xlink:href="#Palatino-Roman-32" x="100"/>
       <use xlink:href="#Palatino-Roman-30" x="150"/>
       <use xlink:href="#Palatino-Roman-51" x="200"/>
       <use xlink:href="#Palatino-Roman-31" x="278.613281"/>
      </g>
     </g>
    </g>
    <g id="xtick_2">
     <g id="line2d_2">
      <g>
       <use xlink:href="#mffa93527a8" x="158.736898" y="252" style="stroke: #000000; stroke-width: 0.8"/>
      </g>
     </g>
     <g id="text_2">
      <!-- 2021Q2 -->
      <g transform="translate(135.734242 269.185) scale(0.14 -0.14)">
       <use xlink:href="#Palatino-Roman-32"/>
       <use xlink:href="#Palatino-Roman-30" x="50"/>
       <use xlink:href="#Palatino-Roman-32" x="100"/>
       <use xlink:href="#Palatino-Roman-31" x="150"/>
       <use xlink:href="#Palatino-Roman-51" x="200"/>
       <use xlink:href="#Palatino-Roman-32" x="278.613281"/>
      </g>
     </g>
    </g>
    <g id="xtick_3">
     <g id="line2d_3">
      <g>
       <use xlink:href="#mffa93527a8" x="248.255615" y="252" style="stroke: #000000; stroke-width: 0.8"/>
      </g>
     </g>
     <g id="text_3">
      <!-- 2022Q3 -->
      <g transform="translate(225.252959 269.185) scale(0.14 -0.14)">
       <defs>
        <path id="Palatino-Roman-33" d="M 325 97 
Q 281 363 247 506 
Q 225 597 106 1022 
L 278 1088 
Q 475 563 729 377 
Q 984 191 1394 191 
Q 1694 191 1898 309 
Q 2103 428 2231 687 
Q 2359 947 2359 1272 
Q 2359 1706 2137 1939 
Q 1916 2172 1541 2172 
Q 1416 2172 1308 2147 
Q 1200 2122 988 2034 
L 950 2066 
L 1019 2406 
Q 1269 2391 1353 2391 
Q 1734 2391 1942 2658 
Q 2150 2925 2150 3263 
Q 2150 3566 1929 3778 
Q 1709 3991 1372 3991 
Q 1169 3991 981 3909 
Q 794 3828 650 3691 
Q 594 3572 472 3244 
L 278 3244 
L 472 3994 
Q 681 4213 866 4300 
Q 1169 4438 1528 4438 
Q 2056 4438 2364 4159 
Q 2672 3881 2672 3484 
Q 2672 3216 2512 2955 
Q 2353 2694 1972 2422 
Q 2325 2375 2529 2261 
Q 2734 2147 2843 1939 
Q 2953 1731 2953 1475 
Q 2953 1103 2718 743 
Q 2484 384 2059 150 
Q 1634 -84 1138 -84 
Q 919 -84 737 -43 
Q 556 -3 325 97 
z
" transform="scale(0.015625)"/>
       </defs>
       <use xlink:href="#Palatino-Roman-32"/>
       <use xlink:href="#Palatino-Roman-30" x="50"/>
       <use xlink:href="#Palatino-Roman-32" x="100"/>
       <use xlink:href="#Palatino-Roman-32" x="150"/>
       <use xlink:href="#Palatino-Roman-51" x="200"/>
       <use xlink:href="#Palatino-Roman-33" x="278.613281"/>
      </g>
     </g>
    </g>
    <g id="xtick_4">
     <g id="line2d_4">
      <g>
       <use xlink:href="#mffa93527a8" x="337.774332" y="252" style="stroke: #000000; stroke-width: 0.8"/>
      </g>
     </g>
     <g id="text_4">
      <!-- 2023Q4 -->
      <g transform="translate(314.771675 269.185) scale(0.14 -0.14)">
       <defs>
        <path id="Palatino-Roman-34" d="M 1003 0 
L 1003 184 
Q 1491 194 1575 211 
Q 1659 228 1694 266 
Q 1738 319 1756 456 
Q 1784 688 1784 934 
L 1784 1166 
L 1100 1166 
Q 534 1166 91 1147 
L 38 1316 
Q 278 1769 681 2425 
Q 1269 3381 1853 4266 
Q 1888 4281 2022 4338 
Q 2259 4431 2294 4444 
L 2372 4406 
Q 2350 4031 2344 3481 
Q 2328 2322 2328 2209 
L 2328 1563 
Q 2753 1566 3025 1584 
Q 3016 1428 3016 1378 
L 3025 1147 
Q 2706 1166 2488 1166 
L 2328 1166 
L 2328 956 
Q 2328 431 2375 316 
Q 2394 269 2450 241 
Q 2569 188 3025 184 
L 3025 0 
Q 2350 25 1988 25 
Q 1597 25 1003 0 
z
M 450 1563 
L 1784 1563 
L 1813 3784 
Q 1472 3294 1042 2584 
Q 613 1875 450 1563 
z
" transform="scale(0.015625)"/>
       </defs>
       <use xlink:href="#Palatino-Roman-32"/>
       <use xlink:href="#Palatino-Roman-30" x="50"/>
       <use xlink:href="#Palatino-Roman-32" x="100"/>
       <use xlink:href="#Palatino-Roman-33" x="150"/>
       <use xlink:href="#Palatino-Roman-51" x="200"/>
       <use xlink:href="#Palatino-Roman-34" x="278.613281"/>
      </g>
     </g>
    </g>
   </g>
   <g id="matplotlib.axis_2">
    <g id="ytick_1">
     <g id="line2d_5">
      <defs>
       <path id="m7715efb8b8" d="M 0 0 
L -3.5 0 
" style="stroke: #000000; stroke-width: 0.8"/>
      </defs>
      <g>
       <use xlink:href="#m7715efb8b8" x="54" y="235.180479" style="stroke: #000000; stroke-width: 0.8"/>
      </g>
     </g>
     <g id="text_5">
      <!-- 0 -->
      <g transform="translate(40 240.272979) scale(0.14 -0.14)">
       <use xlink:href="#Palatino-Roman-30"/>
      </g>
     </g>
    </g>
    <g id="ytick_2">
     <g id="line2d_6">
      <g>
       <use xlink:href="#m7715efb8b8" x="54" y="193.565169" style="stroke: #000000; stroke-width: 0.8"/>
      </g>
     </g>
     <g id="text_6">
      <!-- 2 -->
      <g transform="translate(40 198.657669) scale(0.14 -0.14)">
       <use xlink:href="#Palatino-Roman-32"/>
      </g>
     </g>
    </g>
    <g id="ytick_3">
     <g id="line2d_7">
      <g>
       <use xlink:href="#m7715efb8b8" x="54" y="151.94986" style="stroke: #000000; stroke-width: 0.8"/>
      </g>
     </g>
     <g id="text_7">
      <!-- 4 -->
      <g transform="translate(40 157.04236) scale(0.14 -0.14)">
       <use xlink:href="#Palatino-Roman-34"/>
      </g>
     </g>
    </g>
    <g id="ytick_4">
     <g id="line2d_8">
      <g>
       <use xlink:href="#m7715efb8b8" x="54" y="110.33455" style="stroke: #000000; stroke-width: 0.8"/>
      </g>
     </g>
     <g id="text_8">
      <!-- 6 -->
      <g transform="translate(40 115.42705) scale(0.14 -0.14)">
       <defs>
        <path id="Palatino-Roman-36" d="M 2700 4347 
L 2700 4309 
Q 2353 4231 1975 4000 
Q 1597 3769 1356 3473 
Q 1116 3178 998 2867 
Q 881 2556 847 2153 
Q 1028 2281 1116 2347 
Q 1341 2522 1405 2556 
Q 1469 2591 1580 2617 
Q 1691 2644 1847 2644 
Q 2391 2644 2687 2334 
Q 2984 2025 2984 1438 
Q 2984 1038 2838 741 
Q 2688 438 2511 281 
Q 2334 125 2104 17 
Q 1875 -91 1541 -91 
Q 969 -91 594 342 
Q 219 775 219 1603 
Q 219 2172 395 2653 
Q 572 3134 878 3481 
Q 1184 3828 1607 4089 
Q 2031 4350 2472 4456 
L 2700 4347 
z
M 788 1366 
Q 788 1119 844 875 
Q 878 731 939 593 
Q 1000 456 1098 347 
Q 1197 238 1333 178 
Q 1469 119 1628 119 
Q 1844 119 2030 236 
Q 2216 353 2330 617 
Q 2444 881 2444 1222 
Q 2444 1550 2333 1795 
Q 2222 2041 2026 2156 
Q 1831 2272 1613 2272 
Q 1338 2272 1075 2088 
Q 888 1956 838 1811 
Q 788 1666 788 1366 
z
" transform="scale(0.015625)"/>
       </defs>
       <use xlink:href="#Palatino-Roman-36"/>
      </g>
     </g>
    </g>
    <g id="ytick_5">
     <g id="line2d_9">
      <g>
       <use xlink:href="#m7715efb8b8" x="54" y="68.719241" style="stroke: #000000; stroke-width: 0.8"/>
      </g>
     </g>
     <g id="text_9">
      <!-- 8 -->
      <g transform="translate(40 73.811741) scale(0.14 -0.14)">
       <defs>
        <path id="Palatino-Roman-38" d="M 1050 2241 
Q 666 2444 505 2689 
Q 344 2934 344 3250 
Q 344 3734 703 4070 
Q 1063 4406 1650 4406 
Q 1988 4406 2252 4290 
Q 2516 4175 2650 3962 
Q 2784 3750 2784 3500 
Q 2784 3309 2701 3125 
Q 2619 2941 2434 2766 
Q 2294 2634 2019 2463 
L 2019 2434 
Q 2413 2247 2556 2141 
Q 2750 2000 2856 1797 
Q 2963 1594 2963 1328 
Q 2963 978 2764 636 
Q 2566 294 2208 105 
Q 1850 -84 1444 -84 
Q 1091 -84 798 61 
Q 506 206 353 464 
Q 200 722 200 1038 
Q 200 1416 425 1722 
Q 650 2028 1050 2213 
L 1050 2241 
z
M 1778 2541 
Q 2097 2744 2223 2944 
Q 2350 3144 2350 3416 
Q 2350 3641 2258 3823 
Q 2166 4006 1989 4100 
Q 1813 4194 1588 4194 
Q 1238 4194 1030 3998 
Q 822 3803 822 3488 
Q 822 3178 1006 3003 
Q 1191 2828 1778 2541 
z
M 1303 2128 
Q 947 1909 797 1668 
Q 647 1428 647 1088 
Q 647 800 756 581 
Q 866 363 1080 247 
Q 1294 131 1541 131 
Q 1797 131 2015 250 
Q 2234 369 2348 586 
Q 2463 803 2463 1072 
Q 2463 1303 2366 1462 
Q 2269 1622 2033 1765 
Q 1797 1909 1303 2128 
z
" transform="scale(0.015625)"/>
       </defs>
       <use xlink:href="#Palatino-Roman-38"/>
      </g>
     </g>
    </g>
    <g id="text_10">
     <!-- % points -->
     <g transform="translate(32.143437 170.301094) rotate(-90) scale(0.14 -0.14)">
      <defs>
       <path id="Palatino-Roman-25" d="M 2825 622 
Q 2825 1181 3208 1643 
Q 3591 2106 4094 2106 
Q 4416 2106 4616 1884 
Q 4816 1663 4816 1353 
Q 4816 1106 4753 864 
Q 4691 622 4544 389 
Q 4397 156 4148 -19 
Q 3900 -194 3606 -194 
Q 3241 -194 3033 29 
Q 2825 253 2825 622 
z
M 869 -813 
L 594 -813 
L 3628 4222 
Q 3463 4034 3250 3925 
Q 3038 3816 2834 3816 
Q 2622 3816 2453 3875 
Q 2284 3934 2206 4022 
Q 2275 3884 2275 3697 
Q 2275 3444 2208 3223 
Q 2141 3003 1989 2747 
Q 1838 2491 1600 2341 
Q 1363 2191 1097 2191 
Q 756 2191 542 2411 
Q 328 2631 328 3034 
Q 328 3575 701 4036 
Q 1075 4497 1597 4497 
Q 1766 4497 1917 4420 
Q 2069 4344 2153 4203 
Q 2234 4109 2415 4045 
Q 2597 3981 2819 3981 
Q 3091 3981 3397 4206 
Q 3703 4431 3891 4728 
Q 3922 4719 3956 4711 
Q 3991 4703 4019 4703 
L 4066 4703 
Q 4131 4703 4184 4716 
Q 4116 4634 4052 4537 
Q 3988 4441 3688 3942 
Q 3388 3444 2578 2078 
Q 1769 713 1448 172 
Q 1128 -369 869 -813 
z
M 3428 1309 
Q 3313 1053 3264 859 
Q 3216 666 3216 475 
Q 3216 213 3323 64 
Q 3431 -84 3622 -84 
Q 3828 -84 4011 98 
Q 4194 281 4314 534 
Q 4434 788 4503 1031 
Q 4572 1275 4572 1447 
Q 4572 1688 4459 1827 
Q 4347 1966 4138 1966 
Q 3913 1966 3736 1778 
Q 3559 1591 3428 1309 
z
M 2078 3819 
Q 2078 4063 1967 4230 
Q 1856 4397 1656 4397 
Q 1441 4397 1261 4233 
Q 1081 4069 947 3726 
Q 813 3384 775 3211 
Q 738 3038 738 2850 
Q 738 2584 847 2443 
Q 956 2303 1156 2303 
Q 1356 2303 1512 2440 
Q 1669 2578 1805 2847 
Q 1941 3116 2009 3370 
Q 2078 3625 2078 3819 
z
" transform="scale(0.015625)"/>
       <path id="Palatino-Roman-20" transform="scale(0.015625)"/>
       <path id="Palatino-Roman-70" d="M 113 2572 
L 113 2753 
Q 169 2753 350 2779 
Q 531 2806 753 2870 
Q 975 2934 1088 2994 
Q 1122 3013 1144 3013 
Q 1166 3013 1180 2997 
Q 1194 2981 1194 2944 
Q 1194 2928 1191 2869 
Q 1184 2778 1184 2703 
L 1184 2372 
Q 1713 2863 1844 2925 
Q 2016 3009 2356 3009 
Q 2753 3009 3040 2829 
Q 3328 2650 3458 2364 
Q 3588 2078 3588 1753 
Q 3588 1556 3542 1381 
Q 3497 1206 3426 1051 
Q 3356 897 3270 767 
Q 3184 638 3109 572 
Q 3066 531 2883 384 
Q 2700 238 2492 130 
Q 2284 22 2203 -3 
Q 2025 -59 1825 -59 
Q 1669 -59 1520 -21 
Q 1372 16 1184 106 
L 1184 -391 
Q 1200 -1181 1203 -1263 
Q 1206 -1416 1241 -1488 
Q 1253 -1522 1279 -1542 
Q 1306 -1563 1356 -1572 
Q 1384 -1578 1728 -1584 
L 1728 -1763 
Q 1338 -1747 694 -1747 
Q 338 -1747 147 -1763 
L 147 -1584 
L 444 -1581 
Q 509 -1578 545 -1558 
Q 581 -1538 600 -1506 
Q 634 -1444 644 -1284 
Q 647 -1244 663 -391 
L 663 719 
Q 663 1259 650 1828 
Q 638 2397 623 2448 
Q 609 2500 578 2526 
Q 547 2553 497 2563 
L 113 2572 
z
M 1184 644 
Q 1350 475 1562 378 
Q 1775 281 2009 281 
Q 2294 281 2526 423 
Q 2759 566 2895 866 
Q 3031 1166 3031 1519 
Q 3031 1859 2901 2111 
Q 2772 2363 2534 2489 
Q 2297 2616 2056 2616 
Q 1878 2616 1704 2545 
Q 1531 2475 1390 2340 
Q 1250 2206 1203 2084 
Q 1184 2025 1184 1856 
L 1184 644 
z
" transform="scale(0.015625)"/>
       <path id="Palatino-Roman-6f" d="M 213 1438 
Q 213 2138 658 2580 
Q 1103 3022 1800 3022 
Q 2456 3022 2868 2609 
Q 3281 2197 3281 1544 
Q 3281 1088 3068 709 
Q 2856 331 2468 117 
Q 2081 -97 1616 -97 
Q 1253 -97 1001 25 
Q 750 147 594 331 
Q 438 516 356 709 
Q 213 1050 213 1438 
z
M 803 1669 
Q 803 1284 931 887 
Q 1059 491 1301 308 
Q 1544 125 1828 125 
Q 2191 125 2434 412 
Q 2678 700 2678 1297 
Q 2678 1794 2533 2155 
Q 2388 2516 2163 2664 
Q 1938 2813 1666 2813 
Q 1281 2813 1042 2534 
Q 803 2256 803 1669 
z
" transform="scale(0.015625)"/>
       <path id="Palatino-Roman-69" d="M 903 4400 
Q 1050 4400 1151 4297 
Q 1253 4194 1253 4047 
Q 1253 3903 1150 3800 
Q 1047 3697 903 3697 
Q 756 3697 653 3800 
Q 550 3903 550 4047 
Q 550 4194 653 4297 
Q 756 4400 903 4400 
z
M 141 2572 
L 141 2750 
Q 747 2819 1159 3013 
L 1228 2963 
Q 1203 2297 1203 1944 
L 1203 1375 
Q 1219 563 1222 497 
Q 1225 341 1256 269 
Q 1272 241 1297 220 
Q 1322 200 1372 188 
Q 1391 184 1719 178 
L 1719 0 
Q 1244 22 959 22 
Q 709 22 141 0 
L 141 178 
L 438 181 
Q 503 184 539 204 
Q 575 225 594 256 
Q 628 319 638 478 
Q 638 519 656 1375 
L 656 1925 
Q 656 2391 625 2478 
Q 606 2525 557 2548 
Q 509 2572 141 2572 
z
" transform="scale(0.015625)"/>
       <path id="Palatino-Roman-6e" d="M 88 0 
L 88 178 
L 384 181 
Q 450 184 486 204 
Q 522 225 541 256 
Q 575 319 584 478 
Q 584 519 603 1375 
L 603 1747 
Q 603 1997 594 2284 
Q 584 2469 564 2503 
Q 544 2538 494 2555 
Q 444 2572 88 2569 
L 88 2747 
Q 719 2834 1009 2975 
Q 1072 3006 1094 3006 
Q 1116 3006 1128 2990 
Q 1141 2975 1141 2944 
Q 1141 2922 1138 2894 
Q 1128 2781 1119 2419 
L 1700 2916 
Q 1956 3009 2184 3009 
Q 2438 3009 2664 2906 
Q 2891 2803 3005 2647 
Q 3119 2491 3156 2253 
Q 3178 2113 3178 1469 
L 3178 916 
Q 3178 509 3200 363 
Q 3216 269 3248 233 
Q 3281 197 3350 188 
L 3684 178 
L 3684 0 
Q 3378 22 3175 22 
Q 3000 22 2594 0 
Q 2638 772 2638 975 
L 2638 1500 
Q 2638 1991 2600 2144 
Q 2547 2353 2359 2481 
Q 2172 2609 1906 2609 
Q 1672 2609 1478 2498 
Q 1284 2388 1201 2242 
Q 1119 2097 1119 1753 
L 1119 1375 
Q 1138 563 1138 497 
Q 1144 341 1175 269 
Q 1188 241 1213 220 
Q 1238 200 1291 188 
Q 1309 184 1634 178 
L 1634 0 
Q 1253 22 944 22 
Q 681 22 88 0 
z
" transform="scale(0.015625)"/>
       <path id="Palatino-Roman-74" d="M 144 2450 
L 144 2581 
Q 456 2700 641 2794 
Q 641 3538 622 3744 
Q 947 3856 1150 3984 
L 1225 3922 
Q 1191 3663 1150 2778 
Q 1400 2775 1450 2775 
Q 1478 2775 1772 2781 
Q 1934 2784 2016 2794 
L 2038 2772 
L 1972 2481 
Q 1775 2484 1609 2484 
Q 1444 2484 1150 2481 
L 1131 1209 
Q 1122 744 1137 653 
Q 1153 563 1197 495 
Q 1241 428 1311 387 
Q 1381 347 1550 325 
Q 1678 325 1758 336 
Q 1838 347 1959 391 
L 1997 269 
Q 1850 153 1713 28 
Q 1594 -16 1491 -30 
Q 1388 -44 1253 -44 
Q 1088 -44 989 -6 
Q 891 31 809 98 
Q 728 166 675 269 
Q 622 372 606 594 
Q 609 806 619 1059 
Q 622 1109 622 1169 
L 622 2466 
L 494 2466 
Q 338 2466 144 2450 
z
" transform="scale(0.015625)"/>
       <path id="Palatino-Roman-73" d="M 291 944 
L 478 944 
Q 481 763 497 656 
Q 513 550 550 448 
Q 588 347 666 276 
Q 744 206 836 167 
Q 928 128 1023 115 
Q 1119 103 1313 103 
Q 1631 103 1836 272 
Q 2041 441 2041 734 
Q 2041 866 1977 966 
Q 1913 1066 1792 1122 
Q 1672 1178 1275 1268 
Q 878 1359 763 1400 
Q 588 1466 484 1559 
Q 381 1653 320 1797 
Q 259 1941 259 2109 
Q 259 2356 389 2564 
Q 519 2772 797 2901 
Q 1075 3031 1403 3031 
Q 1600 3031 1859 2976 
Q 2119 2922 2281 2841 
Q 2259 2494 2250 2134 
L 2072 2134 
Q 2056 2363 2036 2434 
Q 2016 2506 1981 2562 
Q 1947 2619 1862 2683 
Q 1778 2747 1645 2797 
Q 1513 2847 1319 2847 
Q 1044 2847 876 2684 
Q 709 2522 709 2303 
Q 709 2181 757 2093 
Q 806 2006 887 1951 
Q 969 1897 1116 1853 
L 1634 1725 
Q 2028 1625 2176 1553 
Q 2325 1481 2415 1329 
Q 2506 1178 2506 966 
Q 2506 544 2157 230 
Q 1809 -84 1225 -84 
Q 956 -84 509 -3 
Q 263 44 244 63 
Q 231 72 231 94 
Q 231 116 238 147 
Q 266 281 275 409 
Q 284 538 291 944 
z
" transform="scale(0.015625)"/>
      </defs>
      <use xlink:href="#Palatino-Roman-25"/>
      <use xlink:href="#Palatino-Roman-20" x="83.984375"/>
      <use xlink:href="#Palatino-Roman-70" x="108.984375"/>
      <use xlink:href="#Palatino-Roman-6f" x="169.091797"/>
      <use xlink:href="#Palatino-Roman-69" x="223.681641"/>
      <use xlink:href="#Palatino-Roman-6e" x="252.783203"/>
      <use xlink:href="#Palatino-Roman-74" x="310.986328"/>
      <use xlink:href="#Palatino-Roman-73" x="343.603516"/>
     </g>
    </g>
   </g>
   <g id="line2d_10">
    <path d="M 69.218182 235.180479 
L 87.121925 44.443643 
L 105.025668 131.835793 
L 122.929412 174.83828 
L 140.833155 185.242107 
L 158.736898 191.484404 
L 176.640642 209.517704 
L 194.544385 228.244594 
L 212.448128 235.874067 
L 230.351872 239.34201 
L 248.255615 241.422775 
L 266.159358 240.729187 
L 284.063102 242.116364 
L 301.966845 240.729187 
L 319.870588 237.954833 
L 337.774332 237.261244 
L 355.678075 235.874067 
L 373.581818 235.907192 
" clip-path="url(#p76841347e0)" style="fill: none; stroke: #4b0082; stroke-width: 4; stroke-linecap: square"/>
   </g>
   <g id="line2d_11">
    <path d="M 69.218182 235.180479 
L 87.121925 44.443643 
L 105.025668 131.835793 
L 122.929412 174.83828 
L 140.833155 185.242107 
L 158.736898 191.484404 
L 176.640642 209.517704 
L 194.544385 228.244594 
L 212.448128 235.874067 
L 230.351872 239.34201 
L 248.255615 241.422775 
L 266.159358 240.729187 
L 284.063102 242.116364 
L 301.966845 240.729187 
L 319.870588 237.954833 
L 337.774332 237.261244 
L 355.678075 235.874067 
L 373.581818 235.907192 
" clip-path="url(#p76841347e0)" style="fill: none; stroke-dasharray: 25.6,6.4,4,6.4; stroke-dashoffset: 0; stroke: #ff0000; stroke-width: 4"/>
   </g>
   <g id="line2d_12">
    <path d="M 69.218182 235.180479 
L 87.121925 44.443636 
L 105.025668 131.835786 
L 122.929412 174.83828 
L 140.833155 185.242107 
L 158.736898 191.484404 
L 176.640642 209.517711 
L 194.544385 228.244601 
L 212.448128 235.87406 
L 230.351872 239.34201 
L 248.255615 241.422775 
L 266.159358 240.729194 
L 284.063102 242.116357 
L 301.966845 240.729194 
L 319.870588 237.954826 
L 337.774332 237.261244 
L 355.678075 235.87406 
L 373.581818 235.481066 
" clip-path="url(#p76841347e0)" style="fill: none; stroke-dasharray: 38.4,9.6,6,9.6; stroke-dashoffset: 0; stroke: #ff8c00; stroke-width: 6"/>
   </g>
   <g id="line2d_13">
    <path d="M 69.218182 235.180479 
L 87.121925 44.443643 
L 105.025668 131.835793 
L 122.929412 174.83828 
L 140.833155 185.242107 
L 158.736898 191.484404 
L 176.640642 209.517704 
L 194.544385 228.244594 
L 212.448128 235.874067 
L 230.351872 239.34201 
L 248.255615 241.422775 
L 266.159358 240.729187 
L 284.063102 242.116364 
L 301.966845 240.729187 
L 319.870588 237.954833 
L 337.774332 237.261244 
L 355.678075 235.874067 
" clip-path="url(#p76841347e0)" style="fill: none; stroke-dasharray: 14.8,6.4; stroke-dashoffset: 0; stroke: #000000; stroke-width: 4"/>
   </g>
   <g id="line2d_14">
    <path d="M 69.218182 235.180479 
L 87.121925 235.180479 
L 105.025668 235.180479 
L 122.929412 235.180479 
L 140.833155 235.180479 
L 158.736898 235.180479 
L 176.640642 235.180479 
L 194.544385 235.180479 
L 212.448128 235.180479 
L 230.351872 235.180479 
L 248.255615 235.180479 
L 266.159358 235.180479 
L 284.063102 235.180479 
L 301.966845 235.180479 
L 319.870588 235.180479 
L 337.774332 235.180479 
L 355.678075 235.180479 
L 373.581818 235.180479 
" clip-path="url(#p76841347e0)" style="fill: none; stroke: #000000; stroke-width: 1.5; stroke-linecap: square"/>
   </g>
   <g id="patch_3">
    <path d="M 54 252 
L 54 34.56 
" style="fill: none; stroke: #000000; stroke-width: 0.8; stroke-linejoin: miter; stroke-linecap: square"/>
   </g>
   <g id="patch_4">
    <path d="M 388.8 252 
L 388.8 34.56 
" style="fill: none; stroke: #000000; stroke-width: 0.8; stroke-linejoin: miter; stroke-linecap: square"/>
   </g>
   <g id="patch_5">
    <path d="M 54 252 
L 388.8 252 
" style="fill: none; stroke: #000000; stroke-width: 0.8; stroke-linejoin: miter; stroke-linecap: square"/>
   </g>
   <g id="patch_6">
    <path d="M 54 34.56 
L 388.8 34.56 
" style="fill: none; stroke: #000000; stroke-width: 0.8; stroke-linejoin: miter; stroke-linecap: square"/>
   </g>
   <g id="text_11">
    <!-- Unemployment rate (targeted) -->
    <g transform="translate(86.326562 28.56) scale(0.2 -0.2)">
     <defs>
      <path id="Palatino-Roman-55" d="M 94 4241 
L 94 4441 
Q 603 4416 1041 4416 
Q 1484 4416 1922 4441 
L 1922 4241 
Q 1553 4234 1472 4207 
Q 1391 4181 1363 4134 
Q 1322 4072 1313 3831 
Q 1309 3769 1300 2944 
L 1300 1788 
Q 1300 1116 1386 902 
Q 1472 688 1659 547 
Q 1803 441 2047 377 
Q 2291 313 2591 313 
Q 2941 313 3212 398 
Q 3484 484 3620 607 
Q 3756 731 3823 884 
Q 3891 1038 3920 1305 
Q 3950 1572 3950 1981 
L 3950 2944 
Q 3950 3369 3938 3775 
Q 3931 4072 3895 4126 
Q 3859 4181 3778 4207 
Q 3697 4234 3328 4241 
L 3328 4441 
Q 3844 4416 4081 4416 
Q 4297 4416 4859 4441 
L 4859 4241 
Q 4488 4234 4408 4207 
Q 4328 4181 4297 4134 
Q 4259 4072 4250 3831 
Q 4247 3769 4238 2944 
L 4238 1897 
Q 4238 1125 4130 819 
Q 4022 513 3734 278 
Q 3519 103 3180 6 
Q 2841 -91 2428 -91 
Q 1947 -91 1594 23 
Q 1241 138 1056 323 
Q 872 509 803 703 
Q 716 959 716 1563 
L 716 2944 
Q 716 3369 706 3775 
Q 697 4072 661 4126 
Q 625 4181 545 4207 
Q 466 4234 94 4241 
z
" transform="scale(0.015625)"/>
      <path id="Palatino-Roman-65" d="M 2763 484 
L 2663 259 
Q 2447 125 2347 81 
Q 2200 16 2011 -29 
Q 1822 -75 1613 -75 
Q 1200 -75 865 97 
Q 531 269 345 611 
Q 159 953 159 1413 
Q 159 1772 257 2061 
Q 356 2350 481 2488 
Q 572 2588 762 2717 
Q 953 2847 1141 2922 
Q 1388 3025 1675 3025 
Q 2025 3025 2308 2865 
Q 2591 2706 2722 2431 
Q 2853 2156 2853 1809 
Q 2853 1722 2841 1597 
Q 2616 1553 2438 1541 
Q 2100 1516 1763 1516 
L 759 1516 
Q 766 1069 914 792 
Q 1063 516 1323 384 
Q 1584 253 1866 253 
Q 2056 253 2245 314 
Q 2434 375 2713 538 
L 2763 484 
z
M 759 1763 
Q 847 1753 1091 1744 
Q 1556 1728 1731 1728 
Q 2147 1728 2278 1744 
Q 2281 1819 2281 1859 
Q 2281 2353 2081 2584 
Q 1881 2816 1547 2816 
Q 1194 2816 978 2562 
Q 763 2309 759 1763 
z
" transform="scale(0.015625)"/>
      <path id="Palatino-Roman-6d" d="M 131 0 
L 131 178 
L 428 181 
Q 494 184 530 204 
Q 566 225 584 256 
Q 619 319 628 478 
Q 628 519 647 1375 
L 647 1747 
Q 647 1997 638 2284 
Q 628 2469 608 2503 
Q 588 2538 538 2555 
Q 488 2572 131 2569 
L 131 2747 
Q 763 2834 1053 2975 
Q 1116 3006 1138 3006 
Q 1159 3006 1171 2990 
Q 1184 2975 1184 2944 
Q 1184 2922 1181 2894 
Q 1169 2744 1163 2447 
L 1572 2822 
Q 1650 2891 1669 2900 
Q 1741 2941 1875 2975 
Q 2009 3009 2156 3009 
Q 2456 3009 2690 2862 
Q 2925 2716 3050 2428 
L 3394 2747 
Q 3509 2853 3553 2878 
Q 3634 2925 3784 2965 
Q 3934 3006 4081 3006 
Q 4438 3006 4678 2817 
Q 4919 2628 4988 2388 
Q 5031 2228 5031 1700 
L 5031 1375 
L 5041 941 
Q 5050 563 5050 497 
Q 5056 341 5088 269 
Q 5100 241 5126 220 
Q 5153 200 5203 188 
Q 5222 184 5547 178 
L 5547 0 
Q 5153 19 5009 19 
Q 4872 19 4456 0 
L 4484 863 
L 4494 1200 
L 4494 1469 
Q 4494 1994 4441 2186 
Q 4388 2378 4217 2497 
Q 4047 2616 3822 2616 
Q 3563 2616 3353 2466 
Q 3197 2350 3147 2194 
Q 3097 2038 3097 1584 
L 3097 1375 
L 3106 941 
Q 3113 563 3116 497 
Q 3122 341 3153 269 
Q 3166 241 3191 220 
Q 3216 200 3266 188 
Q 3288 184 3613 178 
L 3613 0 
Q 3153 25 2875 25 
Q 2650 25 2056 0 
L 2056 178 
L 2353 181 
Q 2422 184 2458 204 
Q 2494 225 2513 256 
Q 2547 319 2553 478 
Q 2556 519 2572 1375 
L 2572 1619 
Q 2572 2022 2509 2208 
Q 2447 2394 2290 2505 
Q 2134 2616 1916 2616 
Q 1728 2616 1561 2536 
Q 1394 2456 1303 2337 
Q 1213 2219 1194 2084 
Q 1163 1869 1163 1566 
L 1163 1375 
Q 1181 563 1181 497 
Q 1188 341 1219 269 
Q 1231 241 1256 220 
Q 1281 200 1334 188 
Q 1353 184 1678 178 
L 1678 0 
Q 1247 25 944 25 
Q 675 25 131 0 
z
" transform="scale(0.015625)"/>
      <path id="Palatino-Roman-6c" d="M 159 0 
L 159 178 
L 453 181 
Q 522 184 558 204 
Q 594 225 613 256 
Q 647 319 653 478 
Q 656 519 675 1375 
L 675 2672 
Q 675 3194 656 3750 
Q 644 4125 622 4169 
Q 606 4200 572 4213 
Q 525 4234 141 4234 
L 141 4419 
Q 847 4506 1122 4638 
Q 1163 4656 1184 4656 
Q 1206 4656 1218 4642 
Q 1231 4628 1231 4603 
Q 1231 4581 1225 4541 
L 1222 4438 
Q 1206 3878 1203 3484 
L 1197 2997 
L 1197 1375 
Q 1213 563 1216 497 
Q 1219 341 1253 269 
Q 1266 241 1291 220 
Q 1316 200 1366 188 
Q 1388 184 1713 178 
L 1713 0 
Q 1288 25 966 25 
Q 659 25 159 0 
z
" transform="scale(0.015625)"/>
      <path id="Palatino-Roman-79" d="M 141 -1672 
L 300 -1191 
L 375 -1191 
Q 434 -1241 476 -1270 
Q 519 -1300 567 -1315 
Q 616 -1331 709 -1331 
Q 806 -1331 898 -1289 
Q 991 -1247 1070 -1156 
Q 1150 -1066 1259 -844 
Q 1425 -509 1556 -163 
Q 1456 119 1316 469 
L 819 1700 
Q 597 2250 456 2544 
Q 400 2659 336 2698 
Q 272 2738 50 2763 
L 50 2938 
Q 438 2916 816 2916 
Q 1184 2916 1525 2938 
L 1525 2763 
Q 1203 2741 1156 2722 
Q 1075 2691 1075 2609 
Q 1075 2559 1128 2403 
Q 1250 2019 1359 1747 
L 1556 1259 
Q 1734 822 1856 550 
L 2022 919 
Q 2119 1138 2362 1750 
Q 2606 2363 2647 2506 
Q 2659 2556 2659 2594 
Q 2659 2653 2611 2686 
Q 2563 2719 2234 2750 
L 2234 2938 
Q 2597 2916 2875 2916 
Q 3156 2916 3431 2938 
L 3400 2750 
Q 3241 2744 3153 2681 
Q 3066 2619 2889 2261 
Q 2713 1903 2234 853 
L 1513 -834 
Q 1338 -1244 1209 -1419 
Q 1081 -1594 903 -1684 
Q 725 -1775 513 -1775 
Q 409 -1775 326 -1751 
Q 244 -1728 141 -1672 
z
" transform="scale(0.015625)"/>
      <path id="Palatino-Roman-72" d="M 147 0 
L 147 178 
Q 500 184 528 191 
Q 581 200 607 220 
Q 634 241 650 278 
Q 681 350 688 503 
Q 706 1338 706 1375 
L 706 1747 
Q 706 1997 697 2284 
Q 691 2469 670 2503 
Q 650 2538 598 2555 
Q 547 2572 191 2569 
L 191 2747 
Q 822 2834 1113 2975 
Q 1175 3006 1197 3006 
Q 1219 3006 1231 2990 
Q 1244 2975 1244 2944 
Q 1244 2922 1241 2894 
Q 1225 2703 1222 2303 
Q 1363 2466 1481 2625 
Q 1600 2784 1653 2831 
Q 1747 2913 1869 2961 
Q 1991 3009 2122 3009 
Q 2253 3009 2381 2953 
L 2400 2909 
Q 2353 2494 2347 2178 
L 2206 2178 
Q 2134 2328 2039 2397 
Q 1944 2466 1800 2466 
Q 1559 2466 1390 2267 
Q 1222 2069 1222 1672 
L 1222 1350 
Q 1222 1144 1238 597 
Q 1241 403 1253 350 
Q 1266 297 1286 273 
Q 1306 250 1353 234 
Q 1447 206 1859 178 
L 1859 0 
Q 1309 22 922 22 
Q 522 22 147 0 
z
" transform="scale(0.015625)"/>
      <path id="Palatino-Roman-61" d="M 678 2141 
L 513 2184 
Q 516 2256 516 2381 
Q 516 2513 513 2591 
Q 909 2850 1163 2941 
Q 1356 3006 1597 3006 
Q 1953 3006 2197 2872 
Q 2441 2738 2559 2488 
Q 2641 2313 2641 2009 
L 2628 1438 
L 2628 506 
Q 2628 356 2653 291 
Q 2672 244 2713 222 
Q 2744 203 2844 197 
L 3047 178 
L 3047 0 
Q 2791 22 2597 22 
Q 2409 22 2097 0 
L 2113 550 
Q 1475 69 1356 8 
Q 1238 -53 1056 -53 
Q 678 -53 467 148 
Q 256 350 256 684 
Q 256 900 329 1078 
Q 403 1256 506 1361 
Q 609 1466 716 1516 
Q 897 1600 1305 1697 
Q 1713 1794 2113 1841 
Q 2116 2138 2041 2303 
Q 1966 2469 1787 2575 
Q 1609 2681 1353 2681 
Q 1169 2681 1030 2631 
Q 891 2581 859 2547 
L 803 2434 
Q 719 2247 678 2141 
z
M 2113 1650 
Q 1706 1581 1418 1497 
Q 1131 1413 1013 1322 
Q 941 1269 888 1163 
Q 806 1006 806 816 
Q 806 584 934 454 
Q 1063 325 1291 325 
Q 1500 325 1704 445 
Q 1909 566 2113 806 
L 2113 1650 
z
" transform="scale(0.015625)"/>
      <path id="Palatino-Roman-28" d="M 1763 -1063 
Q 1097 -500 737 275 
Q 378 1050 378 1969 
Q 378 2506 495 2947 
Q 613 3388 809 3745 
Q 1006 4103 1275 4428 
Q 1544 4753 1791 4931 
L 1916 4772 
Q 1416 4231 1170 3554 
Q 925 2878 925 1991 
Q 925 1028 1154 375 
Q 1384 -278 1916 -925 
L 1763 -1063 
z
" transform="scale(0.015625)"/>
      <path id="Palatino-Roman-67" d="M 3463 2766 
L 3488 2706 
Q 3366 2522 3328 2453 
L 2747 2453 
Q 2819 2269 2819 2106 
Q 2819 1869 2695 1642 
Q 2572 1416 2334 1255 
Q 2097 1094 1828 1038 
Q 1653 1000 1356 1006 
Q 1153 844 1100 763 
Q 1066 706 1066 641 
Q 1066 566 1111 508 
Q 1156 450 1250 428 
Q 1391 391 1750 391 
L 2425 403 
Q 2778 403 2961 311 
Q 3144 219 3231 30 
Q 3319 -159 3319 -397 
Q 3319 -719 3108 -1051 
Q 2897 -1384 2481 -1576 
Q 2066 -1769 1550 -1769 
Q 1119 -1769 816 -1634 
Q 513 -1500 367 -1275 
Q 222 -1050 222 -803 
Q 222 -666 264 -545 
Q 306 -425 406 -288 
Q 788 -113 953 19 
Q 694 103 620 178 
Q 547 253 547 328 
Q 547 391 641 666 
Q 794 794 1122 1028 
Q 841 1106 689 1211 
Q 538 1316 453 1495 
Q 369 1675 369 1891 
Q 369 2209 531 2461 
Q 694 2713 1078 2870 
Q 1463 3028 1791 3028 
Q 2003 3028 2195 2959 
Q 2388 2891 2559 2753 
Q 3147 2756 3463 2766 
z
M 906 2063 
Q 906 1841 989 1631 
Q 1072 1422 1233 1315 
Q 1394 1209 1600 1209 
Q 1869 1209 2075 1382 
Q 2281 1556 2281 1941 
Q 2281 2334 2075 2567 
Q 1869 2800 1578 2800 
Q 1275 2800 1090 2608 
Q 906 2416 906 2063 
z
M 1822 -34 
Q 1356 -34 1238 -47 
Q 1178 -56 1103 -109 
Q 856 -284 841 -303 
Q 809 -334 772 -431 
Q 706 -606 706 -784 
Q 706 -1113 961 -1339 
Q 1216 -1566 1663 -1566 
Q 1994 -1566 2267 -1433 
Q 2541 -1300 2680 -1070 
Q 2819 -841 2819 -609 
Q 2809 -409 2757 -306 
Q 2706 -203 2632 -143 
Q 2559 -84 2431 -47 
Q 2356 -38 1822 -34 
z
" transform="scale(0.015625)"/>
      <path id="Palatino-Roman-64" d="M 2122 4244 
L 2122 4422 
Q 2469 4459 2708 4511 
Q 2947 4563 3175 4638 
L 3216 4609 
Q 3203 4344 3188 3584 
L 3175 3084 
L 3175 1128 
Q 3175 809 3186 576 
Q 3197 344 3225 298 
Q 3253 253 3318 225 
Q 3384 197 3709 169 
L 3709 0 
Q 3328 22 3172 22 
Q 3038 22 2622 0 
Q 2631 216 2638 581 
Q 2513 491 2302 309 
Q 2091 128 1972 13 
Q 1722 -50 1531 -50 
Q 1178 -50 881 125 
Q 584 300 423 633 
Q 263 966 263 1381 
Q 263 1694 361 1973 
Q 459 2253 609 2406 
Q 694 2494 994 2672 
Q 1294 2850 1480 2929 
Q 1666 3009 1884 3009 
Q 2081 3009 2270 2961 
Q 2459 2913 2638 2813 
L 2638 3634 
Q 2638 4069 2600 4163 
Q 2588 4197 2553 4213 
Q 2491 4241 2122 4244 
z
M 2638 2278 
Q 2425 2513 2192 2620 
Q 1959 2728 1734 2728 
Q 1478 2728 1262 2597 
Q 1047 2466 933 2200 
Q 819 1934 819 1563 
Q 819 991 1103 669 
Q 1388 347 1788 347 
Q 1997 347 2162 434 
Q 2328 522 2453 690 
Q 2578 859 2613 1066 
Q 2638 1203 2638 1744 
L 2638 2278 
z
" transform="scale(0.015625)"/>
      <path id="Palatino-Roman-29" d="M 506 -1063 
L 378 -903 
Q 878 -363 1123 315 
Q 1369 994 1369 1881 
Q 1369 2844 1139 3497 
Q 909 4150 378 4797 
L 531 4931 
Q 1197 4369 1556 3594 
Q 1916 2819 1916 1900 
Q 1916 1366 1798 925 
Q 1681 484 1484 125 
Q 1288 -234 1019 -557 
Q 750 -881 506 -1063 
z
" transform="scale(0.015625)"/>
     </defs>
     <use xlink:href="#Palatino-Roman-55"/>
     <use xlink:href="#Palatino-Roman-6e" x="77.783203"/>
     <use xlink:href="#Palatino-Roman-65" x="135.986328"/>
     <use xlink:href="#Palatino-Roman-6d" x="183.886719"/>
     <use xlink:href="#Palatino-Roman-70" x="272.167969"/>
     <use xlink:href="#Palatino-Roman-6c" x="332.275391"/>
     <use xlink:href="#Palatino-Roman-6f" x="361.376953"/>
     <use xlink:href="#Palatino-Roman-79" x="415.966797"/>
     <use xlink:href="#Palatino-Roman-6d" x="471.582031"/>
     <use xlink:href="#Palatino-Roman-65" x="559.863281"/>
     <use xlink:href="#Palatino-Roman-6e" x="607.763672"/>
     <use xlink:href="#Palatino-Roman-74" x="665.966797"/>
     <use xlink:href="#Palatino-Roman-20" x="698.583984"/>
     <use xlink:href="#Palatino-Roman-72" x="723.583984"/>
     <use xlink:href="#Palatino-Roman-61" x="763.085938"/>
     <use xlink:href="#Palatino-Roman-74" x="813.085938"/>
     <use xlink:href="#Palatino-Roman-65" x="845.703125"/>
     <use xlink:href="#Palatino-Roman-20" x="893.603516"/>
     <use xlink:href="#Palatino-Roman-28" x="918.603516"/>
     <use xlink:href="#Palatino-Roman-74" x="951.904297"/>
     <use xlink:href="#Palatino-Roman-61" x="984.521484"/>
     <use xlink:href="#Palatino-Roman-72" x="1034.521484"/>
     <use xlink:href="#Palatino-Roman-67" x="1072.273438"/>
     <use xlink:href="#Palatino-Roman-65" x="1127.888672"/>
     <use xlink:href="#Palatino-Roman-74" x="1175.789062"/>
     <use xlink:href="#Palatino-Roman-65" x="1208.40625"/>
     <use xlink:href="#Palatino-Roman-64" x="1256.306641"/>
     <use xlink:href="#Palatino-Roman-29" x="1317.390625"/>
    </g>
   </g>
   <g id="legend_1">
    <g id="patch_7">
     <path d="M 120.721719 125.44625 
L 379.7 125.44625 
Q 382.3 125.44625 382.3 122.84625 
L 382.3 43.66 
Q 382.3 41.06 379.7 41.06 
L 120.721719 41.06 
Q 118.121719 41.06 118.121719 43.66 
L 118.121719 122.84625 
Q 118.121719 125.44625 120.721719 125.44625 
z
" style="fill: #ffffff; opacity: 0.8; stroke: #cccccc; stroke-linejoin: miter"/>
    </g>
    <g id="line2d_15">
     <path d="M 123.321719 51.726094 
L 136.321719 51.726094 
L 149.321719 51.726094 
" style="fill: none; stroke: #4b0082; stroke-width: 4; stroke-linecap: square"/>
    </g>
    <g id="text_12">
     <!-- HANK + Scarring (79% temp. layoffs) -->
     <g transform="translate(159.721719 56.276094) scale(0.13 -0.13)">
      <defs>
       <path id="Palatino-Roman-48" d="M 153 4241 
L 153 4441 
L 1109 4422 
L 1991 4441 
L 1991 4241 
Q 1619 4234 1539 4207 
Q 1459 4181 1428 4134 
Q 1391 4072 1381 3831 
Q 1378 3769 1369 2944 
L 1369 2509 
Q 1984 2488 2869 2488 
Q 3547 2488 3953 2509 
L 3953 2944 
Q 3953 3369 3941 3775 
Q 3931 4072 3895 4126 
Q 3859 4181 3779 4207 
Q 3700 4234 3328 4241 
L 3328 4441 
Q 4000 4422 4250 4422 
Q 4344 4422 5163 4441 
L 5163 4241 
Q 4794 4234 4712 4207 
Q 4631 4181 4603 4134 
Q 4563 4072 4553 3831 
Q 4550 3769 4541 2944 
L 4541 1497 
Q 4541 1072 4553 669 
Q 4559 372 4595 315 
Q 4631 259 4712 232 
Q 4794 206 5163 200 
L 5163 0 
Q 4559 25 4175 25 
Q 3766 25 3328 0 
L 3328 200 
Q 3700 206 3779 232 
Q 3859 259 3891 306 
Q 3931 369 3938 609 
Q 3941 675 3953 1497 
L 3953 2209 
Q 3078 2228 2625 2228 
Q 2131 2228 1369 2209 
L 1369 1497 
Q 1369 1072 1378 669 
Q 1388 372 1423 315 
Q 1459 259 1539 232 
Q 1619 206 1991 200 
L 1991 0 
Q 1569 28 1122 28 
Q 634 28 153 0 
L 153 200 
Q 522 206 603 232 
Q 684 259 716 306 
Q 753 369 763 609 
Q 766 675 775 1497 
L 775 2944 
Q 775 3369 766 3775 
Q 756 4072 720 4126 
Q 684 4181 604 4207 
Q 525 4234 153 4241 
z
" transform="scale(0.015625)"/>
       <path id="Palatino-Roman-41" d="M 109 0 
L 109 213 
Q 356 216 417 233 
Q 478 250 529 298 
Q 581 347 678 550 
Q 734 666 1084 1428 
L 1866 3191 
Q 1994 3481 2413 4484 
L 2616 4484 
L 3950 1350 
Q 4275 588 4381 394 
Q 4441 284 4511 250 
Q 4581 216 4828 213 
L 4828 0 
Q 4341 31 4147 31 
L 3141 0 
L 3141 213 
Q 3491 219 3566 234 
Q 3641 250 3667 279 
Q 3694 309 3694 353 
Q 3694 422 3650 531 
L 3266 1488 
L 1456 1488 
L 1116 684 
Q 1025 469 1025 369 
Q 1025 325 1050 297 
Q 1084 256 1156 241 
Q 1272 216 1563 213 
L 1563 0 
Q 1034 28 772 28 
Q 469 28 109 0 
z
M 1563 1753 
L 3141 1753 
L 2359 3638 
L 1563 1753 
z
" transform="scale(0.015625)"/>
       <path id="Palatino-Roman-4e" d="M 178 0 
L 178 197 
Q 506 200 609 247 
Q 653 266 672 306 
Q 703 369 716 634 
Q 734 1047 734 1347 
L 734 3894 
Q 734 3997 722 4028 
Q 697 4084 609 4163 
Q 553 4213 479 4227 
Q 406 4241 153 4244 
L 153 4441 
Q 675 4428 809 4428 
Q 1038 4428 1263 4441 
Q 1528 4094 1653 3928 
L 2300 3131 
L 3244 1994 
Q 3697 1450 3972 1138 
Q 4147 931 4266 813 
L 4266 3097 
Q 4266 3403 4244 3816 
Q 4231 4075 4203 4138 
Q 4181 4178 4138 4197 
Q 4034 4241 3709 4244 
L 3709 4441 
Q 4078 4428 4456 4428 
Q 4813 4428 5103 4441 
L 5103 4244 
Q 4778 4241 4675 4197 
Q 4631 4178 4613 4134 
Q 4581 4075 4569 3806 
Q 4550 3394 4550 3097 
L 4550 1594 
Q 4550 1138 4566 -109 
L 4244 -16 
L 4169 0 
Q 4150 6 4134 19 
Q 4113 34 4016 144 
Q 3756 438 3634 588 
L 3231 1097 
L 1016 3744 
L 1016 1347 
Q 1016 1041 1038 625 
Q 1050 366 1078 306 
Q 1100 263 1144 244 
Q 1247 200 1572 197 
L 1572 0 
Q 1297 22 966 22 
Q 603 22 178 0 
z
" transform="scale(0.015625)"/>
       <path id="Palatino-Roman-4b" d="M 1988 200 
L 1988 0 
L 1044 25 
Q 947 25 159 0 
L 159 200 
Q 528 206 609 232 
Q 691 259 722 306 
Q 759 369 769 609 
Q 772 675 781 1497 
L 781 2944 
Q 781 3369 772 3775 
Q 763 4072 727 4126 
Q 691 4181 611 4207 
Q 531 4234 159 4241 
L 159 4441 
Q 766 4422 1088 4422 
Q 1406 4422 1988 4441 
L 1988 4241 
Q 1619 4234 1537 4207 
Q 1456 4181 1428 4134 
Q 1388 4072 1378 3831 
Q 1378 3769 1366 2944 
L 1366 2300 
Q 1534 2391 1766 2616 
L 2159 2997 
L 2856 3694 
Q 3259 4097 3353 4213 
L 3353 4441 
Q 3725 4428 3938 4428 
Q 4166 4428 4428 4441 
L 4428 4238 
Q 4131 4238 4028 4213 
Q 3925 4188 3825 4119 
Q 3625 3972 3213 3594 
L 1966 2453 
L 3841 697 
Q 4294 272 4356 234 
Q 4419 197 4597 194 
L 4597 0 
Q 4291 13 4188 13 
Q 4072 13 3700 0 
Q 3628 72 3178 503 
L 2856 813 
L 1438 2144 
L 1366 2103 
L 1366 1497 
Q 1366 1072 1378 669 
Q 1384 372 1420 315 
Q 1456 259 1537 232 
Q 1619 206 1988 200 
z
" transform="scale(0.015625)"/>
       <path id="Palatino-Roman-2b" d="M 2091 2000 
L 3569 2000 
L 3569 1716 
L 2091 1716 
L 2091 238 
L 1803 238 
L 1803 1716 
L 325 1716 
L 325 2000 
L 1803 2000 
L 1803 3478 
L 2091 3478 
L 2091 2000 
z
" transform="scale(0.015625)"/>
       <path id="Palatino-Roman-53" d="M 203 153 
Q 253 453 263 1125 
L 475 1125 
Q 491 669 527 586 
Q 563 503 700 409 
Q 838 316 1069 242 
Q 1300 169 1516 169 
Q 1831 169 2097 314 
Q 2363 459 2484 695 
Q 2606 931 2606 1200 
Q 2606 1406 2545 1556 
Q 2484 1706 2359 1798 
Q 2234 1891 2050 1928 
Q 1934 1947 1587 1990 
Q 1241 2034 997 2088 
Q 672 2188 519 2322 
Q 366 2456 270 2675 
Q 175 2894 175 3147 
Q 175 3516 367 3842 
Q 559 4169 936 4350 
Q 1313 4531 1753 4531 
Q 2019 4531 2333 4461 
Q 2647 4391 2919 4256 
Q 2875 4059 2856 3889 
Q 2838 3719 2828 3388 
L 2616 3388 
Q 2606 3869 2588 3913 
Q 2509 4025 2375 4116 
Q 2053 4297 1703 4297 
Q 1250 4297 979 4020 
Q 709 3744 709 3303 
Q 709 3038 806 2892 
Q 903 2747 1153 2659 
Q 1325 2600 1715 2548 
Q 2106 2497 2419 2438 
Q 2713 2350 2853 2229 
Q 2994 2109 3084 1914 
Q 3175 1719 3175 1456 
Q 3175 834 2659 371 
Q 2144 -91 1325 -91 
Q 706 -91 203 153 
z
" transform="scale(0.015625)"/>
       <path id="Palatino-Roman-63" d="M 2713 359 
L 2588 150 
Q 2372 34 2161 -19 
Q 1950 -72 1684 -72 
Q 1028 -72 639 323 
Q 250 719 250 1409 
Q 250 1775 354 2045 
Q 459 2316 613 2463 
Q 716 2566 1005 2730 
Q 1294 2894 1409 2941 
Q 1622 3031 1919 3031 
Q 2200 3031 2425 2972 
Q 2569 2934 2713 2847 
Q 2675 2606 2659 2482 
Q 2644 2359 2619 2034 
L 2441 2034 
Q 2422 2338 2403 2413 
Q 2391 2459 2347 2497 
Q 2234 2584 2057 2648 
Q 1881 2713 1672 2713 
Q 1409 2713 1217 2605 
Q 1025 2497 919 2262 
Q 813 2028 813 1681 
Q 813 1256 963 912 
Q 1113 569 1370 411 
Q 1628 253 1947 253 
Q 2106 253 2257 292 
Q 2409 331 2647 441 
L 2713 359 
z
" transform="scale(0.015625)"/>
       <path id="Palatino-Roman-37" d="M 422 0 
L 356 66 
Q 466 228 975 1031 
Q 1141 1297 1800 2369 
Q 2069 2806 2525 3606 
Q 2566 3675 2638 3813 
L 2606 3844 
L 1638 3844 
Q 1347 3844 1034 3833 
Q 722 3822 653 3794 
Q 613 3778 594 3753 
L 569 3716 
L 478 3034 
L 294 3034 
L 309 3856 
Q 309 4059 294 4369 
L 356 4400 
Q 606 4378 1041 4359 
Q 1603 4338 1778 4338 
Q 2169 4338 3169 4381 
L 3169 4194 
L 2719 3397 
Q 2575 3138 2025 2122 
Q 1641 1409 1353 797 
Q 1134 334 1009 0 
Q 831 16 709 16 
Q 578 16 422 0 
z
" transform="scale(0.015625)"/>
       <path id="Palatino-Roman-39" d="M 416 0 
L 416 59 
Q 978 194 1408 486 
Q 1838 778 2091 1278 
Q 2291 1672 2341 2197 
Q 2200 2100 2009 1931 
Q 1897 1828 1838 1794 
Q 1747 1734 1631 1700 
Q 1481 1656 1306 1656 
Q 806 1656 484 1993 
Q 163 2331 163 2919 
Q 163 3588 566 4002 
Q 969 4416 1581 4416 
Q 1972 4416 2281 4223 
Q 2591 4031 2767 3662 
Q 2944 3294 2944 2706 
Q 2944 1981 2678 1438 
Q 2356 775 1725 347 
Q 1197 -13 622 -100 
L 416 0 
z
M 703 3122 
Q 703 2856 795 2592 
Q 888 2328 1088 2186 
Q 1288 2044 1553 2044 
Q 1919 2044 2145 2291 
Q 2372 2538 2372 3034 
Q 2372 3525 2158 3862 
Q 1944 4200 1534 4200 
Q 1178 4200 940 3929 
Q 703 3659 703 3122 
z
" transform="scale(0.015625)"/>
       <path id="Palatino-Roman-2e" d="M 800 716 
Q 956 716 1064 606 
Q 1172 497 1172 341 
Q 1172 188 1062 78 
Q 953 -31 800 -31 
Q 644 -31 534 78 
Q 425 188 425 341 
Q 425 497 534 606 
Q 644 716 800 716 
z
" transform="scale(0.015625)"/>
       <path id="Palatino-Roman-66" d="M 238 2444 
L 238 2572 
Q 481 2675 669 2791 
L 669 2978 
Q 669 3384 720 3551 
Q 772 3719 866 3850 
Q 1006 4044 1309 4344 
Q 1513 4541 1609 4591 
Q 1738 4656 1909 4656 
Q 2031 4656 2159 4616 
L 2172 4097 
L 2100 4069 
Q 2003 4150 1908 4187 
Q 1813 4225 1684 4225 
Q 1516 4225 1409 4156 
Q 1303 4088 1254 3959 
Q 1206 3831 1206 3438 
L 1206 2791 
L 1538 2791 
Q 1788 2791 2028 2809 
L 2059 2791 
L 1997 2469 
Q 1725 2481 1597 2481 
Q 1466 2481 1206 2469 
L 1206 1350 
Q 1206 1144 1222 597 
Q 1225 403 1237 350 
Q 1250 297 1270 273 
Q 1291 250 1338 234 
Q 1431 206 1844 178 
L 1844 0 
Q 1116 22 956 22 
Q 813 22 153 0 
L 153 178 
L 450 181 
Q 516 184 552 204 
Q 588 225 606 256 
Q 641 319 650 478 
Q 650 519 669 1375 
L 669 2469 
L 238 2444 
z
" transform="scale(0.015625)"/>
      </defs>
      <use xlink:href="#Palatino-Roman-48"/>
      <use xlink:href="#Palatino-Roman-41" x="83.203125"/>
      <use xlink:href="#Palatino-Roman-4e" x="160.986328"/>
      <use xlink:href="#Palatino-Roman-4b" x="244.091797"/>
      <use xlink:href="#Palatino-Roman-20" x="316.699219"/>
      <use xlink:href="#Palatino-Roman-2b" x="341.699219"/>
      <use xlink:href="#Palatino-Roman-20" x="402.294922"/>
      <use xlink:href="#Palatino-Roman-53" x="427.294922"/>
      <use xlink:href="#Palatino-Roman-63" x="479.785156"/>
      <use xlink:href="#Palatino-Roman-61" x="524.169922"/>
      <use xlink:href="#Palatino-Roman-72" x="574.169922"/>
      <use xlink:href="#Palatino-Roman-72" x="613.671875"/>
      <use xlink:href="#Palatino-Roman-69" x="653.173828"/>
      <use xlink:href="#Palatino-Roman-6e" x="682.275391"/>
      <use xlink:href="#Palatino-Roman-67" x="740.478516"/>
      <use xlink:href="#Palatino-Roman-20" x="796.09375"/>
      <use xlink:href="#Palatino-Roman-28" x="821.09375"/>
      <use xlink:href="#Palatino-Roman-37" x="854.394531"/>
      <use xlink:href="#Palatino-Roman-39" x="904.394531"/>
      <use xlink:href="#Palatino-Roman-25" x="954.394531"/>
      <use xlink:href="#Palatino-Roman-20" x="1038.378906"/>
      <use xlink:href="#Palatino-Roman-74" x="1063.378906"/>
      <use xlink:href="#Palatino-Roman-65" x="1095.996094"/>
      <use xlink:href="#Palatino-Roman-6d" x="1143.896484"/>
      <use xlink:href="#Palatino-Roman-70" x="1232.177734"/>
      <use xlink:href="#Palatino-Roman-2e" x="1292.285156"/>
      <use xlink:href="#Palatino-Roman-20" x="1317.285156"/>
      <use xlink:href="#Palatino-Roman-6c" x="1342.285156"/>
      <use xlink:href="#Palatino-Roman-61" x="1371.386719"/>
      <use xlink:href="#Palatino-Roman-79" x="1421.386719"/>
      <use xlink:href="#Palatino-Roman-6f" x="1477.001953"/>
      <use xlink:href="#Palatino-Roman-66" x="1531.591797"/>
      <use xlink:href="#Palatino-Roman-66" x="1563.142578"/>
      <use xlink:href="#Palatino-Roman-73" x="1596.443359"/>
      <use xlink:href="#Palatino-Roman-29" x="1638.826172"/>
     </g>
    </g>
    <g id="line2d_16">
     <path d="M 123.321719 71.847656 
L 136.321719 71.847656 
L 149.321719 71.847656 
" style="fill: none; stroke-dasharray: 25.6,6.4,4,6.4; stroke-dashoffset: 0; stroke: #ff0000; stroke-width: 4"/>
    </g>
    <g id="text_13">
     <!-- HANK + Scarring (17% temp. layoffs) -->
     <g transform="translate(159.721719 76.397656) scale(0.13 -0.13)">
      <use xlink:href="#Palatino-Roman-48"/>
      <use xlink:href="#Palatino-Roman-41" x="83.203125"/>
      <use xlink:href="#Palatino-Roman-4e" x="160.986328"/>
      <use xlink:href="#Palatino-Roman-4b" x="244.091797"/>
      <use xlink:href="#Palatino-Roman-20" x="316.699219"/>
      <use xlink:href="#Palatino-Roman-2b" x="341.699219"/>
      <use xlink:href="#Palatino-Roman-20" x="402.294922"/>
      <use xlink:href="#Palatino-Roman-53" x="427.294922"/>
      <use xlink:href="#Palatino-Roman-63" x="479.785156"/>
      <use xlink:href="#Palatino-Roman-61" x="524.169922"/>
      <use xlink:href="#Palatino-Roman-72" x="574.169922"/>
      <use xlink:href="#Palatino-Roman-72" x="613.671875"/>
      <use xlink:href="#Palatino-Roman-69" x="653.173828"/>
      <use xlink:href="#Palatino-Roman-6e" x="682.275391"/>
      <use xlink:href="#Palatino-Roman-67" x="740.478516"/>
      <use xlink:href="#Palatino-Roman-20" x="796.09375"/>
      <use xlink:href="#Palatino-Roman-28" x="821.09375"/>
      <use xlink:href="#Palatino-Roman-31" x="854.394531"/>
      <use xlink:href="#Palatino-Roman-37" x="904.394531"/>
      <use xlink:href="#Palatino-Roman-25" x="954.394531"/>
      <use xlink:href="#Palatino-Roman-20" x="1038.378906"/>
      <use xlink:href="#Palatino-Roman-74" x="1063.378906"/>
      <use xlink:href="#Palatino-Roman-65" x="1095.996094"/>
      <use xlink:href="#Palatino-Roman-6d" x="1143.896484"/>
      <use xlink:href="#Palatino-Roman-70" x="1232.177734"/>
      <use xlink:href="#Palatino-Roman-2e" x="1292.285156"/>
      <use xlink:href="#Palatino-Roman-20" x="1317.285156"/>
      <use xlink:href="#Palatino-Roman-6c" x="1342.285156"/>
      <use xlink:href="#Palatino-Roman-61" x="1371.386719"/>
      <use xlink:href="#Palatino-Roman-79" x="1421.386719"/>
      <use xlink:href="#Palatino-Roman-6f" x="1477.001953"/>
      <use xlink:href="#Palatino-Roman-66" x="1531.591797"/>
      <use xlink:href="#Palatino-Roman-66" x="1563.142578"/>
      <use xlink:href="#Palatino-Roman-73" x="1596.443359"/>
      <use xlink:href="#Palatino-Roman-29" x="1638.826172"/>
     </g>
    </g>
    <g id="line2d_17">
     <path d="M 123.321719 91.969219 
L 136.321719 91.969219 
L 149.321719 91.969219 
" style="fill: none; stroke-dasharray: 38.4,9.6,6,9.6; stroke-dashoffset: 0; stroke: #ff8c00; stroke-width: 6"/>
    </g>
    <g id="text_14">
     <!-- HANK (79% temp. layoffs) -->
     <g transform="translate(159.721719 96.519219) scale(0.13 -0.13)">
      <use xlink:href="#Palatino-Roman-48"/>
      <use xlink:href="#Palatino-Roman-41" x="83.203125"/>
      <use xlink:href="#Palatino-Roman-4e" x="160.986328"/>
      <use xlink:href="#Palatino-Roman-4b" x="244.091797"/>
      <use xlink:href="#Palatino-Roman-20" x="316.699219"/>
      <use xlink:href="#Palatino-Roman-28" x="341.699219"/>
      <use xlink:href="#Palatino-Roman-37" x="375"/>
      <use xlink:href="#Palatino-Roman-39" x="425"/>
      <use xlink:href="#Palatino-Roman-25" x="475"/>
      <use xlink:href="#Palatino-Roman-20" x="558.984375"/>
      <use xlink:href="#Palatino-Roman-74" x="583.984375"/>
      <use xlink:href="#Palatino-Roman-65" x="616.601562"/>
      <use xlink:href="#Palatino-Roman-6d" x="664.501953"/>
      <use xlink:href="#Palatino-Roman-70" x="752.783203"/>
      <use xlink:href="#Palatino-Roman-2e" x="812.890625"/>
      <use xlink:href="#Palatino-Roman-20" x="837.890625"/>
      <use xlink:href="#Palatino-Roman-6c" x="862.890625"/>
      <use xlink:href="#Palatino-Roman-61" x="891.992188"/>
      <use xlink:href="#Palatino-Roman-79" x="941.992188"/>
      <use xlink:href="#Palatino-Roman-6f" x="997.607422"/>
      <use xlink:href="#Palatino-Roman-66" x="1052.197266"/>
      <use xlink:href="#Palatino-Roman-66" x="1083.748047"/>
      <use xlink:href="#Palatino-Roman-73" x="1117.048828"/>
      <use xlink:href="#Palatino-Roman-29" x="1159.431641"/>
     </g>
    </g>
    <g id="line2d_18">
     <path d="M 123.321719 112.090781 
L 136.321719 112.090781 
L 149.321719 112.090781 
" style="fill: none; stroke-dasharray: 14.8,6.4; stroke-dashoffset: 0; stroke: #000000; stroke-width: 4"/>
    </g>
    <g id="text_15">
     <!-- data (98% temp. layoffs) -->
     <g transform="translate(159.721719 116.640781) scale(0.13 -0.13)">
      <use xlink:href="#Palatino-Roman-64"/>
      <use xlink:href="#Palatino-Roman-61" x="61.083984"/>
      <use xlink:href="#Palatino-Roman-74" x="111.083984"/>
      <use xlink:href="#Palatino-Roman-61" x="143.701172"/>
      <use xlink:href="#Palatino-Roman-20" x="193.701172"/>
      <use xlink:href="#Palatino-Roman-28" x="218.701172"/>
      <use xlink:href="#Palatino-Roman-39" x="252.001953"/>
      <use xlink:href="#Palatino-Roman-38" x="302.001953"/>
      <use xlink:href="#Palatino-Roman-25" x="352.001953"/>
      <use xlink:href="#Palatino-Roman-20" x="435.986328"/>
      <use xlink:href="#Palatino-Roman-74" x="460.986328"/>
      <use xlink:href="#Palatino-Roman-65" x="493.603516"/>
      <use xlink:href="#Palatino-Roman-6d" x="541.503906"/>
      <use xlink:href="#Palatino-Roman-70" x="629.785156"/>
      <use xlink:href="#Palatino-Roman-2e" x="689.892578"/>
      <use xlink:href="#Palatino-Roman-20" x="714.892578"/>
      <use xlink:href="#Palatino-Roman-6c" x="739.892578"/>
      <use xlink:href="#Palatino-Roman-61" x="768.994141"/>
      <use xlink:href="#Palatino-Roman-79" x="818.994141"/>
      <use xlink:href="#Palatino-Roman-6f" x="874.609375"/>
      <use xlink:href="#Palatino-Roman-66" x="929.199219"/>
      <use xlink:href="#Palatino-Roman-66" x="960.75"/>
      <use xlink:href="#Palatino-Roman-73" x="994.050781"/>
      <use xlink:href="#Palatino-Roman-29" x="1036.433594"/>
     </g>
    </g>
   </g>
  </g>
 </g>
 <defs>
  <clipPath id="p76841347e0">
   <rect x="54" y="34.56" width="334.8" height="217.44"/>
  </clipPath>
 </defs>
</svg>
